<?xml version="1.0" standalone="no"?>
<!DOCTYPE svg PUBLIC "-//W3C//DTD SVG 20010904//EN"
 "http://www.w3.org/TR/2001/REC-SVG-20010904/DTD/svg10.dtd">
<svg version="1.0" xmlns="http://www.w3.org/2000/svg"
 width="300.000000pt" height="300.000000pt" viewBox="0 0 300.000000 300.000000"
 preserveAspectRatio="xMidYMid meet">
<metadata>
Created by potrace 1.14, written by Peter Selinger 2001-2017
</metadata>
<g transform="translate(0.000000,300.000000) scale(0.100000,-0.100000)" stroke="none">
<path d="M590 2246 c-3 -2 -36 -7 -74 -10 -100 -9 -240 -40 -353 -78 l-98 -33
-13 -45 c-31 -106 -50 -284 -48 -457 1 -94 5 -175 9 -180 19 -18 144 162 192
276 30 70 48 133 60 205 6 40 11 43 95 65 100 25 164 32 295 32 60 0 127 5
150 11 74 22 138 77 174 153 19 40 19 40 -3 49 -21 8 -378 20 -386 12z"/>
<path d="M586 1742 c-17 -4 -17 -4 0 -17 16 -11 18 -32 19 -171 0 -88 4 -169
8 -181 9 -25 63 -53 102 -53 36 0 81 27 94 57 6 14 11 88 12 174 0 160 3 179
26 179 8 0 12 4 9 8 -2 4 -23 6 -46 4 -38 -4 -40 -5 -22 -18 18 -12 19 -26 18
-175 l-2 -162 -28 -23 c-35 -31 -86 -32 -112 -3 -17 19 -19 39 -20 188 -1 157
0 167 19 177 18 10 16 12 -19 15 -22 2 -48 3 -58 1z"/>
<path d="M906 1742 c-17 -4 -16 -5 1 -17 18 -12 19 -27 19 -197 -1 -166 -3
-183 -18 -186 -39 -7 -15 -19 37 -19 30 1 55 4 55 9 0 4 -7 8 -15 8 -8 0 -16
8 -16 18 -4 46 -4 158 -1 168 4 13 90 13 110 1 6 -5 12 -19 12 -33 0 -13 4
-24 10 -24 5 0 9 31 9 70 -1 39 -5 70 -10 70 -6 0 -8 -4 -5 -9 13 -21 -23 -44
-75 -49 l-54 -4 1 79 c0 43 4 84 8 91 5 9 24 12 61 8 64 -6 86 -16 109 -51 24
-36 30 -26 15 24 l-12 41 -61 1 c-34 0 -84 1 -112 2 -28 1 -59 0 -68 -1z"/>
<path d="M1293 1590 c-98 -45 -103 -209 -7 -255 41 -19 68 -19 109 1 49 23 69
59 69 125 1 46 -4 63 -26 91 -37 48 -91 62 -145 38z m90 -20 c80 -63 48 -235
-43 -232 -59 1 -89 49 -84 135 3 53 24 94 57 107 33 13 42 12 70 -10z"/>
<path d="M1533 1602 c-22 -3 -33 -22 -13 -22 6 0 10 -45 10 -114 0 -66 -4
-117 -10 -121 -20 -12 -9 -21 23 -19 49 2 53 4 36 14 -12 7 -15 28 -15 108 1
107 12 135 50 130 20 -3 21 -10 24 -113 3 -95 1 -111 -14 -122 -20 -15 -21
-14 29 -17 39 -2 58 8 33 17 -10 4 -13 29 -12 105 2 107 13 135 50 130 20 -3
21 -10 24 -113 2 -95 0 -111 -15 -122 -9 -7 -13 -13 -7 -14 74 -8 98 -4 73 12
-10 6 -14 38 -15 119 -1 71 -6 115 -14 125 -16 20 -64 19 -84 -1 -15 -14 -17
-14 -22 0 -8 22 -62 21 -87 -1 -19 -17 -20 -17 -14 -1 7 21 0 25 -30 20z"/>
<path d="M1858 1603 c-29 -4 -39 -23 -14 -23 11 0 15 -24 18 -110 2 -88 6
-113 21 -127 24 -24 99 -23 127 2 18 16 20 16 20 2 0 -18 19 -20 60 -7 16 5
19 8 8 9 -28 2 -34 29 -32 149 1 95 -1 112 -13 108 -8 -3 -27 -6 -41 -7 -27 0
-27 0 -4 -11 20 -10 22 -18 22 -103 0 -107 -16 -135 -74 -135 -53 0 -60 17
-60 146 0 63 -3 113 -6 113 -3 -1 -17 -4 -32 -6z"/>
<path d="M2205 1576 c-20 -20 -24 -32 -19 -53 10 -40 7 -38 81 -69 68 -27 93
-47 93 -70 0 -47 -103 -62 -144 -21 -13 13 -25 30 -28 38 -9 25 -15 5 -11 -36
l5 -40 71 0 c91 1 112 8 127 46 20 47 0 73 -79 104 -78 32 -90 40 -86 63 2 9
4 20 4 25 2 13 54 28 79 22 13 -3 37 -20 54 -38 l29 -32 -3 39 -4 39 -72 5
c-66 3 -73 2 -97 -22z"/>
<path d="M2936 1515 c-93 -111 -158 -246 -194 -399 -17 -72 -21 -79 -50 -92
-18 -7 -35 -13 -37 -13 -3 0 -18 -2 -33 -5 -15 -4 -38 -9 -52 -12 -14 -3 -79
-7 -145 -10 -203 -8 -230 -11 -275 -34 -52 -26 -107 -83 -126 -127 -23 -52
-19 -59 34 -63 141 -11 486 -1 511 15 3 1 24 6 45 9 80 13 292 73 313 88 15
12 40 122 58 253 12 92 17 377 7 418 -6 25 -14 22 -56 -28z"/>
<path d="M383 1163 c9 -2 25 -2 35 0 9 3 1 5 -18 5 -19 0 -27 -2 -17 -5z"/>
<path d="M448 1163 c7 -3 16 -2 19 1 4 3 -2 6 -13 5 -11 0 -14 -3 -6 -6z"/>
<path d="M508 1163 c7 -3 16 -2 19 1 4 3 -2 6 -13 5 -11 0 -14 -3 -6 -6z"/>
<path d="M548 1163 c7 -3 16 -2 19 1 4 3 -2 6 -13 5 -11 0 -14 -3 -6 -6z"/>
<path d="M598 1163 c12 -2 30 -2 40 0 9 3 -1 5 -23 4 -22 0 -30 -2 -17 -4z"/>
<path d="M668 1163 c7 -3 16 -2 19 1 4 3 -2 6 -13 5 -11 0 -14 -3 -6 -6z"/>
<path d="M708 1163 c7 -3 16 -2 19 1 4 3 -2 6 -13 5 -11 0 -14 -3 -6 -6z"/>
<path d="M748 1163 c7 -3 16 -2 19 1 4 3 -2 6 -13 5 -11 0 -14 -3 -6 -6z"/>
<path d="M780 1161 c0 -4 11 -6 25 -3 14 2 25 6 25 8 0 2 -11 4 -25 4 -14 0
-25 -4 -25 -9z"/>
<path d="M848 1163 c7 -3 16 -2 19 1 4 3 -2 6 -13 5 -11 0 -14 -3 -6 -6z"/>
<path d="M1008 1161 c12 -7 62 -4 62 5 0 2 -17 4 -37 4 -24 0 -33 -3 -25 -9z"/>
<path d="M1088 1163 c7 -3 16 -2 19 1 4 3 -2 6 -13 5 -11 0 -14 -3 -6 -6z"/>
<path d="M1148 1163 c7 -3 16 -2 19 1 4 3 -2 6 -13 5 -11 0 -14 -3 -6 -6z"/>
<path d="M1188 1163 c7 -3 16 -2 19 1 4 3 -2 6 -13 5 -11 0 -14 -3 -6 -6z"/>
<path d="M1263 1163 c9 -2 23 -2 30 0 6 3 -1 5 -18 5 -16 0 -22 -2 -12 -5z"/>
<path d="M1413 1163 c9 -2 25 -2 35 0 9 3 1 5 -18 5 -19 0 -27 -2 -17 -5z"/>
<path d="M1573 1163 c9 -2 25 -2 35 0 9 3 1 5 -18 5 -19 0 -27 -2 -17 -5z"/>
<path d="M1733 1163 c9 -2 25 -2 35 0 9 3 1 5 -18 5 -19 0 -27 -2 -17 -5z"/>
<path d="M1898 1163 c12 -2 30 -2 40 0 9 3 -1 5 -23 4 -22 0 -30 -2 -17 -4z"/>
<path d="M1968 1163 c7 -3 16 -2 19 1 4 3 -2 6 -13 5 -11 0 -14 -3 -6 -6z"/>
<path d="M2128 1161 c12 -7 62 -4 62 5 0 2 -17 4 -37 4 -24 0 -33 -3 -25 -9z"/>
<path d="M2208 1163 c7 -3 16 -2 19 1 4 3 -2 6 -13 5 -11 0 -14 -3 -6 -6z"/>
<path d="M2268 1163 c7 -3 16 -2 19 1 4 3 -2 6 -13 5 -11 0 -14 -3 -6 -6z"/>
<path d="M2308 1163 c7 -3 16 -2 19 1 4 3 -2 6 -13 5 -11 0 -14 -3 -6 -6z"/>
<path d="M2348 1163 c7 -3 16 -2 19 1 4 3 -2 6 -13 5 -11 0 -14 -3 -6 -6z"/>
<path d="M2380 1161 c0 -4 11 -6 25 -3 14 2 25 6 25 8 0 2 -11 4 -25 4 -14 0
-25 -4 -25 -9z"/>
<path d="M2448 1163 c7 -3 16 -2 19 1 4 3 -2 6 -13 5 -11 0 -14 -3 -6 -6z"/>
<path d="M2608 1163 c6 -2 18 -2 25 0 6 3 1 5 -13 5 -14 0 -19 -2 -12 -5z"/>
</g>
</svg>
