<svg width="1209" height="1132" viewBox="0 0 1209 1132" fill="none" xmlns="http://www.w3.org/2000/svg">
<path d="M1055.8 713.582L1086.59 432.046H1049.49L1018.7 713.582H1055.8Z" fill="white"/>
<path d="M1055.8 716.371H1018.7C1018.3 716.373 1017.91 716.293 1017.54 716.135C1017.18 715.977 1016.85 715.745 1016.59 715.455C1016.32 715.164 1016.12 714.822 1016 714.45C1015.87 714.077 1015.83 713.684 1015.87 713.295L1046.68 431.749C1046.76 431.065 1047.09 430.432 1047.61 429.973C1048.13 429.514 1048.81 429.262 1049.5 429.266H1086.61C1087 429.264 1087.4 429.345 1087.76 429.502C1088.12 429.66 1088.45 429.892 1088.72 430.182C1088.98 430.473 1089.18 430.815 1089.31 431.187C1089.43 431.56 1089.47 431.953 1089.43 432.342L1058.64 713.878C1058.56 714.568 1058.23 715.206 1057.71 715.667C1057.18 716.128 1056.5 716.379 1055.8 716.371ZM1021.84 710.812H1053.27L1083.45 434.835H1052.02L1021.84 710.812Z" fill="#262424"/>
<path d="M1039.35 713.582L1070.14 432.046H1033.03L1002.25 713.582H1039.35Z" fill="white"/>
<path d="M1039.35 716.371H1002.25C1001.85 716.373 1001.46 716.293 1001.09 716.135C1000.73 715.977 1000.4 715.745 1000.14 715.455C999.871 715.164 999.67 714.822 999.548 714.45C999.425 714.077 999.384 713.684 999.426 713.295L1030.23 431.749C1030.3 431.065 1030.63 430.432 1031.15 429.973C1031.67 429.514 1032.35 429.262 1033.05 429.266H1070.15C1070.54 429.264 1070.94 429.345 1071.3 429.502C1071.67 429.66 1071.99 429.892 1072.26 430.182C1072.52 430.473 1072.72 430.815 1072.85 431.187C1072.97 431.56 1073.01 431.953 1072.97 432.342L1042.18 713.878C1042.11 714.566 1041.78 715.203 1041.25 715.664C1040.73 716.125 1040.05 716.377 1039.35 716.371ZM1005.39 710.812H1036.82L1067 434.835H1035.57L1005.39 710.812Z" fill="#262424"/>
<path d="M1166.17 458.804H961.103C950.382 458.804 942.632 450.243 943.789 439.681L961.658 276.617C962.814 266.054 972.435 257.494 983.156 257.494H1188.17C1198.9 257.494 1206.64 266.054 1205.49 276.617L1187.62 439.681C1186.52 450.243 1176.89 458.804 1166.17 458.804Z" fill="white"/>
<path d="M1166.17 461.583H961.103C958.231 461.638 955.381 461.08 952.748 459.948C950.116 458.815 947.763 457.135 945.851 455.023C943.939 452.911 942.514 450.417 941.673 447.711C940.831 445.005 940.594 442.152 940.977 439.347L958.846 276.283C960.153 264.368 971.071 254.677 983.147 254.677H1188.16C1191.04 254.622 1193.89 255.18 1196.52 256.312C1199.15 257.445 1201.5 259.125 1203.42 261.237C1205.33 263.349 1206.75 265.844 1207.59 268.549C1208.44 271.255 1208.67 274.108 1208.29 276.913L1190.42 439.977C1189.17 451.892 1178.27 461.583 1166.17 461.583ZM983.137 260.291C978.509 260.399 974.074 262.143 970.641 265.205C967.209 268.266 965.009 272.441 964.441 276.969L946.573 440.033C946.307 442.072 946.484 444.144 947.094 446.111C947.704 448.077 948.731 449.893 950.109 451.438C951.5 452.933 953.198 454.12 955.09 454.919C956.982 455.717 959.026 456.11 961.084 456.071H1166.1C1170.73 455.963 1175.17 454.219 1178.6 451.157C1182.03 448.096 1184.23 443.921 1184.8 439.393L1202.67 276.329C1202.93 274.29 1202.76 272.218 1202.15 270.251C1201.54 268.285 1200.51 266.469 1199.13 264.924C1197.74 263.429 1196.04 262.242 1194.15 261.443C1192.26 260.645 1190.21 260.252 1188.16 260.291H983.137Z" fill="#262424"/>
<path d="M1122.15 458.804H917.127C906.406 458.804 898.657 450.243 899.814 439.681L917.682 276.617C918.839 266.054 928.46 257.494 939.181 257.494H1144.2C1154.92 257.494 1162.67 266.054 1161.51 276.617L1143.64 439.681C1142.49 450.243 1132.87 458.804 1122.15 458.804Z" fill="#88C0C2"/>
<path d="M1122.15 461.583H917.127C914.255 461.638 911.405 461.08 908.773 459.948C906.14 458.815 903.787 457.135 901.876 455.023C899.964 452.911 898.539 450.417 897.697 447.711C896.856 445.005 896.619 442.152 897.002 439.347L914.87 276.283C916.178 264.368 927.096 254.677 939.172 254.677H1144.19C1147.06 254.622 1149.91 255.18 1152.54 256.312C1155.18 257.445 1157.53 259.125 1159.44 261.237C1161.35 263.349 1162.78 265.844 1163.62 268.549C1164.46 271.255 1164.7 274.108 1164.31 276.913L1146.45 439.977C1145.15 451.892 1134.25 461.583 1122.15 461.583ZM939.115 260.291C934.486 260.399 930.051 262.143 926.619 265.205C923.187 268.266 920.986 272.441 920.419 276.969L902.55 440.033C902.284 442.072 902.462 444.144 903.072 446.111C903.681 448.077 904.709 449.893 906.087 451.438C907.477 452.933 909.175 454.12 911.068 454.919C912.96 455.717 915.003 456.11 917.062 456.071H1122.08C1126.71 455.963 1131.14 454.219 1134.58 451.157C1138.01 448.096 1140.21 443.921 1140.78 439.393L1158.64 276.329C1158.91 274.29 1158.73 272.218 1158.12 270.251C1157.51 268.285 1156.49 266.469 1155.11 264.924C1153.72 263.429 1152.02 262.242 1150.13 261.443C1148.23 260.645 1146.19 260.252 1144.13 260.291H939.115Z" fill="#88C0C2"/>
<path d="M906.933 778.447H948.877V871.097H906.933V778.447Z" fill="white"/>
<path d="M948.877 873.877H906.933C906.185 873.877 905.467 873.584 904.938 873.062C904.409 872.541 904.112 871.834 904.112 871.097V778.447C904.112 777.71 904.409 777.003 904.938 776.481C905.467 775.96 906.185 775.667 906.933 775.667H948.877C949.625 775.667 950.343 775.96 950.872 776.481C951.401 777.003 951.698 777.71 951.698 778.447V871.097C951.698 871.834 951.401 872.541 950.872 873.062C950.343 873.584 949.625 873.877 948.877 873.877ZM909.754 868.318H946.055V781.226H909.754V868.318Z" fill="#262424"/>
<path d="M907.008 859.191H948.802C952.234 859.191 955.525 860.534 957.952 862.925C960.379 865.316 961.742 868.558 961.742 871.94V912.316H894.03V871.94C894.03 868.558 895.393 865.316 897.82 862.925C900.247 860.534 903.538 859.191 906.97 859.191H907.008Z" fill="#88C0C2"/>
<path d="M927.905 912.326V957.261L768.141 1027.6H737.276C737.277 1021.96 738.731 1016.42 741.503 1011.48C744.275 1006.55 748.273 1002.39 753.122 999.398L894.067 912.363H927.924L927.905 912.326Z" fill="white"/>
<path d="M768.141 1030.34H737.276C736.528 1030.34 735.81 1030.05 735.281 1029.53C734.752 1029.01 734.455 1028.3 734.455 1027.56C734.433 1021.45 735.999 1015.43 739.003 1010.08C742.007 1004.73 746.349 1000.22 751.618 996.99L892.563 910.01C893.011 909.732 893.529 909.585 894.058 909.584H927.914C928.662 909.584 929.38 909.877 929.909 910.398C930.438 910.919 930.736 911.626 930.736 912.363V957.261C930.735 957.799 930.577 958.324 930.28 958.775C929.983 959.225 929.56 959.582 929.062 959.8L769.251 1030.1C768.902 1030.26 768.524 1030.34 768.141 1030.34ZM740.219 1024.78H767.492L925.083 955.408V915.106H894.876L754.618 1001.73C750.57 1004.21 747.162 1007.59 744.663 1011.59C742.165 1015.59 740.643 1020.11 740.219 1024.78Z" fill="#262424"/>
<path d="M751.063 1092.54C765.694 1092.54 777.555 1080.85 777.555 1066.44C777.555 1052.03 765.694 1040.34 751.063 1040.34C736.431 1040.34 724.57 1052.03 724.57 1066.44C724.57 1080.85 736.431 1092.54 751.063 1092.54Z" fill="#262424"/>
<path d="M751.063 1074.94C755.826 1074.94 759.687 1071.13 759.687 1066.44C759.687 1061.75 755.826 1057.94 751.063 1057.94C746.3 1057.94 742.439 1061.75 742.439 1066.44C742.439 1071.13 746.3 1074.94 751.063 1074.94Z" fill="white"/>
<path d="M927.905 912.326V957.261L1087.67 1027.6H1118.53C1118.53 1021.96 1117.08 1016.42 1114.31 1011.48C1111.53 1006.55 1107.54 1002.39 1102.69 999.398L961.742 912.363H927.886L927.905 912.326Z" fill="white"/>
<path d="M1118.53 1030.34H1087.67C1087.27 1030.34 1086.88 1030.26 1086.52 1030.1L926.757 959.763C926.259 959.545 925.836 959.189 925.539 958.738C925.242 958.288 925.084 957.762 925.083 957.225V912.326C925.083 911.589 925.381 910.882 925.91 910.361C926.439 909.84 927.156 909.547 927.905 909.547H961.761C962.29 909.548 962.808 909.696 963.256 909.973L1104.2 997.009C1109.47 1000.24 1113.81 1004.75 1116.82 1010.1C1119.82 1015.45 1121.39 1021.47 1121.36 1027.58C1121.36 1028.32 1121.06 1029.02 1120.53 1029.54C1120 1030.06 1119.28 1030.35 1118.53 1030.34ZM1088.27 1024.79H1115.54C1115.13 1020.11 1113.62 1015.6 1111.14 1011.6C1108.65 1007.6 1105.26 1004.22 1101.23 1001.73L960.971 915.124H930.726V955.409L1088.27 1024.79Z" fill="#262424"/>
<path d="M1104.74 1092.54C1119.37 1092.54 1131.23 1080.85 1131.23 1066.44C1131.23 1052.03 1119.37 1040.34 1104.74 1040.34C1090.11 1040.34 1078.24 1052.03 1078.24 1066.44C1078.24 1080.85 1090.11 1092.54 1104.74 1092.54Z" fill="#262424"/>
<path d="M1104.74 1074.94C1109.5 1074.94 1113.36 1071.13 1113.36 1066.44C1113.36 1061.75 1109.5 1057.94 1104.74 1057.94C1099.97 1057.94 1096.11 1061.75 1096.11 1066.44C1096.11 1071.13 1099.97 1074.94 1104.74 1074.94Z" fill="white"/>
<path d="M945.482 1027.56H910.318L894.067 912.326H961.742L945.482 1027.56Z" fill="white"/>
<path d="M945.491 1030.34H910.318C909.632 1030.35 908.968 1030.11 908.448 1029.67C907.929 1029.23 907.591 1028.61 907.497 1027.94L891.246 912.706C891.191 912.311 891.223 911.908 891.339 911.526C891.456 911.143 891.655 910.79 891.923 910.49C892.191 910.191 892.521 909.951 892.891 909.788C893.261 909.626 893.662 909.543 894.067 909.547H961.78C962.185 909.543 962.587 909.626 962.957 909.788C963.327 909.951 963.657 910.191 963.925 910.49C964.192 910.79 964.391 911.143 964.508 911.526C964.625 911.908 964.657 912.311 964.601 912.706L948.35 1027.94C948.256 1028.62 947.912 1029.24 947.385 1029.68C946.858 1030.12 946.184 1030.36 945.491 1030.34ZM912.782 1024.79H943.037L958.507 915.106H897.312L912.782 1024.79Z" fill="#262424"/>
<path d="M939.783 1040.34H918.002C912.979 1040.34 908.908 1044.35 908.908 1049.3V1083.58C908.908 1088.53 912.979 1092.54 918.002 1092.54H939.783C944.805 1092.54 948.877 1088.53 948.877 1083.58V1049.3C948.877 1044.35 944.805 1040.34 939.783 1040.34Z" fill="#262424"/>
<path d="M937.281 698.768H774.583C760.04 698.768 748.251 710.382 748.251 724.71C748.251 739.037 760.04 750.652 774.583 750.652H937.281C951.824 750.652 963.614 739.037 963.614 724.71C963.614 710.382 951.824 698.768 937.281 698.768Z" fill="white"/>
<path d="M937.281 753.431H774.584C766.851 753.431 759.436 750.405 753.969 745.019C748.501 739.632 745.43 732.327 745.43 724.71C745.43 717.092 748.501 709.787 753.969 704.4C759.436 699.014 766.851 695.988 774.584 695.988H937.281C945.013 695.988 952.429 699.014 957.896 704.4C963.364 709.787 966.435 717.092 966.435 724.71C966.435 732.327 963.364 739.632 957.896 745.019C952.429 750.405 945.013 753.431 937.281 753.431ZM774.584 701.547C768.348 701.547 762.368 703.987 757.959 708.331C753.549 712.675 751.072 718.566 751.072 724.71C751.072 730.853 753.549 736.744 757.959 741.088C762.368 745.432 768.348 747.872 774.584 747.872H937.281C943.517 747.872 949.497 745.432 953.906 741.088C958.315 736.744 960.792 730.853 960.792 724.71C960.792 718.566 958.315 712.675 953.906 708.331C949.497 703.987 943.517 701.547 937.281 701.547H774.584Z" fill="#262424"/>
<path d="M1081.23 698.768H940.413C925.87 698.768 914.08 710.382 914.08 724.71C914.08 739.037 925.87 750.652 940.413 750.652H1081.23C1095.77 750.652 1107.56 739.037 1107.56 724.71C1107.56 710.382 1095.77 698.768 1081.23 698.768Z" fill="white"/>
<path d="M1081.23 753.431H940.413C932.681 753.431 925.265 750.405 919.798 745.019C914.33 739.632 911.259 732.327 911.259 724.71C911.259 717.092 914.33 709.787 919.798 704.4C925.265 699.014 932.681 695.988 940.413 695.988H1081.23C1088.96 695.988 1096.37 699.014 1101.84 704.4C1107.31 709.787 1110.38 717.092 1110.38 724.71C1110.38 732.327 1107.31 739.632 1101.84 745.019C1096.37 750.405 1088.96 753.431 1081.23 753.431ZM940.413 701.547C934.177 701.547 928.197 703.987 923.788 708.331C919.379 712.675 916.902 718.566 916.902 724.71C916.902 730.853 919.379 736.744 923.788 741.088C928.197 745.432 934.177 747.872 940.413 747.872H1081.23C1087.46 747.872 1093.44 745.432 1097.85 741.088C1102.26 736.744 1104.74 730.853 1104.74 724.71C1104.74 718.566 1102.26 712.675 1097.85 708.331C1093.44 703.987 1087.46 701.547 1081.23 701.547H940.413Z" fill="#262424"/>
<path d="M455.978 431.935V446.759H332.093V431.935L355.134 378.985H445.473L422.432 431.935H455.978Z" fill="white"/>
<path d="M455.978 449.538H332.093C331.345 449.538 330.627 449.246 330.098 448.724C329.569 448.203 329.272 447.496 329.272 446.759V431.935C329.271 431.559 329.348 431.187 329.497 430.842L352.538 377.892C352.756 377.391 353.118 376.965 353.579 376.665C354.041 376.365 354.581 376.205 355.134 376.206H445.473C445.94 376.206 446.4 376.319 446.811 376.537C447.222 376.755 447.572 377.07 447.83 377.454C448.087 377.838 448.243 378.278 448.285 378.736C448.327 379.195 448.253 379.656 448.069 380.079L426.712 429.183H455.978C456.727 429.183 457.444 429.476 457.973 429.997C458.502 430.519 458.8 431.226 458.8 431.963V446.787C458.792 447.519 458.492 448.219 457.963 448.734C457.435 449.249 456.722 449.538 455.978 449.538ZM334.914 443.979H453.157V434.714H422.432C421.966 434.715 421.506 434.601 421.095 434.383C420.684 434.165 420.334 433.85 420.076 433.466C419.819 433.083 419.663 432.642 419.621 432.184C419.579 431.726 419.653 431.264 419.837 430.842L441.194 381.737H356.996L334.914 432.482V443.979Z" fill="#262424"/>
<path d="M381.231 431.935H455.978V446.759H381.231V431.935Z" fill="white"/>
<path d="M455.978 449.538H381.231C380.483 449.538 379.766 449.246 379.236 448.724C378.707 448.203 378.41 447.496 378.41 446.759V431.935C378.41 431.198 378.707 430.491 379.236 429.969C379.766 429.448 380.483 429.155 381.231 429.155H455.978C456.727 429.155 457.444 429.448 457.973 429.969C458.502 430.491 458.8 431.198 458.8 431.935V446.759C458.8 447.496 458.502 448.203 457.973 448.724C457.444 449.246 456.727 449.538 455.978 449.538ZM384.053 443.979H453.157V434.714H384.053V443.979Z" fill="#262424"/>
<path d="M381.231 431.935V446.759H332.093V431.935L355.134 378.985H370.727L347.686 431.935H381.231Z" fill="white"/>
<path d="M381.231 449.538H332.093C331.345 449.538 330.627 449.246 330.098 448.724C329.569 448.203 329.272 447.496 329.272 446.759V431.935C329.271 431.559 329.348 431.187 329.497 430.842L352.538 377.892C352.756 377.391 353.118 376.965 353.579 376.665C354.041 376.365 354.581 376.205 355.134 376.206H370.727C371.19 376.207 371.646 376.321 372.054 376.538C372.462 376.754 372.809 377.066 373.066 377.446C373.322 377.826 373.48 378.263 373.525 378.717C373.569 379.171 373.5 379.629 373.322 380.051L351.965 429.155H381.231C381.98 429.155 382.697 429.448 383.226 429.969C383.756 430.491 384.053 431.198 384.053 431.935V446.759C384.053 447.496 383.756 448.203 383.226 448.724C382.697 449.246 381.98 449.538 381.231 449.538ZM334.914 443.979H378.41V434.714H347.686C347.219 434.715 346.759 434.601 346.348 434.383C345.937 434.165 345.587 433.85 345.33 433.466C345.072 433.083 344.916 432.642 344.874 432.184C344.832 431.726 344.906 431.264 345.09 430.842L366.448 381.737H356.996L334.914 432.482V443.979Z" fill="#262424"/>
<path d="M571.362 396.728H201.126C198.383 396.671 195.753 395.641 193.719 393.827C191.685 392.012 190.385 389.535 190.057 386.851L165.991 158.932C165.824 157.683 165.933 156.414 166.31 155.211C166.688 154.007 167.325 152.899 168.178 151.961C169.031 151.023 170.08 150.277 171.253 149.776C172.425 149.274 173.694 149.029 174.972 149.056H545.208C547.951 149.112 550.582 150.142 552.615 151.957C554.649 153.772 555.949 156.248 556.277 158.932L580.343 386.851C580.51 388.1 580.401 389.37 580.024 390.573C579.646 391.776 579.009 392.885 578.156 393.823C577.303 394.761 576.254 395.506 575.082 396.008C573.909 396.509 572.64 396.755 571.362 396.728Z" fill="#DE9244"/>
<path d="M587.509 396.728H217.274C214.53 396.671 211.9 395.641 209.867 393.827C207.833 392.012 206.532 389.535 206.205 386.851L182.138 158.932C181.971 157.683 182.08 156.414 182.458 155.211C182.835 154.007 183.472 152.899 184.325 151.961C185.179 151.023 186.227 150.277 187.4 149.776C188.573 149.274 189.842 149.029 191.12 149.056H561.356C564.099 149.112 566.729 150.142 568.763 151.957C570.796 153.772 572.097 156.248 572.425 158.932L596.491 386.851C596.658 388.1 596.549 389.37 596.171 390.573C595.794 391.776 595.157 392.885 594.304 393.823C593.451 394.761 592.402 395.506 591.229 396.008C590.056 396.509 588.788 396.755 587.509 396.728Z" fill="#88C0C2"/>
<path d="M575.679 378.985H225.362C223.926 378.955 222.549 378.416 221.485 377.466C220.421 376.516 219.74 375.22 219.568 373.816L198.248 171.977C198.162 171.324 198.219 170.659 198.417 170.03C198.615 169.4 198.948 168.82 199.395 168.329C199.841 167.838 200.39 167.448 201.004 167.185C201.618 166.923 202.282 166.794 202.951 166.807H553.268C554.703 166.837 556.08 167.377 557.144 168.326C558.208 169.276 558.889 170.573 559.061 171.977L580.381 373.816C580.468 374.469 580.41 375.133 580.212 375.763C580.014 376.393 579.681 376.973 579.234 377.464C578.788 377.955 578.239 378.345 577.625 378.607C577.012 378.87 576.348 378.999 575.679 378.985Z" fill="white"/>
<path d="M575.679 381.765H225.362C223.225 381.744 221.17 380.953 219.584 379.542C217.999 378.13 216.993 376.195 216.756 374.103L195.436 172.265C195.309 171.223 195.409 170.166 195.73 169.165C196.052 168.164 196.587 167.243 197.299 166.463C198.012 165.683 198.886 165.062 199.862 164.642C200.838 164.222 201.895 164.013 202.96 164.028H553.277C555.414 164.049 557.469 164.84 559.054 166.252C560.64 167.663 561.646 169.598 561.882 171.69L583.183 373.566C583.305 374.603 583.201 375.654 582.878 376.649C582.555 377.644 582.021 378.56 581.311 379.336C580.601 380.111 579.732 380.729 578.76 381.148C577.789 381.567 576.739 381.777 575.679 381.765ZM202.951 169.596C202.681 169.585 202.412 169.632 202.162 169.733C201.912 169.833 201.687 169.986 201.502 170.18C201.322 170.387 201.189 170.63 201.111 170.892C201.033 171.154 201.013 171.429 201.051 171.699L222.371 373.566C222.475 374.285 222.831 374.946 223.377 375.435C223.923 375.924 224.625 376.21 225.362 376.243H575.679C575.948 376.254 576.217 376.207 576.467 376.107C576.717 376.006 576.942 375.854 577.127 375.66C577.307 375.452 577.441 375.21 577.518 374.948C577.596 374.686 577.617 374.41 577.578 374.14L556.258 172.265C556.154 171.545 555.798 170.884 555.252 170.395C554.707 169.907 554.005 169.621 553.268 169.587H202.951V169.596Z" fill="#262424"/>
<path d="M444.251 331.873H243.935C242.5 331.843 241.123 331.304 240.059 330.354C238.995 329.404 238.314 328.108 238.142 326.703L225.314 205.48C225.228 204.826 225.285 204.162 225.483 203.532C225.681 202.902 226.015 202.322 226.461 201.831C226.908 201.34 227.456 200.95 228.07 200.688C228.684 200.425 229.348 200.296 230.017 200.31H430.332C431.768 200.34 433.144 200.879 434.209 201.829C435.273 202.779 435.954 204.075 436.125 205.48L448.925 326.712C449.01 327.363 448.952 328.024 448.755 328.65C448.558 329.277 448.227 329.854 447.784 330.344C447.34 330.833 446.796 331.223 446.186 331.487C445.577 331.751 444.917 331.882 444.251 331.873Z" fill="#DE9244"/>
<path d="M437.395 320.217H248.308L236.873 211.984H425.959L437.395 320.217Z" fill="white"/>
<path d="M437.395 322.997H248.308C247.608 323.001 246.931 322.748 246.41 322.287C245.888 321.826 245.559 321.191 245.487 320.505L234.07 212.271C234.029 211.882 234.072 211.49 234.195 211.119C234.318 210.748 234.52 210.406 234.786 210.117C235.052 209.828 235.377 209.597 235.74 209.439C236.103 209.282 236.495 209.202 236.891 209.204H425.987C426.688 209.2 427.365 209.453 427.886 209.914C428.408 210.375 428.736 211.01 428.809 211.696L440.235 319.93C440.276 320.32 440.233 320.714 440.109 321.087C439.984 321.459 439.781 321.801 439.513 322.091C439.245 322.381 438.918 322.611 438.552 322.767C438.187 322.923 437.793 323.002 437.395 322.997ZM250.857 317.438H434.245L423.42 214.763H240.033L250.857 317.438Z" fill="#262424"/>
<path d="M511.051 258.383C511.051 258.383 535.757 267.499 550.352 378.985H520.258L511.051 258.383Z" fill="#88C0C2"/>
<path d="M454.022 203.265C454.022 203.265 448.624 220.508 458.809 240.085H494.904C494.904 240.085 495.383 221.323 491.49 207.768C487.596 194.214 454.022 203.265 454.022 203.265Z" fill="#262424"/>
<path d="M407.536 292.033L388.116 258.012C387.839 257.544 387.41 257.181 386.898 256.983C386.386 256.784 385.821 256.762 385.294 256.919C385.043 257.011 384.812 257.152 384.617 257.333C384.421 257.514 384.264 257.732 384.154 257.973C384.045 258.215 383.985 258.475 383.979 258.74C383.973 259.004 384.021 259.267 384.119 259.513L387.429 269.149L382.548 274.708C379.727 277.867 380.3 282.889 383.742 286.048L401.028 298.556L407.536 292.033Z" fill="white"/>
<path d="M401.066 301.345C400.467 301.344 399.884 301.156 399.401 300.807L382.106 288.327L381.852 288.123C377.272 283.917 376.661 277.246 380.451 272.929L384.269 268.574L381.448 260.449C381.229 259.86 381.131 259.235 381.158 258.608C381.185 257.982 381.338 257.367 381.607 256.799C381.876 256.231 382.256 255.72 382.726 255.297C383.196 254.875 383.746 254.547 384.344 254.334C385.483 253.958 386.718 253.977 387.843 254.388C388.969 254.8 389.918 255.578 390.532 256.595L390.579 256.678L410 290.671C410.297 291.195 410.415 291.798 410.335 292.393C410.255 292.987 409.983 293.54 409.558 293.97L403.097 300.502C402.833 300.769 402.517 300.982 402.168 301.127C401.819 301.271 401.444 301.346 401.066 301.345ZM385.548 283.926L400.718 294.896L404 291.579L389.178 265.637L390.119 268.259C390.279 268.72 390.314 269.214 390.22 269.692C390.126 270.17 389.906 270.615 389.583 270.983L384.702 276.542C382.981 278.506 383.376 281.842 385.548 283.926Z" fill="#262424"/>
<path d="M445.455 258.383C438.872 264.247 431.085 277.895 421.943 300.539L408.204 286.178L394.859 297.991C394.859 297.991 413.028 347.558 428.545 347.558C444.063 347.558 461.724 312.5 461.724 312.5L445.455 258.383Z" fill="#88C0C2"/>
<path d="M424.417 335.579C423.8 335.578 423.2 335.379 422.709 335.011C422.218 334.643 421.863 334.126 421.699 333.54C419.093 324.019 418.315 314.102 419.404 304.3C419.457 303.939 419.581 303.591 419.77 303.277C419.959 302.963 420.208 302.688 420.505 302.469C420.801 302.251 421.139 302.091 421.498 302.001C421.857 301.91 422.23 301.89 422.597 301.942C422.964 301.994 423.317 302.116 423.635 302.302C423.954 302.488 424.233 302.734 424.455 303.026C424.677 303.318 424.839 303.651 424.931 304.004C425.023 304.358 425.043 304.726 424.99 305.087C424.032 314.13 424.752 323.269 427.116 332.058C427.231 332.469 427.249 332.901 427.168 333.32C427.087 333.739 426.909 334.134 426.648 334.474C426.387 334.815 426.05 335.091 425.663 335.283C425.276 335.474 424.85 335.576 424.417 335.579Z" fill="#262424"/>
<path d="M527.396 378.985H454.596C444.317 320.301 445.464 258.383 445.464 258.383C457.229 249.581 476.96 246.032 476.96 246.032C476.96 246.032 497.433 249.581 511.06 258.383C511.051 258.383 525.28 320.301 527.396 378.985Z" fill="#88C0C2"/>
<path d="M448.06 329.566C447.349 329.568 446.664 329.306 446.14 328.832C445.617 328.358 445.295 327.707 445.238 327.009C443.019 300.242 442.624 277.358 442.586 266.101C442.586 265.363 442.884 264.656 443.413 264.135C443.942 263.614 444.659 263.321 445.408 263.321C446.156 263.321 446.874 263.614 447.403 264.135C447.932 264.656 448.229 265.363 448.229 266.101C448.229 277.274 448.662 299.992 450.862 326.573C450.922 327.308 450.683 328.036 450.198 328.597C449.713 329.158 449.022 329.507 448.276 329.566H448.041H448.06Z" fill="#262424"/>
<path d="M526.935 372.046C526.214 372.047 525.519 371.776 524.995 371.288C524.47 370.801 524.155 370.134 524.114 369.424C521.64 326.314 513.383 283.195 509.951 266.657C509.877 266.299 509.875 265.93 509.945 265.572C510.016 265.213 510.157 264.872 510.362 264.568C510.566 264.263 510.829 264.001 511.136 263.797C511.443 263.592 511.788 263.45 512.151 263.377C512.514 263.304 512.889 263.302 513.252 263.371C513.616 263.441 513.963 263.58 514.272 263.781C514.581 263.983 514.847 264.242 515.054 264.545C515.262 264.847 515.406 265.187 515.481 265.545C518.941 282.222 527.264 325.638 529.757 369.118C529.798 369.854 529.54 370.576 529.041 371.125C528.542 371.674 527.842 372.005 527.095 372.046H526.935Z" fill="#262424"/>
<path d="M478.211 257.985C487.013 257.985 490.86 262.617 490.86 262.617C492.468 250.165 483.928 241.965 476.518 241.965C469.107 241.965 462.298 250.165 466.54 262.617C466.54 262.589 469.408 257.985 478.211 257.985Z" fill="#DE9244"/>
<path d="M479.555 231.746L481.211 247.376L477.524 251.434L472.982 247.376L471.326 231.746H479.555Z" fill="white"/>
<path d="M477.524 254.213C476.828 254.209 476.158 253.952 475.643 253.491L471.129 249.414C470.604 248.959 470.269 248.329 470.188 247.644L468.533 232.014C468.492 231.626 468.535 231.233 468.658 230.862C468.782 230.491 468.983 230.15 469.249 229.86C469.515 229.571 469.84 229.34 470.203 229.183C470.566 229.026 470.958 228.945 471.355 228.948H479.593C480.293 228.944 480.97 229.197 481.492 229.658C482.013 230.118 482.342 230.754 482.414 231.44L484.07 247.07C484.11 247.455 484.068 247.845 483.947 248.213C483.825 248.582 483.627 248.922 483.364 249.21L479.593 253.287C479.345 253.561 479.045 253.784 478.709 253.943C478.373 254.102 478.009 254.194 477.637 254.213H477.524ZM475.643 246.032L477.289 247.496L478.229 246.44L476.969 234.525H474.411L475.643 246.032Z" fill="#262424"/>
<path d="M475.906 236.147C472.337 236.072 468.915 234.731 466.268 232.37C463.622 230.01 461.928 226.788 461.499 223.296L460.615 214.958C460.399 213.333 460.542 211.681 461.034 210.116C461.526 208.551 462.355 207.109 463.465 205.889C464.575 204.669 465.94 203.699 467.465 203.046C468.991 202.394 470.642 202.073 472.304 202.107C475.874 202.182 479.296 203.523 481.943 205.883C484.589 208.244 486.283 211.466 486.712 214.958L487.596 223.296C487.812 224.921 487.669 226.572 487.177 228.137C486.685 229.703 485.855 231.145 484.745 232.365C483.635 233.585 482.271 234.555 480.745 235.207C479.22 235.86 477.569 236.181 475.906 236.147Z" fill="white"/>
<path d="M475.906 238.926C471.645 238.833 467.561 237.231 464.4 234.413C461.24 231.596 459.215 227.751 458.696 223.583L457.812 215.245C457.553 213.231 457.736 211.187 458.35 209.249C458.964 207.312 459.993 205.527 461.369 204.017C462.744 202.506 464.434 201.304 466.322 200.494C468.211 199.683 470.254 199.282 472.314 199.318C476.575 199.412 480.66 201.014 483.82 203.831C486.981 206.649 489.005 210.493 489.524 214.661L490.408 223C490.667 225.013 490.484 227.058 489.87 228.995C489.257 230.932 488.227 232.717 486.852 234.228C485.476 235.739 483.787 236.94 481.898 237.751C480.01 238.561 477.966 238.962 475.906 238.926ZM472.314 204.877C471.059 204.846 469.811 205.078 468.654 205.557C467.496 206.037 466.455 206.752 465.599 207.657C464.757 208.6 464.127 209.709 463.753 210.91C463.378 212.112 463.267 213.377 463.427 214.624L464.311 222.963C464.656 225.775 466.018 228.371 468.147 230.275C470.277 232.179 473.031 233.264 475.906 233.33C477.162 233.361 478.409 233.129 479.566 232.65C480.724 232.171 481.765 231.455 482.621 230.551C483.464 229.607 484.093 228.498 484.468 227.297C484.842 226.096 484.953 224.83 484.794 223.583L483.91 215.245C483.565 212.432 482.202 209.836 480.073 207.932C477.943 206.028 475.189 204.944 472.314 204.877Z" fill="#262424"/>
<path d="M457.257 216.459C457.257 216.459 477.242 221.619 482.885 206.795C482.885 206.795 481.004 219.831 487.239 219.831C487.239 219.831 492.176 216.477 491.49 207.787C490.803 199.096 479.593 185.662 464.104 192.249C446.104 199.893 457.257 216.459 457.257 216.459Z" fill="#262424"/>
<path d="M540.148 532.784H562.898V1092.53H540.148V532.784Z" fill="#DE9244"/>
<path d="M662.802 532.784H685.551V1092.53H662.802V532.784Z" fill="#DE9244"/>
<path d="M662.802 532.784V1092.53H617.293V1010.04H540.148V1092.53H494.64V532.784H540.148V965.21H617.293V532.784H662.802Z" fill="#DE9244"/>
<path d="M540.148 1090.68C539.525 1090.68 538.927 1090.43 538.486 1090C538.045 1089.57 537.797 1088.98 537.797 1088.36V1010.07C537.797 1009.46 538.045 1008.87 538.486 1008.43C538.927 1008 539.525 1007.76 540.148 1007.76C540.772 1007.76 541.37 1008 541.811 1008.43C542.252 1008.87 542.5 1009.46 542.5 1010.07V1088.39C542.492 1089 542.241 1089.58 541.801 1090.01C541.361 1090.44 540.767 1090.68 540.148 1090.68Z" fill="#262424"/>
<path d="M662.802 1088.82C662.178 1088.82 661.58 1088.58 661.139 1088.15C660.698 1087.71 660.451 1087.12 660.451 1086.51V532.785C660.451 532.17 660.698 531.581 661.139 531.147C661.58 530.713 662.178 530.469 662.802 530.469C663.425 530.469 664.023 530.713 664.464 531.147C664.905 531.581 665.153 532.17 665.153 532.785V1086.51C665.153 1087.12 664.905 1087.71 664.464 1088.15C664.023 1088.58 663.425 1088.82 662.802 1088.82Z" fill="#262424"/>
<path d="M540.148 967.527C539.525 967.527 538.927 967.283 538.486 966.849C538.045 966.414 537.797 965.825 537.797 965.211V532.785C537.797 532.17 538.045 531.581 538.486 531.147C538.927 530.713 539.525 530.469 540.148 530.469C540.772 530.469 541.37 530.713 541.811 531.147C542.252 531.581 542.5 532.17 542.5 532.785V965.211C542.5 965.825 542.252 966.414 541.811 966.849C541.37 967.283 540.772 967.527 540.148 967.527Z" fill="#262424"/>
<path d="M311.281 965.21H617.293V1010.04H311.281V965.21Z" fill="#DE9244"/>
<path d="M558.788 1012.36H500.283C499.659 1012.36 499.061 1012.12 498.62 1011.68C498.179 1011.25 497.932 1010.66 497.932 1010.04C497.932 1009.43 498.179 1008.84 498.62 1008.41C499.061 1007.97 499.659 1007.73 500.283 1007.73H558.788C559.412 1007.73 560.01 1007.97 560.451 1008.41C560.892 1008.84 561.139 1009.43 561.139 1010.04C561.139 1010.66 560.892 1011.25 560.451 1011.68C560.01 1012.12 559.412 1012.36 558.788 1012.36Z" fill="#262424"/>
<path d="M617.293 1008.38C616.67 1008.38 616.072 1008.13 615.631 1007.7C615.19 1007.26 614.942 1006.67 614.942 1006.06V969.927C614.942 969.313 615.19 968.723 615.631 968.289C616.072 967.855 616.67 967.611 617.293 967.611C617.917 967.611 618.515 967.855 618.956 968.289C619.397 968.723 619.645 969.313 619.645 969.927V1006.06C619.645 1006.67 619.397 1007.26 618.956 1007.7C618.515 1008.13 617.917 1008.38 617.293 1008.38Z" fill="#262424"/>
<path d="M559.023 967.527H500.716C500.092 967.527 499.494 967.283 499.053 966.849C498.612 966.414 498.364 965.825 498.364 965.211C498.364 964.596 498.612 964.007 499.053 963.573C499.494 963.139 500.092 962.895 500.716 962.895H559.023C559.647 962.895 560.245 963.139 560.686 963.573C561.127 964.007 561.374 964.596 561.374 965.211C561.374 965.825 561.127 966.414 560.686 966.849C560.245 967.283 559.647 967.527 559.023 967.527Z" fill="#262424"/>
<path d="M234.136 532.784H256.885V1092.53H234.136V532.784Z" fill="#DE9244"/>
<path d="M356.789 532.784H379.539V1092.53H356.789V532.784Z" fill="#DE9244"/>
<path d="M379.539 1008.38C378.915 1008.38 378.317 1008.13 377.876 1007.7C377.435 1007.26 377.188 1006.67 377.188 1006.06V970.001C377.188 969.387 377.435 968.797 377.876 968.363C378.317 967.929 378.915 967.685 379.539 967.685C380.162 967.685 380.76 967.929 381.201 968.363C381.642 968.797 381.89 969.387 381.89 970.001V1006.06C381.89 1006.67 381.642 1007.26 381.201 1007.7C380.76 1008.13 380.162 1008.38 379.539 1008.38Z" fill="#262424"/>
<path d="M356.789 532.784V1092.53H311.281V1010.04H234.136V1092.53H188.628V532.784H234.136V965.21H311.281V532.784H356.789Z" fill="#DE9244"/>
<path d="M234.136 1088.82C233.512 1088.82 232.914 1088.58 232.473 1088.15C232.032 1087.71 231.785 1087.12 231.785 1086.51V1010.07C231.785 1009.46 232.032 1008.87 232.473 1008.43C232.914 1008 233.512 1007.76 234.136 1007.76H253.415C254.039 1007.76 254.637 1008 255.078 1008.43C255.518 1008.87 255.766 1009.46 255.766 1010.07C255.766 1010.69 255.518 1011.28 255.078 1011.71C254.637 1012.14 254.039 1012.39 253.415 1012.39H236.487V1086.51C236.487 1087.12 236.239 1087.71 235.798 1088.15C235.357 1088.58 234.759 1088.82 234.136 1088.82Z" fill="#262424"/>
<path d="M356.789 1090.68C356.166 1090.68 355.568 1090.43 355.127 1090C354.686 1089.57 354.438 1088.98 354.438 1088.36V535.101H311.253C310.629 535.101 310.031 534.857 309.59 534.423C309.149 533.988 308.902 533.399 308.902 532.785C308.902 532.17 309.149 531.581 309.59 531.147C310.031 530.713 310.629 530.469 311.253 530.469H356.761C357.385 530.469 357.983 530.713 358.424 531.147C358.864 531.581 359.112 532.17 359.112 532.785V1088.36C359.112 1088.97 358.868 1089.56 358.434 1089.99C357.999 1090.42 357.408 1090.67 356.789 1090.68Z" fill="#262424"/>
<path d="M253.415 967.527H234.136C233.512 967.527 232.914 967.283 232.473 966.849C232.032 966.414 231.785 965.825 231.785 965.211V532.785C231.785 532.17 232.032 531.581 232.473 531.147C232.914 530.713 233.512 530.469 234.136 530.469C234.759 530.469 235.357 530.713 235.798 531.147C236.239 531.581 236.487 532.17 236.487 532.785V962.895H253.415C254.039 962.895 254.637 963.139 255.078 963.573C255.518 964.007 255.766 964.597 255.766 965.211C255.766 965.825 255.518 966.414 255.078 966.849C254.637 967.283 254.039 967.527 253.415 967.527Z" fill="#262424"/>
<path d="M158.533 446.759H347.056V496.726H158.533V446.759Z" fill="#88C0C2"/>
<path d="M715.646 496.725H347.056V446.759H715.646V496.725Z" fill="#88C0C2"/>
<path d="M347.056 499.042C346.432 499.042 345.834 498.797 345.393 498.363C344.952 497.929 344.704 497.34 344.704 496.725V450.91C344.704 450.295 344.952 449.706 345.393 449.272C345.834 448.838 346.432 448.594 347.056 448.594C347.679 448.594 348.277 448.838 348.718 449.272C349.159 449.706 349.407 450.295 349.407 450.91V496.725C349.407 497.34 349.159 497.929 348.718 498.363C348.277 498.797 347.679 499.042 347.056 499.042Z" fill="#262424"/>
<path d="M188.628 496.725H356.78V532.794H188.628V496.725Z" fill="white"/>
<path d="M356.789 535.564H188.628C187.879 535.564 187.162 535.271 186.633 534.75C186.103 534.229 185.806 533.522 185.806 532.785V496.725C185.806 495.988 186.103 495.281 186.633 494.76C187.162 494.239 187.879 493.946 188.628 493.946H356.78C357.528 493.946 358.246 494.239 358.775 494.76C359.304 495.281 359.601 495.988 359.601 496.725V532.794C359.599 533.528 359.302 534.231 358.775 534.75C358.248 535.269 357.534 535.562 356.789 535.564ZM191.458 530.005H353.968V499.505H191.449V530.015L191.458 530.005Z" fill="#262424"/>
<path d="M685.551 532.785H356.789V496.716H685.551V532.785Z" fill="white"/>
<path d="M685.551 535.564H356.789C356.041 535.564 355.323 535.271 354.794 534.75C354.265 534.229 353.968 533.522 353.968 532.785V496.725C353.968 495.988 354.265 495.281 354.794 494.76C355.323 494.239 356.041 493.946 356.789 493.946H685.551C686.299 493.946 687.017 494.239 687.546 494.76C688.075 495.281 688.373 495.988 688.373 496.725V532.794C688.37 533.53 688.072 534.234 687.543 534.753C687.014 535.273 686.298 535.564 685.551 535.564ZM359.61 530.005H682.73V499.505H359.61V530.015V530.005Z" fill="#262424"/>
<path d="M553.776 918.2L546.91 990.542L575.65 991.793L589.39 919.331L553.776 918.2Z" fill="white"/>
<path d="M575.65 994.572H575.519L546.779 993.312C546.397 993.295 546.023 993.201 545.679 993.037C545.335 992.873 545.028 992.642 544.777 992.358C544.527 992.074 544.337 991.743 544.221 991.384C544.104 991.026 544.062 990.648 544.098 990.273L550.964 917.932C551.03 917.227 551.367 916.575 551.905 916.106C552.443 915.638 553.143 915.39 553.86 915.411L589.466 916.542C589.872 916.555 590.271 916.655 590.634 916.834C590.998 917.013 591.318 917.267 591.573 917.58C591.827 917.892 592.01 918.255 592.109 918.644C592.208 919.032 592.221 919.437 592.146 919.831L578.406 992.293C578.288 992.929 577.948 993.505 577.445 993.921C576.942 994.337 576.307 994.567 575.65 994.572ZM549.995 987.892L573.328 988.911L586.014 922.008L556.343 921.082L549.995 987.892Z" fill="#262424"/>
<path d="M432.411 1079.92V1092.53H590.679C590.679 1092.53 591.196 1085.94 591.685 1074.87C592.625 1053.09 593.81 1016.5 590.867 975.996L540.355 968.019C540.355 968.019 497.001 1012.49 458.423 1047.05C454.417 1050.64 450.204 1054.14 445.765 1057.45C437.273 1063.81 432.411 1071.72 432.411 1079.92Z" fill="#88C0C2"/>
<path d="M507.167 1048.47C506.614 1048.47 506.073 1048.3 505.611 1048C505.15 1047.7 504.789 1047.28 504.572 1046.77C504.356 1046.27 504.294 1045.72 504.394 1045.18C504.494 1044.65 504.752 1044.15 505.136 1043.76C538.888 1009.28 554.039 980.757 554.208 980.47C554.563 979.836 555.155 979.364 555.858 979.154C556.561 978.944 557.319 979.012 557.972 979.343C558.624 979.675 559.12 980.245 559.353 980.931C559.587 981.617 559.539 982.366 559.221 983.018C558.6 984.204 543.581 1012.5 509.198 1047.61C508.935 1047.88 508.62 1048.1 508.271 1048.24C507.922 1048.39 507.546 1048.47 507.167 1048.47Z" fill="#262424"/>
<path d="M565.625 1050.19C573.385 1050.19 579.676 1043.29 579.676 1034.78C579.676 1026.27 573.385 1019.37 565.625 1019.37C557.865 1019.37 551.575 1026.27 551.575 1034.78C551.575 1043.29 557.865 1050.19 565.625 1050.19Z" fill="white"/>
<path d="M565.625 1052.97C556.324 1052.97 548.754 1044.81 548.754 1034.78C548.754 1024.76 556.277 1016.59 565.625 1016.59C574.973 1016.59 582.497 1024.76 582.497 1034.78C582.497 1044.81 574.926 1052.97 565.625 1052.97ZM565.625 1022.14C559.437 1022.14 554.396 1027.81 554.396 1034.77C554.396 1041.73 559.437 1047.4 565.625 1047.4C571.813 1047.4 576.854 1041.73 576.854 1034.77C576.854 1027.81 571.823 1022.12 565.625 1022.12V1022.14Z" fill="#262424"/>
<path d="M432.411 1079.92V1092.53H590.679C590.679 1092.53 591.196 1085.94 591.685 1074.87H508.136C508.136 1074.87 502.794 1038.2 458.423 1047.08C454.417 1050.67 450.204 1054.16 445.765 1057.48C437.273 1063.81 432.411 1071.72 432.411 1079.92Z" fill="white"/>
<path d="M590.688 1095.31H432.411C431.662 1095.31 430.945 1095.02 430.416 1094.5C429.887 1093.98 429.589 1093.27 429.589 1092.53V1079.91C429.589 1070.98 434.724 1062.22 444.053 1055.24C448.22 1052.13 452.414 1048.68 456.524 1044.99C456.9 1044.66 457.361 1044.43 457.859 1044.33C473.16 1041.27 485.762 1043.08 495.317 1049.72C505.54 1056.81 509.236 1067.39 510.421 1072.08H591.685C592.066 1072.08 592.443 1072.16 592.794 1072.31C593.144 1072.45 593.461 1072.67 593.725 1072.94C593.988 1073.21 594.193 1073.53 594.328 1073.88C594.462 1074.23 594.523 1074.61 594.506 1074.98C594.017 1085.97 593.5 1092.66 593.491 1092.73C593.441 1093.43 593.124 1094.08 592.605 1094.56C592.085 1095.04 591.4 1095.31 590.688 1095.31ZM435.241 1089.75H588.055C588.224 1087.29 588.478 1083.14 588.741 1077.65H508.145C507.462 1077.66 506.799 1077.42 506.28 1076.98C505.761 1076.55 505.422 1075.94 505.324 1075.27C505.324 1075.15 503.208 1061.98 491.997 1054.23C483.928 1048.67 473.076 1047.11 459.721 1049.6C455.677 1053.19 451.549 1056.57 447.495 1059.64C439.605 1065.53 435.27 1072.72 435.27 1079.88V1089.75H435.241Z" fill="#262424"/>
<path d="M885.97 566.065C885.97 566.065 869.644 657.9 863.23 667.266C843.001 696.813 638.19 749.16 638.19 749.16L610.503 947.617L527.744 938.731C527.744 938.731 525.12 815.988 529.032 741.461C530.556 712.452 533.058 690.735 537.101 686.417C540.431 682.85 553.54 674.373 571.813 663.431C633.883 626.232 755.37 560.33 755.37 560.33C755.37 560.33 780.537 494.724 825.311 513.745C866.945 531.432 891.143 535.444 885.97 566.065Z" fill="#88C0C2"/>
<path d="M578.632 713.499C569.143 734.975 547.597 746.779 529.032 741.461C530.556 712.452 533.058 690.735 537.101 686.417C540.431 682.85 553.54 674.373 571.813 663.431C583.55 674.864 586.804 694.95 578.632 713.499Z" fill="white"/>
<path d="M572.575 911.705H572.246C571.629 911.62 571.071 911.298 570.696 910.808C570.32 910.318 570.157 909.701 570.243 909.093L595.268 732.807C595.319 732.402 595.478 732.017 595.729 731.691C595.981 731.366 596.315 731.111 596.698 730.954L817.365 640.945L828.161 576.497C828.283 575.911 828.631 575.394 829.131 575.055C829.631 574.715 830.246 574.58 830.845 574.677C831.445 574.774 831.983 575.096 832.347 575.575C832.711 576.054 832.872 576.654 832.797 577.248L821.785 642.964C821.719 643.353 821.554 643.718 821.306 644.026C821.058 644.334 820.733 644.574 820.365 644.725L599.735 734.716L574.889 909.667C574.82 910.226 574.548 910.741 574.122 911.116C573.696 911.491 573.146 911.701 572.575 911.705Z" fill="#262424"/>
<path d="M598.278 929.66H598.024L540.13 923.601C539.506 923.536 538.934 923.229 538.54 922.749C538.146 922.269 537.962 921.654 538.028 921.039C538.094 920.425 538.405 919.862 538.893 919.473C539.38 919.085 540.005 918.903 540.628 918.969L598.522 925.028C599.146 925.06 599.731 925.334 600.149 925.791C600.567 926.248 600.783 926.85 600.751 927.464C600.719 928.079 600.44 928.655 599.976 929.067C599.512 929.479 598.901 929.692 598.278 929.66Z" fill="#262424"/>
<path d="M744.282 924.167L752.596 996.36L780.988 991.792L779.37 918.098L744.282 924.167Z" fill="white"/>
<path d="M752.596 999.14C751.9 999.144 751.227 998.895 750.706 998.44C750.185 997.985 749.853 997.357 749.774 996.675L741.461 924.482C741.381 923.779 741.575 923.073 742.005 922.507C742.435 921.94 743.068 921.557 743.774 921.434L778.862 915.365C779.263 915.296 779.674 915.312 780.068 915.414C780.462 915.516 780.828 915.7 781.143 915.954C781.457 916.209 781.712 916.527 781.89 916.888C782.068 917.248 782.164 917.642 782.173 918.043L783.79 991.737C783.799 992.403 783.565 993.05 783.13 993.56C782.695 994.071 782.088 994.41 781.421 994.516L753.028 999.084C752.886 999.114 752.741 999.132 752.596 999.14ZM747.386 926.456L755.069 993.164L778.12 989.458L776.624 921.416L747.386 926.456Z" fill="#262424"/>
<path d="M637.748 1079.92V1092.53H796.016C796.016 1092.53 796.534 1085.94 797.023 1074.87C797.963 1053.09 799.148 1016.5 796.204 975.995L745.74 968.027C745.74 968.027 702.385 1012.5 663.808 1047.06C659.802 1050.65 655.589 1054.15 651.15 1057.46C642.582 1063.81 637.748 1071.72 637.748 1079.92Z" fill="#88C0C2"/>
<path d="M712.504 1048.47C711.951 1048.47 711.41 1048.31 710.949 1048C710.488 1047.7 710.126 1047.28 709.91 1046.77C709.693 1046.27 709.631 1045.72 709.731 1045.18C709.832 1044.65 710.09 1044.15 710.473 1043.76C744.329 1009.23 759.376 980.758 759.546 980.48C759.709 980.145 759.939 979.846 760.222 979.6C760.505 979.354 760.835 979.166 761.192 979.048C761.55 978.93 761.928 978.884 762.304 978.913C762.68 978.941 763.047 979.044 763.382 979.214C763.717 979.384 764.014 979.619 764.256 979.905C764.497 980.19 764.678 980.52 764.788 980.876C764.898 981.232 764.934 981.605 764.894 981.975C764.855 982.344 764.741 982.702 764.558 983.028C763.938 984.214 748.919 1012.51 714.536 1047.62C714.272 1047.89 713.956 1048.1 713.607 1048.25C713.258 1048.39 712.883 1048.47 712.504 1048.47Z" fill="#262424"/>
<path d="M770.963 1050.19C778.723 1050.19 785.013 1043.29 785.013 1034.78C785.013 1026.27 778.723 1019.37 770.963 1019.37C763.203 1019.37 756.912 1026.27 756.912 1034.78C756.912 1043.29 763.203 1050.19 770.963 1050.19Z" fill="white"/>
<path d="M770.963 1052.97C761.662 1052.97 754.091 1044.81 754.091 1034.78C754.091 1024.76 761.615 1016.59 770.963 1016.59C780.311 1016.59 787.834 1024.76 787.834 1034.78C787.834 1044.81 780.264 1052.97 770.963 1052.97ZM770.963 1022.14C764.775 1022.14 759.734 1027.81 759.734 1034.77C759.734 1041.73 764.775 1047.4 770.963 1047.4C777.151 1047.4 782.192 1041.73 782.192 1034.77C782.192 1027.81 777.16 1022.12 770.963 1022.12V1022.14Z" fill="#262424"/>
<path d="M637.748 1079.92V1092.53H796.016C796.016 1092.53 796.534 1085.94 797.023 1074.87H713.473C713.473 1074.87 708.131 1038.2 663.761 1047.08C659.755 1050.67 655.542 1054.16 651.103 1057.48C642.582 1063.81 637.748 1071.72 637.748 1079.92Z" fill="white"/>
<path d="M796.026 1095.31H637.748C637 1095.31 636.282 1095.02 635.753 1094.5C635.224 1093.98 634.927 1093.27 634.927 1092.53V1079.91C634.927 1070.98 640.062 1062.22 649.391 1055.24C653.557 1052.13 657.752 1048.68 661.861 1044.99C662.237 1044.66 662.699 1044.43 663.197 1044.33C678.507 1041.27 691.1 1043.08 700.655 1049.72C710.878 1056.81 714.573 1067.39 715.758 1072.08H797.023C797.404 1072.08 797.781 1072.16 798.131 1072.31C798.482 1072.45 798.798 1072.67 799.062 1072.94C799.326 1073.21 799.531 1073.53 799.665 1073.88C799.8 1074.23 799.86 1074.61 799.844 1074.98C799.355 1085.97 798.838 1092.66 798.828 1092.73C798.778 1093.43 798.462 1094.08 797.942 1094.56C797.422 1095.04 796.738 1095.31 796.026 1095.31ZM640.579 1089.75H793.392C793.552 1087.29 793.816 1083.14 794.079 1077.65H713.483C712.799 1077.66 712.137 1077.42 711.618 1076.98C711.099 1076.55 710.759 1075.94 710.661 1075.27C710.661 1075.14 708.545 1061.98 697.335 1054.23C689.266 1048.67 678.404 1047.11 665.059 1049.6C661.015 1053.2 656.886 1056.57 652.833 1059.64C644.943 1065.53 640.607 1072.72 640.607 1079.88V1089.75H640.579Z" fill="#262424"/>
<path d="M1013.55 566.064C1013.55 566.064 1009.31 657.899 1002.9 667.266C982.667 696.812 777.856 749.159 777.856 749.159L797.85 945.216L715.335 944.781C715.335 944.781 688.373 818.193 678.15 743.489C674.05 713.461 672.639 690.845 676.777 686.417C680.257 682.711 694.476 673.575 714.113 661.855C776.869 624.406 895.036 560.329 895.036 560.329C895.036 560.329 919.638 513.745 964.977 513.745C1010.32 513.745 1018.73 535.443 1013.55 566.064Z" fill="#88C0C2"/>
<path d="M724.213 714.731C715.316 734.864 695.858 746.492 678.131 743.453C674.031 713.425 672.62 690.809 676.758 686.38C680.238 682.674 694.457 673.539 714.094 661.819C728.473 672.557 733.128 694.561 724.213 714.731Z" fill="white"/>
<path d="M676.513 733.002C675.938 733.002 675.382 732.793 674.952 732.415C674.522 732.038 674.248 731.518 674.181 730.955C669.996 695.386 672.441 687.632 675.046 684.852C689.492 669.379 878.795 566.501 893.296 558.635C898.237 550.136 904.306 542.325 911.343 535.407C927.256 519.731 945.801 511.439 964.949 511.439C965.573 511.439 966.171 511.683 966.612 512.117C967.052 512.552 967.3 513.141 967.3 513.755C967.3 514.369 967.052 514.958 966.612 515.393C966.171 515.827 965.573 516.071 964.949 516.071C921.538 516.071 897.331 560.951 897.086 561.405C896.87 561.797 896.543 562.118 896.146 562.331C894.133 563.499 692.689 672.826 678.507 687.984C677.266 689.308 674.821 696.1 678.855 730.417C678.891 730.72 678.865 731.026 678.78 731.319C678.695 731.611 678.553 731.885 678.361 732.123C678.168 732.361 677.93 732.56 677.66 732.708C677.39 732.855 677.093 732.949 676.786 732.984L676.513 733.002Z" fill="#262424"/>
<path d="M961.742 628.993C961.562 628.991 961.382 628.97 961.206 628.928C953.203 627.075 947.607 622.998 944.579 616.791C937.366 602.032 947.523 580.657 947.965 579.731C948.233 579.175 948.714 578.748 949.302 578.542C949.89 578.336 950.537 578.369 951.101 578.633C951.665 578.897 952.099 579.371 952.308 579.95C952.517 580.53 952.484 581.167 952.216 581.723C952.122 581.926 942.585 602.032 948.82 614.789C951.209 619.663 955.733 622.906 962.278 624.416C962.846 624.54 963.346 624.867 963.683 625.334C964.02 625.8 964.169 626.373 964.103 626.942C964.036 627.511 963.758 628.035 963.322 628.414C962.886 628.793 962.323 628.999 961.742 628.993Z" fill="#262424"/>
<path d="M760.157 911.706C759.586 911.706 759.034 911.501 758.604 911.129C758.175 910.757 757.898 910.244 757.825 909.686L734.944 733.419C734.877 732.914 734.981 732.402 735.24 731.962C735.498 731.522 735.896 731.177 736.373 730.982L957.04 640.973L967.836 576.525C967.958 575.939 968.306 575.422 968.807 575.083C969.307 574.743 969.921 574.608 970.521 574.705C971.12 574.802 971.658 575.124 972.022 575.603C972.386 576.082 972.547 576.682 972.473 577.276L961.46 642.992C961.395 643.38 961.23 643.746 960.981 644.054C960.733 644.362 960.409 644.602 960.04 644.753L739.834 734.595L762.489 909.084C762.529 909.385 762.508 909.692 762.427 909.986C762.346 910.279 762.208 910.554 762.019 910.795C761.831 911.036 761.596 911.238 761.328 911.39C761.06 911.541 760.764 911.639 760.458 911.678L760.157 911.706Z" fill="#262424"/>
<path d="M785.86 929.661H727.966C727.342 929.661 726.744 929.417 726.303 928.983C725.862 928.548 725.614 927.959 725.614 927.345C725.614 926.731 725.862 926.141 726.303 925.707C726.744 925.273 727.342 925.029 727.966 925.029H785.86C786.483 925.029 787.081 925.273 787.522 925.707C787.963 926.141 788.211 926.731 788.211 927.345C788.211 927.959 787.963 928.548 787.522 928.983C787.081 929.417 786.483 929.661 785.86 929.661Z" fill="#262424"/>
<path d="M478.53 442.043C479.164 442.978 480.109 443.667 481.202 443.992C482.294 444.316 483.468 444.256 484.521 443.822L533.199 423.735C534.142 423.347 535.199 423.323 536.161 423.666C537.122 424.009 537.917 424.695 538.39 425.588C538.658 426.087 538.816 426.636 538.854 427.199C538.892 427.762 538.81 428.327 538.612 428.856C538.414 429.386 538.105 429.868 537.706 430.273C537.306 430.677 536.825 430.994 536.293 431.203L520.39 437.457C519.07 437.976 517.962 438.912 517.239 440.117C516.516 441.322 516.219 442.729 516.393 444.118C516.577 445.601 517.287 446.971 518.396 447.988C519.506 449.005 520.945 449.603 522.459 449.677L546.91 450.891C554.541 451.271 562.047 448.87 567.995 444.146L575.368 438.3L593.312 437.577L603.732 408.698L579.384 406.28L544.484 393.828C541.839 392.883 538.992 392.627 536.217 393.085C533.442 393.543 530.835 394.698 528.647 396.441L479.49 435.576C478.539 436.342 477.914 437.43 477.737 438.626C477.559 439.823 477.842 441.041 478.53 442.043Z" fill="white"/>
<path d="M548.481 453.689C547.91 453.689 547.34 453.689 546.769 453.689L522.318 452.475C520.195 452.387 518.168 451.583 516.576 450.197C514.984 448.81 513.925 446.927 513.577 444.862C513.228 442.798 513.611 440.678 514.662 438.858C515.712 437.039 517.366 435.632 519.346 434.872L535.249 428.618C535.402 428.557 535.543 428.467 535.661 428.353C535.779 428.239 535.874 428.102 535.939 427.952C536.004 427.802 536.038 427.641 536.04 427.478C536.042 427.315 536.011 427.153 535.949 427.001C535.888 426.85 535.796 426.712 535.68 426.595C535.564 426.478 535.426 426.385 535.274 426.321C535.122 426.257 534.958 426.223 534.792 426.221C534.626 426.22 534.462 426.25 534.308 426.311L485.612 446.379C483.959 447.055 482.12 447.148 480.407 446.641C478.693 446.135 477.209 445.06 476.207 443.599C475.118 442.018 474.675 440.09 474.966 438.2C475.258 436.311 476.262 434.6 477.778 433.408L526.935 394.272C529.506 392.238 532.563 390.887 535.816 390.35C539.068 389.813 542.406 390.108 545.509 391.206L580.033 403.537L604.033 405.918C604.46 405.96 604.872 406.097 605.238 406.319C605.603 406.54 605.912 406.842 606.142 407.199C606.371 407.556 606.515 407.961 606.562 408.381C606.609 408.801 606.558 409.227 606.412 409.624L595.936 438.513C595.749 439.036 595.407 439.492 594.954 439.822C594.502 440.153 593.959 440.342 593.397 440.366L576.375 441.051L569.735 446.323C563.712 451.097 556.211 453.696 548.481 453.689ZM534.797 420.631C536.412 420.624 537.979 421.173 539.226 422.185C540.472 423.196 541.32 424.606 541.621 426.169C541.923 427.732 541.66 429.35 540.877 430.741C540.094 432.133 538.842 433.211 537.337 433.788L521.434 440.042C520.669 440.343 520.032 440.893 519.628 441.599C519.225 442.306 519.078 443.128 519.213 443.928C519.348 444.728 519.756 445.459 520.371 445.999C520.985 446.539 521.768 446.856 522.59 446.898L547.042 448.111C553.97 448.455 560.784 446.279 566.189 441.996L573.563 436.15C574.034 435.777 574.614 435.563 575.218 435.539L591.262 434.89L599.867 411.125L579.102 409.069C578.871 409.047 578.643 408.997 578.425 408.92L543.543 396.44C541.359 395.667 539.01 395.457 536.72 395.832C534.43 396.206 532.275 397.153 530.462 398.581L481.305 437.716C480.901 438.026 480.626 438.47 480.531 438.965C480.437 439.461 480.53 439.973 480.792 440.406C481.055 440.839 481.469 441.162 481.956 441.315C482.444 441.468 482.971 441.44 483.439 441.237L532.117 421.159C532.966 420.811 533.877 420.631 534.797 420.631Z" fill="#262424"/>
<path d="M864.378 337.868C864.378 337.868 808.468 387.093 765.292 423.523C761.818 426.45 758.442 429.285 755.163 432.028C743.785 441.541 729.346 446.762 714.423 446.759H594.046C579.939 434.409 575.81 418.77 584.951 398.767L693.705 368.933L816.828 235.017L864.378 337.868Z" fill="#DE9244"/>
<path d="M765.292 423.522C761.818 426.45 758.442 429.285 755.163 432.027C743.785 441.541 729.346 446.762 714.423 446.759H706.899C706.45 445.447 706.107 444.103 705.874 442.738C703.297 427.469 715.279 412.784 732.574 409.94C746.267 407.707 759.179 413.497 765.292 423.522Z" fill="white"/>
<path d="M602.805 441.746C605.919 440.205 607.175 436.468 605.611 433.4C604.047 430.332 600.254 429.094 597.14 430.635C594.025 432.176 592.769 435.913 594.333 438.981C595.897 442.049 599.69 443.287 602.805 441.746Z" fill="white"/>
<path d="M599.97 445.194C597.726 445.182 595.565 444.358 593.898 442.878C592.23 441.399 591.172 439.368 590.925 437.171C590.679 434.974 591.26 432.764 592.559 430.961C593.857 429.158 595.783 427.889 597.97 427.393C600.157 426.898 602.453 427.212 604.42 428.275C606.388 429.337 607.89 431.076 608.642 433.158C609.394 435.241 609.343 437.524 608.498 439.572C607.654 441.62 606.075 443.291 604.061 444.267C602.789 444.884 601.388 445.201 599.97 445.194ZM599.97 432.751C599.21 432.756 598.472 433.006 597.87 433.463C597.267 433.919 596.832 434.557 596.631 435.28C596.43 436.002 596.474 436.77 596.757 437.465C597.039 438.16 597.545 438.746 598.196 439.132C598.847 439.519 599.609 439.685 600.365 439.606C601.121 439.527 601.83 439.207 602.384 438.694C602.939 438.181 603.308 437.505 603.436 436.766C603.564 436.028 603.443 435.268 603.093 434.604C602.798 434.04 602.35 433.568 601.798 433.241C601.247 432.914 600.614 432.744 599.97 432.751Z" fill="#262424"/>
<path d="M619.099 445.212C618.637 445.213 618.182 445.102 617.773 444.888C617.365 444.675 617.016 444.366 616.757 443.989C601.851 422.272 606.713 397.238 606.92 396.182C607.091 395.483 607.529 394.877 608.143 394.49C608.757 394.103 609.499 393.966 610.214 394.106C610.929 394.246 611.561 394.653 611.978 395.242C612.395 395.831 612.564 396.556 612.45 397.266C612.384 397.59 607.889 421.169 621.422 440.876C621.708 441.293 621.874 441.779 621.902 442.281C621.93 442.784 621.818 443.285 621.58 443.73C621.341 444.175 620.985 444.548 620.548 444.809C620.111 445.07 619.61 445.209 619.099 445.212Z" fill="#262424"/>
<path d="M1052.41 257.511C1052.41 257.511 978.576 209.176 924.181 210.139C869.785 211.103 816.838 235.025 816.838 235.025C772.637 325.943 748.251 558.569 748.251 558.569C748.251 558.569 806.559 580.749 969.755 589.764L976.667 549.248C976.922 547.752 977.754 546.41 978.99 545.503C980.225 544.597 981.769 544.196 983.297 544.384C984.08 544.48 984.835 544.728 985.52 545.113C986.205 545.498 986.806 546.013 987.287 546.628C987.769 547.243 988.122 547.946 988.327 548.696C988.532 549.447 988.583 550.229 988.479 550.999L983.053 591.413C997.518 592.994 1012.07 593.613 1026.62 593.266C1050.86 422.67 1052.41 257.511 1052.41 257.511Z" fill="#DE9244"/>
<path d="M768.969 415.73C768.62 415.732 768.274 415.656 767.958 415.51C767.642 415.363 767.363 415.149 767.141 414.883C766.919 414.617 766.761 414.305 766.677 413.971C766.593 413.637 766.586 413.288 766.655 412.951L779.54 347.623C787.872 306.209 799.355 268.037 811.872 240.149C811.981 239.85 812.151 239.577 812.372 239.345C812.592 239.114 812.859 238.93 813.155 238.804C813.451 238.679 813.77 238.614 814.092 238.615C814.414 238.616 814.733 238.682 815.028 238.81C815.323 238.937 815.588 239.122 815.808 239.355C816.027 239.588 816.195 239.862 816.302 240.161C816.41 240.461 816.453 240.779 816.43 241.095C816.408 241.412 816.319 241.72 816.17 242.002C803.784 269.602 792.414 307.422 784.195 348.55L771.311 413.933C771.19 414.452 770.891 414.914 770.464 415.242C770.038 415.569 769.51 415.742 768.969 415.73Z" fill="#262424"/>
<path d="M981.529 236.054C971.034 258.123 952.375 266.629 940.789 269.779C938.363 253.723 930.886 233.395 930.886 233.395C921.482 245.356 916.14 261.413 914.72 268.769C885.726 259.912 883.299 232.098 883.299 232.098C887.785 204.451 912.707 184.309 933.482 185.671C979.413 188.682 981.529 236.054 981.529 236.054Z" fill="white"/>
<path d="M940.789 272.577C940.107 272.584 939.446 272.348 938.927 271.912C938.408 271.476 938.068 270.87 937.968 270.205C936.331 259.402 932.325 246.45 929.964 239.454C924.074 248.616 919.845 258.717 917.466 269.306C917.392 269.692 917.237 270.057 917.01 270.379C916.782 270.701 916.489 270.972 916.148 271.174C915.806 271.377 915.426 271.505 915.031 271.552C914.635 271.599 914.235 271.563 913.855 271.447C883.403 262.182 880.487 232.663 880.459 232.367C880.431 232.142 880.431 231.915 880.459 231.69C885.397 201.227 912.435 181.557 933.613 182.929C958.658 184.568 971.137 198.966 977.184 210.724C981.179 218.591 983.59 227.145 984.285 235.915C984.306 236.365 984.215 236.814 984.021 237.222C979.96 245.787 974.049 253.375 966.702 259.456C959.355 265.537 950.749 269.964 941.485 272.429C941.26 272.507 941.026 272.557 940.789 272.577ZM930.886 230.634C931.468 230.636 932.036 230.815 932.51 231.146C932.985 231.478 933.344 231.947 933.538 232.487C933.83 233.275 940.225 250.758 943.046 266.23C950.782 263.762 957.927 259.771 964.049 254.499C970.172 249.227 975.143 242.785 978.661 235.563C977.889 227.753 975.674 220.148 972.125 213.123C964.272 197.947 951.209 189.664 933.303 188.497C914.654 187.265 890.644 205.702 886.149 232.228C886.506 235.23 889.826 256.604 912.66 265.174C914.72 257.077 919.836 242.938 928.648 231.737C928.909 231.394 929.247 231.115 929.635 230.922C930.023 230.73 930.451 230.628 930.886 230.625V230.634Z" fill="#262424"/>
<path d="M1098.71 687.65H922.939V653.369C922.962 632.981 931.193 613.434 945.826 599.017C960.46 584.601 980.301 576.492 1001 576.469H1098.71V687.65ZM1109.05 724.71C1116.29 724.71 1123.22 721.879 1128.34 716.84C1133.45 711.801 1136.33 704.967 1136.33 697.841V566.278C1136.33 559.152 1133.45 552.318 1128.34 547.279C1123.22 542.24 1116.29 539.409 1109.05 539.409H1001C970.318 539.409 940.895 551.416 919.202 572.787C897.509 594.159 885.321 623.145 885.321 653.369V697.841C885.321 704.967 888.195 711.801 893.309 716.84C898.424 721.879 905.361 724.71 912.594 724.71H1109.05Z" fill="#DE9244"/>
<path d="M1092.61 495.493C1088.85 517.488 1083.21 534.666 1074.75 539.039C1071.75 542.967 1065.25 547.859 1056.72 553.223C1020.73 575.821 948.416 606.571 948.416 606.571C913.911 599.159 914.09 562.563 914.09 562.563L1006.4 468.986C1006.4 468.986 1026.42 318.504 1029.7 295.953C1032.98 273.401 1052.42 257.503 1052.42 257.503C1083.21 276.737 1093.39 313.463 1097.83 377.29C1099.56 402.287 1099.21 456.487 1092.61 495.493Z" fill="#DE9244"/>
<path d="M948.407 608.897C948.239 608.896 948.072 608.878 947.908 608.841C911.964 601.123 911.729 562.942 911.729 562.516C911.733 561.917 911.972 561.342 912.397 560.913L1004.17 467.883C1005.71 456.256 1024.23 317.067 1027.37 295.554C1029.42 281.453 1037.44 269.908 1043.81 262.709C1044.22 262.27 1044.79 262.006 1045.4 261.975C1046.01 261.943 1046.61 262.146 1047.07 262.541C1047.53 262.935 1047.82 263.49 1047.87 264.088C1047.92 264.687 1047.74 265.282 1047.35 265.748C1041.4 272.475 1033.91 283.222 1032.02 296.212C1028.78 318.448 1008.93 467.716 1008.73 469.217C1008.66 469.713 1008.43 470.175 1008.08 470.533L916.45 563.498C916.666 569.057 919.215 597.482 948.172 604.162C953.466 601.892 987.746 587.096 1019.11 571.29C1019.66 571.01 1020.31 570.958 1020.9 571.147C1021.5 571.336 1021.99 571.749 1022.27 572.295C1022.56 572.842 1022.61 573.478 1022.42 574.062C1022.23 574.647 1021.81 575.133 1021.25 575.413C987.191 592.581 949.714 608.554 949.338 608.711C949.043 608.835 948.727 608.898 948.407 608.897Z" fill="#262424"/>
<path d="M920.974 566.899C920.974 566.899 945.764 576.043 948.877 599.169L928.187 629.28L922.619 653.675C922.334 654.924 921.669 656.058 920.713 656.925C919.757 657.792 918.555 658.352 917.268 658.53L888.914 662.43C888.008 662.555 887.087 662.487 886.21 662.23C885.334 661.974 884.523 661.536 883.834 660.945C883.144 660.354 882.591 659.624 882.211 658.805C881.832 657.985 881.635 657.095 881.635 656.195V625.111L874.111 654.351C873.878 655.258 873.443 656.103 872.838 656.823C872.232 657.544 871.471 658.123 870.61 658.517C869.749 658.912 868.81 659.113 867.86 659.106C866.911 659.098 865.975 658.882 865.12 658.474C864.045 657.96 863.137 657.158 862.5 656.161C861.863 655.163 861.523 654.01 861.519 652.832L861.415 611.751C861.408 609.29 862.037 606.869 863.243 604.714C864.449 602.56 866.192 600.744 868.309 599.437L920.974 566.899Z" fill="white"/>
<path d="M888.03 665.265C885.585 665.265 883.241 664.309 881.513 662.606C879.784 660.903 878.813 658.594 878.813 656.186V647.504L876.932 655.027C876.598 656.335 875.971 657.553 875.098 658.593C874.226 659.632 873.129 660.467 871.888 661.037C870.647 661.607 869.293 661.897 867.924 661.886C866.554 661.875 865.205 661.564 863.973 660.976C862.426 660.229 861.121 659.072 860.204 657.635C859.287 656.198 858.795 654.538 858.782 652.841L858.594 611.76C858.573 608.825 859.317 605.933 860.754 603.362C862.192 600.791 864.275 598.626 866.804 597.075L919.469 564.536C919.837 564.308 920.253 564.167 920.685 564.124C921.118 564.08 921.554 564.136 921.961 564.286C923.043 564.684 948.369 574.301 951.67 598.798C951.762 599.474 951.598 600.16 951.209 600.725L930.82 630.373L925.366 654.296C924.949 656.093 923.989 657.724 922.612 658.973C921.235 660.221 919.507 661.03 917.654 661.291L889.299 665.191C888.878 665.245 888.454 665.27 888.03 665.265ZM881.635 622.331H881.983C882.669 622.415 883.3 622.745 883.756 623.257C884.212 623.77 884.461 624.429 884.456 625.111V656.149C884.457 656.651 884.566 657.148 884.778 657.605C884.99 658.063 885.299 658.47 885.683 658.8C886.068 659.13 886.521 659.375 887.01 659.519C887.499 659.662 888.013 659.701 888.519 659.632L916.901 655.778C917.62 655.676 918.29 655.362 918.824 654.878C919.358 654.393 919.73 653.76 919.892 653.063L925.46 628.669C925.539 628.337 925.679 628.023 925.873 627.742L945.943 598.529C942.971 580.87 926.014 572.161 921.246 570.04L869.832 601.809C868.118 602.861 866.706 604.328 865.732 606.07C864.757 607.812 864.252 609.771 864.265 611.76L864.396 652.841C864.399 653.431 864.552 654.011 864.842 654.528C865.131 655.044 865.548 655.481 866.054 655.797C866.559 656.114 867.138 656.3 867.736 656.339C868.333 656.377 868.931 656.267 869.475 656.019C869.956 655.8 870.382 655.477 870.72 655.075C871.059 654.672 871.302 654.2 871.431 653.693L878.954 624.453C879.101 623.858 879.444 623.327 879.929 622.943C880.413 622.56 881.013 622.345 881.635 622.331Z" fill="#262424"/>
<path d="M1092.62 495.493C1088.85 517.489 1083.21 534.666 1074.75 539.039C1071.75 542.967 1065.25 547.859 1056.72 553.224C1055.94 552.575 1055.18 551.871 1054.44 551.13C1041.79 538.27 1042.81 517.09 1056.71 503.878C1066.76 494.243 1080.82 491.426 1092.62 495.493Z" fill="white"/>
<path d="M972.228 587.124C971.648 587.122 971.089 586.91 970.658 586.526C970.228 586.143 969.956 585.617 969.896 585.048C966.971 557.948 942.143 551.592 941.889 551.537C941.305 551.371 940.81 550.988 940.506 550.47C940.202 549.951 940.114 549.337 940.26 548.755C940.406 548.174 940.774 547.671 941.289 547.352C941.803 547.033 942.423 546.922 943.018 547.043C943.3 547.108 971.297 554.27 974.57 584.567C974.636 585.177 974.453 585.789 974.061 586.266C973.67 586.744 973.102 587.049 972.482 587.115H972.228V587.124Z" fill="#262424"/>
<path d="M958.987 592.915C962.103 592.915 964.629 590.426 964.629 587.356C964.629 584.286 962.103 581.797 958.987 581.797C955.87 581.797 953.344 584.286 953.344 587.356C953.344 590.426 955.87 592.915 958.987 592.915Z" fill="white"/>
<path d="M958.987 595.695C957.313 595.695 955.676 595.206 954.284 594.289C952.892 593.373 951.807 592.071 951.167 590.547C950.526 589.023 950.359 587.347 950.685 585.729C951.012 584.112 951.818 582.626 953.002 581.46C954.185 580.294 955.693 579.5 957.335 579.178C958.977 578.856 960.679 579.021 962.226 579.652C963.772 580.283 965.094 581.352 966.024 582.723C966.954 584.095 967.451 585.707 967.451 587.356C967.451 589.568 966.559 591.689 964.972 593.252C963.384 594.816 961.231 595.695 958.987 595.695ZM958.987 584.577C958.429 584.577 957.883 584.74 957.419 585.045C956.955 585.35 956.594 585.785 956.38 586.292C956.167 586.8 956.111 587.359 956.219 587.898C956.328 588.438 956.597 588.933 956.992 589.322C957.386 589.71 957.889 589.975 958.436 590.082C958.983 590.189 959.551 590.134 960.066 589.924C960.582 589.714 961.022 589.357 961.332 588.9C961.642 588.443 961.808 587.906 961.808 587.356C961.808 586.619 961.511 585.912 960.982 585.391C960.453 584.869 959.735 584.577 958.987 584.577Z" fill="#262424"/>
<path d="M962.241 130.572L960.576 158.367L957.755 205.961C941.127 216.644 925.272 217.32 910.384 205.544L913.347 183.493L917.833 150.093L962.241 130.572Z" fill="white"/>
<path d="M933.247 216.987C924.632 216.987 916.394 213.902 908.607 207.722C908.228 207.423 907.934 207.034 907.753 206.591C907.572 206.148 907.51 205.666 907.572 205.192L915.011 149.732C915.074 149.261 915.258 148.813 915.546 148.432C915.834 148.051 916.217 147.749 916.657 147.555L961.103 128.043C961.545 127.847 962.032 127.768 962.515 127.812C962.998 127.856 963.462 128.022 963.861 128.294C964.259 128.566 964.581 128.935 964.793 129.365C965.005 129.794 965.101 130.271 965.071 130.748L960.567 206.156C960.541 206.591 960.412 207.014 960.189 207.39C959.967 207.767 959.658 208.087 959.288 208.324C950.284 214.099 941.604 216.987 933.247 216.987ZM913.384 204.359C926.109 213.763 939.717 213.781 955.018 204.405L959.165 134.973L920.409 152.011L913.384 204.359Z" fill="#262424"/>
<path d="M946.902 137.308C946.262 149.88 946.037 192.749 911.616 196.289L917.814 150.103L946.902 137.308Z" fill="#262424"/>
<path d="M876.406 131.258C878.748 154.179 885.5 181.585 913.413 177.323C946.592 172.246 968.043 149.139 968.354 118.027C968.664 86.9153 954.106 69.3766 916.29 72.9436C913.073 73.2402 909.886 73.8011 906.764 74.6206C885.011 80.3927 874.064 98.163 875.418 119C875.663 122.771 875.945 126.94 876.406 131.258Z" fill="white"/>
<path d="M907.854 180.547C901.564 180.688 895.422 178.656 890.494 174.803C876.613 163.824 873.98 140.337 872.625 119.213C871.798 106.474 875.249 95.1239 882.603 86.3407C890.343 77.0757 901.911 71.5166 916.046 70.2103C916.794 70.1402 917.54 70.3659 918.119 70.8377C918.699 71.3094 919.064 71.9886 919.135 72.7257C919.206 73.4629 918.977 74.1977 918.498 74.7685C918.019 75.3393 917.33 75.6993 916.582 75.7693C891.754 78.1133 876.707 95.0313 878.259 118.879C879.199 133.305 880.939 160.155 894.049 170.523C899.042 174.47 905.24 175.822 912.999 174.636C925.366 172.783 936.03 168.336 944.711 161.545C945.297 161.087 946.044 160.876 946.787 160.961C947.53 161.045 948.209 161.417 948.675 161.994C949.14 162.572 949.353 163.307 949.267 164.04C949.182 164.772 948.805 165.441 948.219 165.899C938.899 173.2 927.021 178.129 913.864 180.14C911.874 180.428 909.865 180.564 907.854 180.547Z" fill="#262424"/>
<path d="M978.219 123.882C975.022 128.44 971.428 132.715 967.479 136.659L950.748 137.678L947.184 126.004C947.184 126.004 936.566 125.541 934.366 118.481C934.308 118.32 934.261 118.156 934.225 117.99C933.66 115.673 931.488 105.361 933.077 89.3329C933.077 89.3329 907.554 100.451 893.654 101.878C888.66 102.397 882.82 100.507 877.384 97.8568C866.512 92.5572 857.004 75.1019 858.904 63.2982V63.0759C861.895 45.7781 871.045 57.7578 871.045 57.7578C871.045 57.7578 873.66 43.8602 882.519 42.8226C891.378 41.7849 897.021 54.691 897.021 54.691C914.024 50.7886 931.621 50.0658 948.896 52.5601C983.137 57.7114 974.617 80.9481 974.617 80.9481C974.617 80.9481 999.83 88.9253 978.219 123.882Z" fill="#262424"/>
<path d="M954.388 135.909C952.949 122.937 962.222 110.847 975.407 109.355C978.203 109.024 981.038 109.222 983.758 109.939C1000.09 114.284 995.805 151.761 955.827 148.907L954.388 135.909Z" fill="white"/>
<path d="M960.002 151.835C958.582 151.835 957.125 151.779 955.62 151.678C954.872 151.624 954.176 151.279 953.686 150.719C953.195 150.16 952.951 149.431 953.005 148.694C953.06 147.957 953.41 147.272 953.978 146.789C954.546 146.306 955.285 146.065 956.034 146.119C978.05 147.694 987.887 136.622 989.598 126.662C990.774 119.843 988.009 113.932 983.015 112.607C980.641 111.983 978.167 111.81 975.727 112.097C964.216 113.404 955.902 123.938 957.19 135.593C957.271 136.331 957.052 137.069 956.58 137.647C956.108 138.225 955.423 138.594 954.675 138.674C953.926 138.754 953.177 138.538 952.59 138.073C952.004 137.608 951.629 136.933 951.548 136.196C949.93 121.511 960.473 108.225 975.059 106.548C978.208 106.18 981.4 106.407 984.463 107.215C992.316 109.299 996.802 117.86 995.128 127.598C993.022 140.004 981.36 151.835 960.002 151.835Z" fill="#262424"/>
<path d="M240.616 1095.31H1103.27C1104.02 1095.31 1104.74 1095.02 1105.27 1094.5C1105.79 1093.97 1106.09 1093.27 1106.09 1092.53C1106.09 1091.79 1105.79 1091.09 1105.27 1090.57C1104.74 1090.04 1104.02 1089.75 1103.27 1089.75H240.616C239.867 1089.75 239.15 1090.04 238.621 1090.57C238.092 1091.09 237.794 1091.79 237.794 1092.53C237.794 1093.27 238.092 1093.97 238.621 1094.5C239.15 1095.02 239.867 1095.31 240.616 1095.31Z" fill="#262424"/>
<path d="M214.471 1089.75H168.756C168.008 1089.75 167.29 1090.04 166.761 1090.57C166.232 1091.09 165.935 1091.79 165.935 1092.53C165.935 1093.27 166.232 1093.97 166.761 1094.5C167.29 1095.02 168.008 1095.31 168.756 1095.31H214.471C215.219 1095.31 215.937 1095.02 216.466 1094.5C216.995 1093.97 217.292 1093.27 217.292 1092.53C217.292 1091.79 216.995 1091.09 216.466 1090.57C215.937 1090.04 215.219 1089.75 214.471 1089.75Z" fill="#262424"/>
<path d="M1145.63 1089.75H1122.77C1122.02 1089.75 1121.3 1090.04 1120.77 1090.57C1120.24 1091.09 1119.94 1091.79 1119.94 1092.53C1119.94 1093.27 1120.24 1093.97 1120.77 1094.5C1121.3 1095.02 1122.02 1095.31 1122.77 1095.31H1145.63C1146.38 1095.31 1147.09 1095.02 1147.62 1094.5C1148.15 1093.97 1148.45 1093.27 1148.45 1092.53C1148.45 1091.79 1148.15 1091.09 1147.62 1090.57C1147.09 1090.04 1146.38 1089.75 1145.63 1089.75Z" fill="#262424"/>
<path d="M477.985 1132H865.911C866.659 1132 867.376 1131.71 867.906 1131.19C868.435 1130.66 868.732 1129.96 868.732 1129.22C868.732 1128.48 868.435 1127.78 867.906 1127.25C867.376 1126.73 866.659 1126.44 865.911 1126.44H477.985C477.237 1126.44 476.519 1126.73 475.99 1127.25C475.461 1127.78 475.163 1128.48 475.163 1129.22C475.163 1129.96 475.461 1130.66 475.99 1131.19C476.519 1131.71 477.237 1132 477.985 1132Z" fill="#262424"/>
<path d="M347.056 1132H428.649C429.397 1132 430.115 1131.71 430.644 1131.19C431.173 1130.66 431.47 1129.96 431.47 1129.22C431.47 1128.48 431.173 1127.78 430.644 1127.25C430.115 1126.73 429.397 1126.44 428.649 1126.44H347.056C346.307 1126.44 345.59 1126.73 345.061 1127.25C344.531 1127.78 344.234 1128.48 344.234 1129.22C344.234 1129.96 344.531 1130.66 345.061 1131.19C345.59 1131.71 346.307 1132 347.056 1132Z" fill="#262424"/>
<path d="M923.889 1132H950.758C951.506 1132 952.224 1131.71 952.753 1131.19C953.282 1130.66 953.579 1129.96 953.579 1129.22C953.579 1128.48 953.282 1127.78 952.753 1127.25C952.224 1126.73 951.506 1126.44 950.758 1126.44H923.927C923.178 1126.44 922.461 1126.73 921.932 1127.25C921.403 1127.78 921.105 1128.48 921.105 1129.22C921.105 1129.96 921.403 1130.66 921.932 1131.19C922.461 1131.71 923.178 1132 923.927 1132" fill="#262424"/>
<path d="M678.724 242.336C678.328 242.336 677.938 242.237 677.591 242.049C677.245 241.861 676.951 241.59 676.739 241.261L670.683 231.876C670.363 231.357 670.262 230.736 670.402 230.145C670.541 229.555 670.911 229.042 671.431 228.716C671.951 228.391 672.579 228.28 673.181 228.406C673.784 228.533 674.311 228.887 674.651 229.393L680.708 238.778C680.934 239.128 681.06 239.532 681.073 239.946C681.086 240.361 680.986 240.772 680.784 241.135C680.581 241.499 680.283 241.802 679.92 242.013C679.558 242.224 679.145 242.336 678.724 242.336ZM688.128 236.777C687.619 236.777 687.124 236.614 686.717 236.313C686.31 236.012 686.013 235.589 685.871 235.107C685.729 234.626 685.749 234.112 685.929 233.643C686.109 233.174 686.438 232.775 686.868 232.506L696.395 226.539C696.655 226.369 696.948 226.252 697.255 226.194C697.562 226.137 697.877 226.141 698.183 226.205C698.489 226.269 698.778 226.393 699.035 226.568C699.292 226.744 699.51 226.968 699.678 227.228C699.845 227.488 699.958 227.779 700.011 228.082C700.063 228.386 700.054 228.696 699.983 228.996C699.911 229.296 699.781 229.579 699.597 229.829C699.414 230.078 699.182 230.289 698.915 230.449L689.388 236.416C689.021 236.639 688.598 236.757 688.166 236.758L688.128 236.777ZM707.182 224.834C706.673 224.834 706.177 224.671 705.77 224.37C705.364 224.069 705.067 223.646 704.925 223.164C704.783 222.683 704.803 222.169 704.983 221.7C705.162 221.231 705.492 220.832 705.921 220.563L715.448 214.596C715.709 214.426 716.001 214.309 716.308 214.252C716.615 214.194 716.931 214.198 717.236 214.262C717.542 214.326 717.832 214.45 718.088 214.626C718.345 214.801 718.564 215.026 718.731 215.286C718.899 215.546 719.012 215.836 719.064 216.139C719.117 216.443 719.107 216.754 719.036 217.054C718.965 217.354 718.834 217.636 718.651 217.886C718.467 218.135 718.235 218.346 717.968 218.506L708.442 224.473C708.065 224.709 707.628 224.835 707.182 224.834ZM666.592 223.574C666.196 223.574 665.807 223.476 665.46 223.288C665.113 223.1 664.82 222.829 664.607 222.499L658.551 213.114C658.231 212.596 658.13 211.975 658.27 211.384C658.41 210.793 658.779 210.28 659.299 209.955C659.819 209.63 660.447 209.518 661.05 209.645C661.652 209.771 662.18 210.125 662.52 210.631L668.623 220.007C668.85 220.359 668.976 220.764 668.988 221.18C669.001 221.596 668.899 222.008 668.694 222.372C668.489 222.736 668.188 223.039 667.823 223.249C667.458 223.459 667.043 223.568 666.62 223.565L666.592 223.574ZM726.235 212.91C725.726 212.91 725.231 212.747 724.824 212.446C724.417 212.145 724.12 211.722 723.978 211.24C723.836 210.759 723.856 210.245 724.036 209.776C724.216 209.307 724.545 208.908 724.975 208.639L734.502 202.672C734.762 202.502 735.055 202.385 735.362 202.328C735.669 202.27 735.984 202.274 736.29 202.338C736.596 202.402 736.885 202.526 737.142 202.702C737.398 202.877 737.617 203.102 737.785 203.362C737.952 203.622 738.065 203.912 738.118 204.215C738.17 204.519 738.16 204.83 738.089 205.13C738.018 205.429 737.888 205.712 737.704 205.962C737.521 206.211 737.289 206.422 737.022 206.582L727.495 212.549C727.126 212.777 726.699 212.899 726.263 212.901L726.235 212.91ZM654.516 204.803C654.121 204.803 653.731 204.705 653.384 204.517C653.037 204.329 652.744 204.058 652.532 203.729L646.476 194.343C646.303 194.086 646.184 193.798 646.126 193.496C646.068 193.193 646.071 192.882 646.136 192.581C646.201 192.28 646.327 191.995 646.505 191.742C646.684 191.489 646.911 191.274 647.175 191.109C647.439 190.944 647.734 190.832 648.042 190.781C648.35 190.729 648.666 190.738 648.97 190.808C649.274 190.878 649.561 191.007 649.815 191.188C650.068 191.369 650.282 191.597 650.444 191.86L656.491 201.236C656.719 201.586 656.847 201.99 656.862 202.405C656.877 202.82 656.778 203.231 656.577 203.596C656.375 203.961 656.077 204.265 655.714 204.478C655.352 204.69 654.938 204.803 654.516 204.803Z" fill="#262424"/>
<path d="M735.79 206.944C735.392 206.945 735.001 206.847 734.652 206.659C734.304 206.471 734.009 206.199 733.796 205.869L698.887 151.761L643.965 186.153C643.704 186.323 643.412 186.44 643.105 186.497C642.797 186.555 642.482 186.551 642.176 186.487C641.87 186.423 641.581 186.299 641.324 186.124C641.068 185.948 640.849 185.723 640.682 185.463C640.514 185.204 640.401 184.913 640.348 184.61C640.296 184.306 640.306 183.995 640.377 183.696C640.448 183.396 640.579 183.113 640.762 182.863C640.945 182.614 641.177 182.403 641.444 182.243L698.351 146.573C698.877 146.244 699.514 146.134 700.123 146.268C700.731 146.401 701.261 146.768 701.595 147.286L737.765 203.349C738 203.699 738.134 204.105 738.153 204.525C738.172 204.944 738.075 205.361 737.872 205.73C737.669 206.099 737.368 206.407 737.002 206.621C736.635 206.835 736.216 206.946 735.79 206.944Z" fill="#262424"/>
<path d="M670.927 277.719C670.531 277.719 670.142 277.62 669.795 277.432C669.448 277.245 669.155 276.973 668.943 276.644L632.773 220.582C632.439 220.063 632.328 219.435 632.464 218.836C632.599 218.236 632.971 217.715 633.497 217.385L690.404 181.78C690.93 181.451 691.568 181.341 692.176 181.475C692.785 181.608 693.314 181.975 693.649 182.493L729.818 238.556C730.152 239.074 730.264 239.702 730.128 240.302C729.992 240.901 729.62 241.423 729.094 241.752L672.187 277.385C671.808 277.612 671.371 277.727 670.927 277.719ZM638.012 220.053L671.661 272.206L724.599 239.056L690.949 186.903L638.012 220.053Z" fill="#262424"/>
<path d="M634.767 221.619C634.419 221.618 634.076 221.54 633.762 221.393C633.448 221.245 633.171 221.03 632.952 220.764C632.732 220.498 632.576 220.188 632.493 219.855C632.41 219.522 632.403 219.175 632.472 218.839L640.41 183.688C640.546 183.088 640.918 182.567 641.444 182.237C641.971 181.908 642.608 181.798 643.217 181.932C643.826 182.066 644.355 182.433 644.689 182.951C645.024 183.47 645.135 184.098 644.999 184.698L637.052 219.849C636.928 220.354 636.635 220.803 636.22 221.124C635.806 221.445 635.294 221.619 634.767 221.619Z" fill="#262424"/>
<path d="M691.664 186.023C691.316 186.021 690.973 185.944 690.659 185.796C690.345 185.649 690.069 185.434 689.849 185.168C689.63 184.902 689.473 184.592 689.39 184.259C689.307 183.926 689.3 183.579 689.369 183.243L697.316 148.092C697.452 147.492 697.824 146.97 698.351 146.641C698.877 146.312 699.515 146.202 700.123 146.336C700.732 146.47 701.262 146.837 701.596 147.355C701.93 147.874 702.042 148.502 701.906 149.102L693.959 184.253C693.834 184.759 693.54 185.209 693.123 185.53C692.707 185.852 692.193 186.025 691.664 186.023Z" fill="#262424"/>
<path d="M727.871 242.086C727.524 242.084 727.18 242.007 726.866 241.859C726.553 241.711 726.276 241.497 726.056 241.231C725.837 240.965 725.68 240.654 725.597 240.322C725.514 239.989 725.507 239.642 725.577 239.306L733.514 204.118C733.65 203.518 734.022 202.996 734.549 202.667C735.075 202.338 735.713 202.228 736.321 202.362C736.93 202.496 737.46 202.862 737.794 203.381C738.128 203.9 738.24 204.528 738.104 205.127L730.157 240.279C730.04 240.79 729.75 241.248 729.335 241.576C728.92 241.904 728.404 242.084 727.871 242.086Z" fill="#262424"/>
<path d="M671.52 275.125C671.172 275.123 670.829 275.046 670.515 274.898C670.201 274.75 669.924 274.536 669.705 274.27C669.485 274.004 669.328 273.693 669.245 273.361C669.162 273.028 669.155 272.681 669.225 272.345L671.67 261.459C671.806 260.859 672.178 260.337 672.705 260.008C673.231 259.679 673.869 259.569 674.477 259.703C675.086 259.837 675.616 260.203 675.95 260.722C676.284 261.241 676.395 261.869 676.26 262.469L673.805 273.318C673.688 273.829 673.398 274.287 672.983 274.615C672.568 274.943 672.052 275.123 671.52 275.125ZM676.429 253.417C676.081 253.415 675.738 253.338 675.424 253.19C675.11 253.042 674.833 252.828 674.614 252.562C674.394 252.296 674.237 251.985 674.154 251.653C674.072 251.32 674.065 250.973 674.134 250.637L676.589 239.788C676.725 239.188 677.097 238.666 677.623 238.337C678.15 238.008 678.787 237.898 679.396 238.032C680.005 238.166 680.534 238.533 680.868 239.051C681.203 239.57 681.314 240.198 681.178 240.798L678.724 251.647C678.601 252.155 678.307 252.607 677.89 252.93C677.474 253.253 676.959 253.428 676.429 253.426V253.417Z" fill="#262424"/>
<path d="M516.073 97.2179H515.725L437.752 85.8404C437.293 85.7727 436.864 85.5723 436.52 85.2646C436.176 84.9569 435.932 84.5556 435.819 84.1115C435.707 83.6673 435.73 83.2003 435.887 82.7692C436.043 82.3382 436.326 81.9626 436.699 81.6897L526.23 16.2509C526.602 15.9665 527.053 15.7989 527.524 15.7701C527.994 15.7413 528.463 15.8524 528.868 16.0891C529.274 16.3259 529.598 16.6773 529.798 17.0977C529.998 17.5181 530.066 17.9881 529.992 18.4467L518.396 95.2444C518.313 95.7929 518.032 96.2936 517.606 96.6557C517.18 97.0179 516.636 97.2173 516.073 97.2179ZM444.053 82.0511L514.089 92.2426L524.434 23.246L444.053 82.0511Z" fill="#262424"/>
<path d="M504.317 81.6064C503.952 81.6064 503.592 81.5226 503.266 81.3618C502.939 81.201 502.655 80.9675 502.436 80.6799L499.06 76.1585C498.686 75.6671 498.525 75.0493 498.614 74.4412C498.702 73.8331 499.032 73.2844 499.53 72.9158C500.029 72.5472 500.656 72.3889 501.274 72.4758C501.891 72.5627 502.448 72.8876 502.822 73.379L506.189 77.8448C506.467 78.1878 506.64 78.6016 506.689 79.0381C506.737 79.4745 506.659 79.9156 506.463 80.3098C506.267 80.704 505.961 81.0352 505.581 81.2648C505.201 81.4943 504.763 81.6128 504.317 81.6064Z" fill="#262424"/>
<path d="M493.634 67.4216C493.269 67.4216 492.909 67.3379 492.582 67.1771C492.256 67.0162 491.972 66.7828 491.753 66.4951L484.436 56.7761C484.251 56.5327 484.116 56.2558 484.04 55.9612C483.963 55.6665 483.946 55.3599 483.99 55.0588C484.033 54.7576 484.137 54.4679 484.294 54.2062C484.451 53.9445 484.66 53.7158 484.907 53.5333C485.154 53.3508 485.435 53.218 485.734 53.1426C486.033 53.0671 486.344 53.0504 486.65 53.0934C486.955 53.1364 487.249 53.2383 487.515 53.3933C487.781 53.5482 488.013 53.7532 488.198 53.9966L495.515 63.7156C495.777 64.0597 495.936 64.4689 495.976 64.8973C496.015 65.3257 495.932 65.7565 495.737 66.1412C495.542 66.5259 495.241 66.8495 494.87 67.0757C494.498 67.3018 494.07 67.4216 493.634 67.4216ZM478.991 47.9651C478.626 47.9651 478.266 47.8813 477.94 47.7205C477.613 47.5597 477.329 47.3262 477.11 47.0386L469.794 37.3196C469.419 36.8281 469.259 36.2104 469.347 35.6022C469.435 34.9941 469.765 34.4454 470.264 34.0768C470.763 33.7082 471.39 33.55 472.007 33.6368C472.624 33.7237 473.181 34.0486 473.555 34.5401L480.872 44.2591C481.137 44.6031 481.298 45.0133 481.339 45.4431C481.38 45.873 481.298 46.3055 481.102 46.6919C480.907 47.0782 480.605 47.403 480.232 47.6296C479.859 47.8562 479.429 47.9756 478.991 47.9743V47.9651ZM464.348 28.5085C463.983 28.5085 463.623 28.4248 463.297 28.264C462.97 28.1032 462.686 27.8697 462.467 27.582L455.141 17.8815C454.767 17.3901 454.607 16.7724 454.695 16.1642C454.783 15.5561 455.113 15.0074 455.612 14.6388C456.11 14.2702 456.737 14.112 457.355 14.1988C457.972 14.2857 458.529 14.6106 458.903 15.102L466.22 24.821C466.484 25.1645 466.646 25.5738 466.687 26.0028C466.728 26.4319 466.647 26.8637 466.452 27.2497C466.258 27.6357 465.958 27.9607 465.586 28.188C465.214 28.4153 464.786 28.5359 464.348 28.5363V28.5085Z" fill="#262424"/>
<path d="M449.715 9.09826C449.35 9.09826 448.99 9.01454 448.663 8.85373C448.337 8.69291 448.053 8.45943 447.834 8.17176L444.477 3.70602C444.102 3.21457 443.942 2.59683 444.03 1.9887C444.118 1.38056 444.448 0.831848 444.947 0.463263C445.446 0.0946773 446.073 -0.0635876 446.69 0.0232888C447.307 0.110165 447.864 0.435066 448.238 0.926513L451.596 5.39225C451.858 5.73638 452.017 6.14557 452.057 6.57399C452.096 7.00241 452.013 7.43312 451.818 7.81786C451.623 8.20261 451.322 8.52618 450.951 8.75233C450.58 8.97847 450.152 9.09826 449.715 9.09826Z" fill="#262424"/>
<path d="M516.073 97.2178H515.725L496.201 94.3641C495.896 94.3199 495.602 94.2168 495.336 94.0606C495.071 93.9044 494.84 93.6982 494.655 93.4538C494.471 93.2094 494.338 92.9316 494.262 92.6363C494.187 92.341 494.172 92.034 494.217 91.7329C495.077 86.0224 498.202 80.8817 502.907 77.4403C507.612 73.9988 513.511 72.538 519.308 73.3789C519.614 73.4231 519.908 73.5262 520.173 73.6824C520.438 73.8387 520.67 74.0449 520.854 74.2892C521.038 74.5336 521.172 74.8114 521.247 75.1067C521.322 75.402 521.338 75.709 521.293 76.0101L518.396 95.2443C518.313 95.7927 518.032 96.2935 517.606 96.6556C517.18 97.0177 516.636 97.2172 516.073 97.2178ZM499.342 90.1208L514.051 92.2702L516.271 77.7798H516.064C512.297 77.7803 508.632 78.983 505.618 81.2078C502.603 83.4326 500.401 86.5598 499.342 90.1208Z" fill="#262424"/>
<path d="M208.264 66.9952C208.012 66.9946 207.761 66.9539 207.521 66.8747L144.135 46.1859C143.543 45.993 143.052 45.5762 142.772 45.0272C142.491 44.4781 142.444 43.8418 142.64 43.2582C142.835 42.6746 143.259 42.1915 143.816 41.9153C144.373 41.639 145.019 41.5922 145.611 41.7851L208.998 62.4738C209.532 62.6432 209.988 62.9955 210.282 63.467C210.576 63.9386 210.688 64.4981 210.6 65.0445C210.511 65.5909 210.227 66.088 209.799 66.4458C209.37 66.8036 208.826 66.9985 208.264 66.9952Z" fill="#262424"/>
<path d="M191.327 98.265L187.565 87.4898L178.443 94.068L172.8 92.215L186.023 82.95L180.709 67.7368L187.65 70.0067L191.317 80.6245L199.781 73.9536L205.424 75.8066L192.756 84.7844L198.107 100.47L191.327 98.265Z" fill="#262424"/>
<path d="M166.772 90.6951C166.519 90.6947 166.268 90.6541 166.029 90.5747L135.078 80.4758C134.673 80.3444 134.312 80.1068 134.034 79.7886C133.755 79.4704 133.569 79.0835 133.497 78.6694C133.425 78.2553 133.468 77.8296 133.622 77.4378C133.776 77.0461 134.036 76.7031 134.373 76.4455L157.489 58.7679C157.794 58.5352 158.153 58.38 158.533 58.3161C158.914 58.2521 159.304 58.2814 159.67 58.4014C160.037 58.5213 160.367 58.7282 160.633 59.0038C160.899 59.2794 161.092 59.6152 161.195 59.9816L169.019 87.7767C169.113 88.1181 169.125 88.4762 169.056 88.8233C168.988 89.1703 168.839 89.4973 168.622 89.779C168.405 90.0608 168.125 90.2898 167.805 90.4486C167.484 90.6074 167.13 90.6918 166.772 90.6951ZM140.749 77.4462L152.035 81.1522L163.32 84.8582L157.612 64.5863L140.749 77.4462Z" fill="#262424"/>
<path d="M182.101 45.102C181.848 45.1016 181.597 45.0609 181.358 44.9815L165.888 39.9321L150.436 34.8827C150.031 34.7512 149.67 34.5136 149.391 34.1954C149.113 33.8772 148.927 33.4903 148.855 33.0762C148.782 32.6621 148.825 32.2364 148.98 31.8447C149.134 31.4529 149.394 31.1099 149.731 30.8524L172.837 13.1562C173.143 12.9235 173.501 12.7683 173.882 12.7044C174.262 12.6404 174.652 12.6697 175.019 12.7897C175.385 12.9096 175.715 13.1165 175.981 13.3921C176.247 13.6677 176.44 14.0035 176.543 14.3699L184.367 42.165C184.465 42.5092 184.48 42.8708 184.411 43.2217C184.343 43.5726 184.193 43.9031 183.974 44.1875C183.754 44.4719 183.471 44.7025 183.146 44.8611C182.821 45.0198 182.464 45.1022 182.101 45.102ZM167.364 35.5405L178.649 39.2465L172.941 18.9746L156.079 31.853L167.364 35.5405Z" fill="#262424"/>
<path d="M202.273 35.5313L199.132 34.4659L200.364 30.7599L203.505 31.7883L206.054 24.2002C206.932 21.5813 208.211 19.7716 209.891 18.7709C210.802 18.2692 211.817 17.9762 212.859 17.9137C213.901 17.8511 214.944 18.0206 215.91 18.4096C216.608 18.635 217.275 18.9463 217.894 19.3361C218.525 19.7299 219.089 20.2175 219.568 20.7814L216.803 23.1718C216.641 22.8531 216.413 22.5719 216.132 22.3467C215.852 22.1215 215.526 21.9575 215.176 21.8655C214.701 21.6774 214.185 21.6069 213.675 21.6602C213.166 21.7135 212.677 21.889 212.252 22.1712C211.212 23.0553 210.478 24.2377 210.154 25.5529L207.615 33.0947L213.446 35.1144L212.214 38.8204L206.374 36.9118L201.521 51.3467L197.458 49.9662L202.273 35.5313Z" fill="#262424"/>
<path d="M33.2373 365.811C32.8723 365.811 32.5123 365.727 32.1858 365.566C31.8593 365.405 31.5754 365.172 31.3564 364.884C30.7451 364.097 16.1681 345.224 7.08339 313.982C-2.00134 282.74 0.208706 259.133 0.302751 258.142C0.36386 257.528 0.67017 256.962 1.1543 256.571C1.63843 256.179 2.26072 255.992 2.88428 256.053C3.50783 256.113 4.08158 256.415 4.47929 256.892C4.877 257.368 5.0661 257.982 5.00499 258.596C5.00499 258.827 2.79494 282.37 11.5881 312.704C20.3813 343.037 34.9207 361.864 35.0993 362.049C35.3769 362.391 35.5502 362.804 35.5991 363.24C35.648 363.676 35.5704 364.116 35.3754 364.51C35.1805 364.904 34.876 365.235 34.4976 365.465C34.1191 365.696 33.6821 365.815 33.2373 365.811Z" fill="#262424"/>
<path d="M77.5418 353.303H77.3066C76.9991 353.274 76.7003 353.186 76.4274 353.043C76.1546 352.9 75.913 352.705 75.7164 352.47C75.5199 352.236 75.3723 351.965 75.2821 351.674C75.1919 351.382 75.1608 351.077 75.1906 350.774C75.1906 350.542 77.4007 327 68.6075 296.666C59.8143 266.332 45.275 247.506 45.0963 247.311C44.7221 246.82 44.5615 246.202 44.6497 245.594C44.7379 244.986 45.0677 244.437 45.5665 244.068C46.0653 243.7 46.6924 243.542 47.3097 243.629C47.927 243.715 48.4839 244.04 48.8581 244.532C49.4694 245.319 64.0463 264.192 73.1311 295.434C82.2158 326.675 80.0057 350.283 79.9117 351.274C79.8399 351.84 79.5583 352.361 79.1209 352.735C78.6835 353.11 78.1212 353.312 77.5418 353.303Z" fill="#262424"/>
<path d="M39.6511 253.5L34.1118 294.683L28.535 296.258L30.5946 281.916L12.0113 261.31L18.3781 259.513L31.629 274.837L34.4504 254.973L39.6511 253.5Z" fill="#262424"/>
<path d="M56.9836 344.844L47.7202 338.025L43.9584 348.522L38.2028 350.143L43.8455 335.115L30.7451 325.498L37.7796 323.516L46.8926 330.251L50.0243 320.06L55.7234 318.448L50.4851 332.92L63.8394 342.991L56.9836 344.844Z" fill="#262424"/>
<path d="M20.118 312.657C19.5529 312.655 19.0075 312.452 18.5816 312.086C18.1558 311.72 17.878 311.215 17.7992 310.664C17.7204 310.113 17.8458 309.552 18.1525 309.084C18.4592 308.616 18.9266 308.273 19.4691 308.117L61.6953 296.193C61.9923 296.109 62.3032 296.084 62.6102 296.118C62.9172 296.153 63.2144 296.246 63.4847 296.394C63.7549 296.541 63.9931 296.74 64.1855 296.978C64.3778 297.216 64.5207 297.49 64.606 297.782C64.6912 298.075 64.717 298.381 64.6821 298.684C64.6472 298.986 64.5521 299.279 64.4023 299.545C64.2526 299.811 64.051 300.046 63.8092 300.235C63.5674 300.425 63.2901 300.566 62.9931 300.65L20.7669 312.574C20.5556 312.631 20.3372 312.659 20.118 312.657Z" fill="#262424"/>
<path d="M19.2716 548.322L15.1524 538.584L7.13039 545.2L1.76044 543.819L13.4126 534.452L7.58182 520.712L14.165 522.399L18.1713 531.997L25.5444 525.336L30.8579 526.698L19.7136 535.786L25.6102 549.962L19.2716 548.322Z" fill="black"/>
<path d="M67.1874 537.334L65.9836 541.901L37.0648 534.489L38.2686 529.922L67.1874 537.334ZM64.3002 548.239L63.0965 552.806L34.1777 545.394L35.3814 540.827L64.3002 548.239Z" fill="black"/>
<path d="M86.0999 565.491L81.9807 555.753L73.9587 562.368L68.6169 560.988L80.2691 551.621L74.4383 537.881L81.0215 539.567L85.056 549.166L92.4291 542.504L97.7426 543.866L86.6453 552.964L92.542 567.14L86.0999 565.491Z" fill="black"/>
<path d="M102.116 550.435C103.712 548.853 105.719 547.734 107.918 547.202C110.261 546.635 112.712 546.67 115.037 547.303C117.364 547.858 119.504 549.001 121.244 550.62C122.862 552.133 124.024 554.057 124.602 556.179C125.196 558.355 125.196 560.647 124.602 562.822C124.05 565.018 122.925 567.034 121.338 568.669C119.779 570.259 117.798 571.386 115.621 571.921C113.268 572.492 110.806 572.454 108.473 571.809C106.166 571.256 104.033 570.148 102.266 568.585C100.61 567.112 99.4099 565.207 98.8053 563.091C98.1713 560.839 98.1713 558.459 98.8053 556.207C99.3604 554.024 100.504 552.03 102.116 550.435ZM103.997 561.896C104.306 563.245 104.978 564.487 105.943 565.491C107.164 566.727 108.777 567.516 110.515 567.725C112.253 567.933 114.012 567.551 115.498 566.64C117.344 565.463 118.652 563.626 119.147 561.516C119.763 559.428 119.534 557.187 118.508 555.262C118.026 554.337 117.345 553.527 116.514 552.887C115.683 552.247 114.72 551.793 113.693 551.556C112.336 551.187 110.9 551.223 109.564 551.658C108.234 552.096 107.042 552.865 106.103 553.891C105.137 554.967 104.445 556.255 104.086 557.647C103.726 559.039 103.708 560.496 104.034 561.896H103.997Z" fill="black"/>
</svg>
