<svg width="377" height="352" viewBox="0 0 377 352" fill="none" xmlns="http://www.w3.org/2000/svg">
<path d="M232.022 100.03C202.788 99.2309 156.085 122.189 131.487 152.851C93.784 199.846 57.5365 176.811 22.4605 208.638C-4.06926 232.717 -12.3889 284.713 27.0697 311.68C66.5283 338.648 134.698 309.71 174.99 326.05C215.282 342.389 251.365 355.798 292.348 349.626C339.404 342.554 380.937 300.054 373.263 224.102C363.449 126.936 294.419 101.731 232.022 100.03Z" fill="#E1ECFF"/>
<path d="M344.325 241.16C344.325 241.16 368.865 251.991 370.305 273.04C371.584 291.738 361.744 310.931 344.325 319.9C324.424 330.125 315.782 313.113 322.081 302.358C328.381 291.604 363.418 275.087 339.6 253.939C339.6 244.901 344.325 241.16 344.325 241.16Z" fill="#F774B9"/>
<path opacity="0.58" d="M94.7598 238.64C86.0599 237.726 70.0314 238.106 61.3815 240.353C53.4998 242.4 46.0175 251.492 57.9246 255.717C69.8317 259.942 59.9258 265.124 44.097 265.88C28.2683 266.637 21.1701 277.073 32.309 282.861C43.4479 288.65 66.1559 289.007 84.9729 289.007C103.79 289.007 128.123 286.084 138.397 279.923C148.672 273.762 140.775 267.916 137.207 266.295C133.638 264.674 130.178 264.294 131.149 261.755C132.121 259.216 136.527 251.818 130.032 246.107C119.027 236.451 104.082 239.623 94.7598 238.64Z" fill="#99ADF9"/>
<path d="M179.676 227.459C179.676 227.459 178.931 243.745 177.587 245.684C176.243 247.624 164.143 250.989 163.475 254.799C162.807 258.609 162.88 265.258 169.002 266.453C175.125 267.647 188.207 267.351 191.56 267.221C194.914 267.09 201.866 257.657 204.927 236.143C186.702 227.82 179.676 227.459 179.676 227.459Z" fill="#F774B9"/>
<path d="M211.461 23.6593C211.461 23.6593 202.307 6.23657 195.912 2.20352C189.517 -1.82953 185.28 0.137061 183.709 4.36984C182.138 8.60262 181.739 25.6259 181.739 25.6259C181.739 25.6259 164.024 42.0616 157.333 60.2679C150.642 78.4742 149.163 115.382 191.384 120.295C233.604 125.208 277.107 111.249 295.713 98.651C289.606 67.8462 280.944 27.6924 278.974 16.5881C277.003 5.48373 270.908 -0.0242622 264.213 0.0141477C257.518 0.0525577 249.237 15.5894 246.694 25.0383C229.079 22.968 211.461 23.6593 211.461 23.6593Z" fill="#FF97C9"/>
<path opacity="0.3" d="M251.399 25.987C251.399 25.987 257.226 7.18914 262.296 7.289C266.836 7.37734 268.937 21.5007 269.318 28.4567C269.331 28.7039 269.287 28.9508 269.189 29.1783C269.092 29.4057 268.943 29.6075 268.754 29.7681C268.566 29.9286 268.343 30.0435 268.103 30.1039C267.863 30.1642 267.612 30.1684 267.37 30.1161C261.179 28.7948 251.399 25.987 251.399 25.987Z" fill="white"/>
<path opacity="0.3" d="M181.635 25.6912C181.635 25.6912 181.159 5.86783 185.376 4.3852C189.659 2.87569 196.515 15.4127 199.289 21.8156C199.386 22.0433 199.43 22.2903 199.416 22.5375C199.403 22.7848 199.333 23.0256 199.211 23.2414C199.09 23.4571 198.92 23.6421 198.716 23.7818C198.511 23.9216 198.278 24.0124 198.033 24.0473C191.772 24.9461 181.635 25.6912 181.635 25.6912Z" fill="white"/>
<path d="M295.713 98.651C298.716 110.758 316.577 142.938 327.501 160.656C338.425 178.375 348.073 200.603 347.474 228.692C346.875 256.781 336.281 264.451 321.601 268.715C306.921 272.979 297.871 271.788 289.337 272.917C280.802 274.046 271.887 277.707 266.11 272.917C260.333 268.127 257.318 265.304 250.888 268.65C244.458 271.995 228.123 271.077 223.859 269.963C219.596 268.849 217.495 260.319 224.627 255.921C212.947 259.662 183.145 256.236 176.008 227.382C170.3 204.252 187.531 156.431 191.372 145.5C195.301 134.284 197.08 128.077 194.913 117.94C209.198 113.907 295.713 98.651 295.713 98.651Z" fill="#FF97C9"/>
<path d="M307.908 126.179C307.908 126.179 292.506 142.957 295.713 160.065C297.941 171.995 312.641 178.567 314.215 188.803C315.79 199.039 327.014 216.074 345.907 207.271C343.538 177.975 307.908 126.179 307.908 126.179Z" fill="#F774B9"/>
<path opacity="0.19" d="M333.697 170.128C333.697 170.128 346.311 247.048 298.667 272.256C331.83 292.364 377 231.542 377 231.542L333.697 170.128Z" fill="#FF97C9"/>
<path d="M263.756 236.896C263.756 236.896 264.524 253.363 278.844 256.055C277.008 259.792 263.952 257.3 263.36 270.355C260.933 268.872 257.914 265.304 250.893 268.65C260.407 252.64 263.756 236.896 263.756 236.896Z" fill="#F774B9"/>
<path opacity="0.3" d="M190.47 135.632C190.47 135.632 195.371 131.276 209.675 133.328C223.979 135.379 242.166 176.535 239.838 201.125C237.511 225.715 240.56 254.108 217.81 259.451C195.125 268.258 146.298 234.757 146.298 234.757L190.47 135.632Z" fill="white"/>
<path d="M239.327 174.418C239.35 188.672 238.056 202.873 236.669 217.054C235.982 224.106 235.356 231.181 234.096 238.179C233.166 243.318 232.041 252.533 225.419 253.386C223.245 253.666 223.214 257.127 225.419 256.842C232.056 255.986 235.021 250.009 236.404 244.11C238.136 236.719 238.935 229.13 239.684 221.582C241.221 205.915 242.807 190.213 242.784 174.445C242.784 172.221 239.327 172.218 239.327 174.445V174.418Z" fill="#F774B9"/>
<path d="M268.718 202.108C267.639 213.351 265.231 224.413 262.15 235.268C260.614 240.61 258.951 245.907 257.18 251.169C256.296 253.799 255.393 256.424 254.468 259.043C253.573 261.586 252.709 264.183 250.858 266.211C249.36 267.851 251.799 270.301 253.3 268.654C256.942 264.667 258.236 258.794 259.934 253.804C261.854 248.204 263.652 242.569 265.284 236.881C268.549 225.5 271.046 213.904 272.175 202.108C272.39 199.896 268.929 199.911 268.718 202.108Z" fill="#F774B9"/>
<path d="M286.291 199.65C280.914 202.231 275.828 206.714 271.872 211.138C267.916 215.563 265.607 221.01 264.309 226.737C263.011 232.464 261.789 239.147 264.029 244.789C265.919 249.548 269.748 253.37 274.242 255.74C280.414 258.997 287.54 259.604 294.403 259.5C296.623 259.47 296.631 256.013 294.403 256.044C287.52 256.147 280.234 255.583 274.284 251.765C268.653 248.15 265.865 242.546 266.372 235.89C266.879 229.233 268.415 222.062 272.133 216.408C274.054 213.478 276.677 211.115 279.297 208.822C282.005 206.449 284.766 204.213 288.027 202.638C290.032 201.674 288.281 198.694 286.284 199.654L286.291 199.65Z" fill="#F774B9"/>
<path d="M280.579 255.337C276.12 257.065 271.476 258.571 267.136 260.584C265.502 261.321 264.137 262.548 263.23 264.095C262.324 265.642 261.921 267.432 262.077 269.218C262.273 271.415 265.73 271.434 265.534 269.218C265.189 265.346 267.87 263.952 271.011 262.735L281.501 258.671C283.556 257.876 282.654 254.53 280.583 255.337H280.579Z" fill="#F774B9"/>
<path d="M225.423 261.943C224.423 264.073 223.999 266.428 224.194 268.773C224.397 270.97 227.854 270.993 227.651 268.773C227.457 267.039 227.722 265.286 228.419 263.687C228.803 262.831 228.661 261.84 227.8 261.325C227.063 260.883 225.818 261.094 225.434 261.943H225.423Z" fill="#F774B9"/>
<path d="M236.892 262.151C235.705 264.428 235.613 266.891 235.69 269.406C235.755 271.626 239.212 271.634 239.146 269.406C239.089 267.547 238.993 265.596 239.876 263.898C240.902 261.924 237.921 260.176 236.892 262.151Z" fill="#F774B9"/>
<path d="M195.52 121.313C195.52 121.313 249.056 125.815 295.705 98.651C298.232 105.949 301.678 113.708 301.678 113.708C301.678 113.708 255.271 141.874 194.841 134.357C192.67 130.777 195.52 121.313 195.52 121.313Z" fill="#738DE0"/>
<path d="M172.49 62.7607C173.85 61.57 185.38 61.2858 186.594 62.0424C187.808 62.7991 186.464 70.9651 179.542 70.9651C172.621 70.9651 171.438 63.6825 172.49 62.7607Z" fill="#1C3177"/>
<path d="M222.089 62.7607C223.452 61.57 234.983 61.2858 236.197 62.0424C237.41 62.7991 236.066 70.9651 229.145 70.9651C222.223 70.9651 221.04 63.6825 222.089 62.7607Z" fill="#1C3177"/>
<path d="M197.356 96.0967C197.356 96.0967 200.963 86.9782 203.118 87.1741C205.273 87.37 210.216 96.0967 210.216 96.0967" stroke="#1C3177" stroke-width="2.37594" stroke-miterlimit="10" stroke-linecap="round"/>
<path d="M147.884 80.6981C152.476 80.5214 157.075 80.5983 161.658 80.9286C163.878 81.0899 163.871 77.633 161.658 77.4717C157.075 77.1414 152.476 77.0645 147.884 77.2412C145.668 77.3258 145.657 80.7826 147.884 80.6981Z" fill="#F774B9"/>
<path d="M149.425 97.7637C153.247 96.0508 157.158 94.5418 161.14 93.2429C163.245 92.5553 162.346 89.2175 160.222 89.9127C155.959 91.312 151.773 92.9352 147.681 94.7754C145.657 95.6857 147.412 98.6663 149.425 97.7637Z" fill="#F774B9"/>
<path d="M243.782 81.3742C247.578 79.0814 251.551 77.0957 255.663 75.436C257.702 74.6179 256.815 71.2762 254.745 72.102C250.349 73.8559 246.1 75.9585 242.039 78.3897C240.118 79.542 241.87 82.5226 243.782 81.3742Z" fill="#F774B9"/>
<path d="M245.116 91.0381C249.049 91.2724 252.967 91.668 256.865 92.248C259.039 92.5707 259.98 89.2405 257.783 88.914C253.558 88.288 249.356 87.8347 245.108 87.5812C242.884 87.4468 242.892 90.9037 245.108 91.0381H245.116Z" fill="#F774B9"/>
<path d="M200.979 24.4928C204.158 24.1474 207.359 24.0434 210.554 24.1817C212.778 24.2777 212.775 20.8208 210.554 20.7248C207.359 20.5865 204.158 20.6905 200.979 21.0359C198.793 21.2741 198.766 24.7348 200.979 24.4928Z" fill="#F774B9"/>
<path d="M248.169 25.8679C250.47 25.9077 252.743 26.378 254.871 27.2545C256.934 28.0842 257.829 24.7425 255.789 23.9205C253.365 22.9488 250.781 22.4369 248.169 22.411C245.945 22.3764 245.945 25.8333 248.169 25.8679Z" fill="#F774B9"/>
<path d="M197.356 153.174C203.262 153.174 208.05 148.692 208.05 143.164C208.05 137.636 203.262 133.155 197.356 133.155C191.451 133.155 186.663 137.636 186.663 143.164C186.663 148.692 191.451 153.174 197.356 153.174Z" fill="#FFD3B3"/>
<path d="M201.027 142.916C201.228 141.43 199.228 139.933 196.56 139.573C193.892 139.213 191.567 140.126 191.366 141.612C191.166 143.098 193.166 144.595 195.833 144.955C198.501 145.315 200.826 144.403 201.027 142.916Z" fill="#1C3177"/>
<path d="M196.204 142.611C194.808 146.269 194.38 150.224 194.959 154.096" stroke="#1C3177" stroke-width="1.84795" stroke-miterlimit="10"/>
<path d="M53.3462 275.08L78.0054 302.954L91.399 297.154L81.712 292.322L84.7617 278.694L53.3462 275.08Z" fill="#738DE0"/>
<path d="M103.774 278.997L114.733 268.903L120.644 280.004L103.774 278.997Z" fill="#738DE0"/>
<path d="M72.3706 217.58L142.415 225.227C142.415 225.227 150.132 243.399 141.804 256.378L88.4144 259.704L92.4552 248.312L83.5172 245.285L90.5462 229.652L72.3706 217.58Z" fill="#738DE0"/>
</svg>
