<svg width="96" height="48" viewBox="0 0 96 48" fill="none" xmlns="http://www.w3.org/2000/svg">
<path d="M21.2031 28.5938C21.6719 28.9583 22.2708 29.1406 23 29.1406C23.7812 29.1406 24.4323 28.8802 24.9531 28.3594C25.526 27.8385 25.8125 27.1875 25.8125 26.4062V17.3438C25.8125 17.1354 25.7604 16.9792 25.6562 16.875C25.5521 16.7708 25.3698 16.7188 25.1094 16.7188H24.6406V16.25H27.4531V16.7188H26.9844C26.776 16.7188 26.5938 16.7708 26.4375 16.875C26.3333 16.9792 26.2812 17.1354 26.2812 17.3438V26.4062C26.2812 27.4479 25.9167 28.2812 25.1875 28.9062C24.5104 29.4792 23.7292 29.7656 22.8438 29.7656C21.9062 29.7656 21.0729 29.5052 20.3438 28.9844C19.6667 28.4635 19.3281 27.6302 19.3281 26.4844V17.3438C19.3281 17.1354 19.276 16.9792 19.1719 16.875C19.0677 16.7708 18.8854 16.7188 18.625 16.7188H18.2344V16.25H21.6719V16.7188H21.2812C21.0729 16.7188 20.8906 16.7708 20.7344 16.875C20.6302 16.9792 20.5781 17.1354 20.5781 17.3438V26.4844C20.5781 27.526 20.7865 28.2292 21.2031 28.5938ZM31.5938 29.1406H32.1406V29.6094H28.3906V29.1406H28.9375C29.1979 29.1406 29.3802 29.0885 29.4844 28.9844C29.5885 28.8802 29.6406 28.724 29.6406 28.5156V17.3438C29.6406 17.1354 29.5885 16.9792 29.4844 16.875C29.3802 16.7708 29.1979 16.7188 28.9375 16.7188H28.4688V16.25H36.5938L37.5312 19.0625L37.1406 19.2188C36.724 18.3854 36.2292 17.7604 35.6562 17.3438C35.0833 16.9271 34.4583 16.7188 33.7812 16.7188H31.5938C31.3854 16.7188 31.2031 16.7708 31.0469 16.875C30.9427 16.9792 30.8906 17.1354 30.8906 17.3438V22.3438H33.4688C33.9896 22.3438 34.3542 22.2396 34.5625 22.0312C34.8229 21.7708 34.9531 21.3802 34.9531 20.8594V20.4688H35.4219V25H34.9531V24.6875C34.9531 24.0625 34.8229 23.5938 34.5625 23.2812C34.3542 22.9688 33.9896 22.8125 33.4688 22.8125H30.8906V28.5156C30.8906 28.724 30.9427 28.8802 31.0469 28.9844C31.2031 29.0885 31.3854 29.1406 31.5938 29.1406ZM45.8906 22.1094C46.6198 23.0469 46.9844 24.0885 46.9844 25.2344C46.9844 26.5365 46.5938 27.6302 45.8125 28.5156C45.0312 29.349 44.0677 29.7656 42.9219 29.7656C41.724 29.7656 40.7344 29.3229 39.9531 28.4375C39.224 27.5521 38.8594 26.4844 38.8594 25.2344C38.8594 24.0885 39.224 23.0469 39.9531 22.1094C40.7344 21.1719 41.724 20.7031 42.9219 20.7031C44.1719 20.7031 45.1615 21.1719 45.8906 22.1094ZM40.9688 22.2656C40.3958 22.9427 40.1094 23.9583 40.1094 25.3125C40.1094 26.6667 40.3698 27.6823 40.8906 28.3594C41.4635 28.9844 42.1406 29.2969 42.9219 29.2969C43.8073 29.2969 44.4844 28.9583 44.9531 28.2812C45.474 27.5521 45.7344 26.5625 45.7344 25.3125C45.7344 23.9583 45.4479 22.9427 44.875 22.2656C44.3542 21.5365 43.7031 21.1719 42.9219 21.1719C42.1927 21.1719 41.5417 21.5365 40.9688 22.2656ZM48.2344 20.8594H48.4688C48.7292 20.8594 48.9896 20.8333 49.25 20.7812C49.5104 20.7292 49.7188 20.651 49.875 20.5469H50.0312V21.875C50.2917 21.4583 50.5781 21.1719 50.8906 21.0156C51.2031 20.8073 51.5417 20.7031 51.9062 20.7031C52.375 20.7031 52.7396 20.8073 53 21.0156C53.2604 21.1719 53.4167 21.4583 53.4688 21.875C53.7292 21.4583 54.0156 21.1719 54.3281 21.0156C54.6927 20.8073 55.0573 20.7031 55.4219 20.7031C56.0469 20.7031 56.4635 20.8854 56.6719 21.25C56.9323 21.6146 57.0625 22.0833 57.0625 22.6562V28.5938C57.0625 28.8021 57.1146 28.9583 57.2188 29.0625C57.3229 29.1146 57.4792 29.1406 57.6875 29.1406H57.8438V29.6094H55.1875V29.1406H55.3438C55.5521 29.1406 55.7083 29.1146 55.8125 29.0625C55.9167 28.9583 55.9688 28.8021 55.9688 28.5938V22.7344C55.9688 22.1615 55.8906 21.7969 55.7344 21.6406C55.6302 21.4323 55.4479 21.3281 55.1875 21.3281C54.8229 21.3281 54.4844 21.4583 54.1719 21.7188C53.9115 21.9792 53.7031 22.3438 53.5469 22.8125V28.5938C53.5469 28.8021 53.599 28.9583 53.7031 29.0625C53.8073 29.1146 53.9635 29.1406 54.1719 29.1406H54.3281V29.6094H51.6719V29.1406H51.8281C52.0365 29.1406 52.1927 29.1146 52.2969 29.0625C52.401 28.9583 52.4531 28.8021 52.4531 28.5938V22.7344C52.4531 22.2656 52.401 21.9271 52.2969 21.7188C52.1927 21.4583 51.9844 21.3281 51.6719 21.3281C51.3073 21.3281 50.9688 21.4583 50.6562 21.7188C50.3958 21.9792 50.1875 22.3698 50.0312 22.8906V28.5938C50.0312 28.8021 50.0833 28.9583 50.1875 29.0625C50.2917 29.1146 50.4479 29.1406 50.6562 29.1406H50.8125V29.6094H48.1562V29.1406H48.3125C48.5208 29.1406 48.6771 29.1146 48.7812 29.0625C48.8854 28.9583 48.9375 28.8021 48.9375 28.5938V21.7969C48.9375 21.6406 48.9115 21.5365 48.8594 21.4844C48.8073 21.3802 48.7031 21.3281 48.5469 21.3281H48.2344V20.8594ZM61.125 28.4375C61.4375 28.75 61.8802 28.9062 62.4531 28.9062C63.0781 28.9062 63.599 28.75 64.0156 28.4375C64.4844 28.125 64.8229 27.6302 65.0312 26.9531V22.0312C65.0312 21.8229 64.9792 21.6667 64.875 21.5625C64.7708 21.4062 64.5885 21.3281 64.3281 21.3281H63.8594V20.8594H64.3281C64.6406 20.8594 64.9271 20.8333 65.1875 20.7812C65.4479 20.7292 65.7083 20.599 65.9688 20.3906H66.125V28.0469C66.125 28.2552 66.1771 28.4115 66.2812 28.5156C66.4375 28.6198 66.6198 28.6719 66.8281 28.6719H67.2969V29.1406H66.8281C66.5677 29.1406 66.3073 29.1927 66.0469 29.2969C65.7865 29.349 65.5 29.4531 65.1875 29.6094H65.0312V27.9688C64.7708 28.5417 64.3802 28.9844 63.8594 29.2969C63.3385 29.5573 62.7396 29.6875 62.0625 29.6875C61.2292 29.6875 60.6042 29.4531 60.1875 28.9844C59.7708 28.5156 59.5625 27.7604 59.5625 26.7188V22.0312C59.5625 21.8229 59.5104 21.6667 59.4062 21.5625C59.3021 21.4062 59.1198 21.3281 58.8594 21.3281H58.3906V20.8594H58.8594C59.1719 20.8594 59.4583 20.8333 59.7188 20.7812C59.9792 20.7292 60.2396 20.599 60.5 20.3906H60.6562V26.875C60.6562 27.6042 60.8125 28.125 61.125 28.4375ZM70.1875 24.1406C69.9792 23.8281 69.875 23.4896 69.875 23.125C69.875 22.3438 70.1615 21.7448 70.7344 21.3281C71.3594 20.9115 72.0885 20.7031 72.9219 20.7031C73.3906 20.7031 73.8333 20.7812 74.25 20.9375C74.6667 21.0417 74.9531 21.0938 75.1094 21.0938C75.2656 21.0938 75.3958 21.0677 75.5 21.0156C75.6042 20.9635 75.7344 20.8594 75.8906 20.7031L76.2031 23.2812L75.7344 23.3594C75.526 22.6823 75.1615 22.1615 74.6406 21.7969C74.1719 21.3802 73.625 21.1719 73 21.1719C72.3229 21.1719 71.776 21.3021 71.3594 21.5625C70.9948 21.8229 70.8125 22.1875 70.8125 22.6562C70.8125 23.0729 70.8906 23.4115 71.0469 23.6719C71.2552 23.8802 71.5938 24.0365 72.0625 24.1406C72.4271 24.2969 72.8698 24.4792 73.3906 24.6875C73.9635 24.8438 74.4844 25.026 74.9531 25.2344C75.3698 25.4427 75.7083 25.7292 75.9688 26.0938C76.2812 26.4062 76.4375 26.7708 76.4375 27.1875C76.4375 27.9688 76.151 28.5938 75.5781 29.0625C75.0573 29.4792 74.276 29.6875 73.2344 29.6875C72.5573 29.6875 72.0365 29.6354 71.6719 29.5312C71.3594 29.375 71.099 29.2969 70.8906 29.2969C70.7344 29.2969 70.5521 29.349 70.3438 29.4531C70.1875 29.5052 70.0052 29.5833 69.7969 29.6875L69.5625 26.7969L70.0312 26.7188C70.1875 27.5521 70.526 28.1771 71.0469 28.5938C71.5677 29.0104 72.2969 29.2188 73.2344 29.2188C73.9635 29.2188 74.5104 29.0885 74.875 28.8281C75.2917 28.5677 75.5 28.1771 75.5 27.6562C75.5 27.2917 75.3958 27.0052 75.1875 26.7969C74.9792 26.5365 74.7708 26.3542 74.5625 26.25C74.0417 26.0417 73.4688 25.8333 72.8438 25.625C72.2188 25.3646 71.6719 25.1302 71.2031 24.9219C70.7344 24.7135 70.3958 24.4531 70.1875 24.1406Z" fill="black"/>
<path d="M0.400991 26.2325C-0.0296946 22.5373 -0.228472 17.8671 0.400991 12.5467C0.781982 9.33055 1.37832 6.47364 2.05747 3.9931C5.53609 2.65873 10.0086 1.30726 15.3093 0.571651C21.9353 -0.35214 27.6336 -0.00999532 31.8741 0.571651C31.6588 1.46123 31.195 2.74427 30.2177 3.9931C27.8655 6.98686 24.3869 7.34611 23.5917 7.41454C21.7034 7.24347 19.4671 7.19215 16.9658 7.41454C13.6694 7.70537 10.87 8.40676 8.6834 9.12527C8.45149 11.0413 7.98768 13.4021 7.02692 15.9682C5.15509 20.9293 2.32251 24.3165 0.400991 26.2325Z" fill="#0D2B66"/>
<path d="M95.599 21.7675C96.0297 25.4626 96.2285 30.1329 95.599 35.4533C95.218 38.6694 94.6217 41.5263 93.9425 44.0069C90.4639 45.3412 85.9914 46.6927 80.6907 47.4283C74.0647 48.3521 68.3664 48.01 64.1259 47.4283C64.3412 46.5388 64.805 45.2557 65.7823 44.0069C68.1345 41.0131 71.6132 40.6539 72.4083 40.5854C74.2967 40.7565 76.5329 40.8078 79.0342 40.5854C82.3306 40.2946 85.13 39.5932 87.3166 38.8747C87.5485 36.9587 88.0123 34.5979 88.9731 32.0318C90.8449 27.0536 93.6775 23.6835 95.599 21.7675Z" fill="#0D2B66"/>
<path d="M11.9964 34.7861H84.2687" stroke="black" stroke-width="0.25" stroke-miterlimit="10" stroke-linecap="round" stroke-linejoin="round"/>
</svg>
