<svg width="35" height="37" viewBox="0 0 35 37" fill="none" xmlns="http://www.w3.org/2000/svg">
<path d="M33.3284 31.1492L25.175 22.4644C26.4461 20.2422 27.1165 17.6894 27.1125 15.0872C27.1125 7.23428 20.7241 0.431641 13.3518 0.431641C11.599 0.431339 9.86333 0.798856 8.24393 1.5132C6.62453 2.22754 5.15311 3.27472 3.91372 4.59491C2.67432 5.91511 1.69124 7.48245 1.02061 9.20743C0.34999 10.9324 0.00496578 12.7812 0.0052492 14.6482C0.0052492 22.4989 6.39371 29.3038 13.7638 29.3038C16.1262 29.306 18.4464 28.6364 20.4846 27.3641L28.681 36.0995C29.0665 36.5091 29.5887 36.739 30.1331 36.739C30.6775 36.739 31.1996 36.5091 31.5851 36.0995L33.6196 33.9323C34.4201 33.0797 34.1288 32.0019 33.3284 31.1492ZM4.1132 14.6482C4.11291 13.3557 4.35167 12.0758 4.81582 10.8816C5.27997 9.68739 5.96044 8.60228 6.81834 7.68823C7.67625 6.77417 8.6948 6.0491 9.81581 5.5544C10.9368 5.05971 12.1384 4.8051 13.3518 4.8051C18.4565 4.8051 23.0046 9.64738 23.0046 15.0872C23.004 17.6976 22.0302 20.2009 20.2974 22.0467C18.5645 23.8925 16.2145 24.9297 13.7638 24.9303C8.65912 24.928 4.1132 20.0835 4.1132 14.6482Z" fill="#222222"/>
</svg>
