<svg width="260" height="275" viewBox="0 0 260 275" fill="none" xmlns="http://www.w3.org/2000/svg">
<path d="M145.912 202.808L148.273 210.737L162.506 258.445L169.987 256.253L154.717 206.38L153.575 202.626L145.912 202.808Z" fill="#6B81BE"/>
<path d="M145.912 202.808L148.273 210.737L154.717 206.38L153.575 202.626L145.912 202.808Z" fill="#404B7C"/>
<path d="M151.747 202.808L149.387 210.737L135.146 258.445L127.672 256.253L142.942 206.38L144.084 202.626L151.747 202.808Z" fill="#6B81BE"/>
<path d="M151.747 202.808L149.387 210.737L142.942 206.38L144.084 202.626L151.747 202.808Z" fill="#404B7C"/>
<path d="M235.039 202.808L237.406 210.737L251.64 258.445L259.114 256.253L243.844 206.38L242.702 202.626L235.039 202.808Z" fill="#6B81BE"/>
<path d="M235.039 202.808L237.406 210.737L243.844 206.38L242.702 202.626L235.039 202.808Z" fill="#404B7C"/>
<path d="M240.874 202.808L238.513 210.737L224.28 258.445L216.799 256.253L232.069 206.38L233.218 202.626L240.874 202.808Z" fill="#6B81BE"/>
<path d="M240.874 202.808L238.513 210.737L232.069 206.38L233.218 202.626L240.874 202.808Z" fill="#404B7C"/>
<path d="M252.438 206.093L137.156 204.272V184.022L252.438 182.2V206.093Z" fill="#F68D88"/>
<path d="M137.156 184.022V194.255L145.947 183.882L137.156 184.022Z" fill="#6B81BE"/>
<path d="M162.527 183.622L144.49 204.384L157.26 204.587L176.025 183.405L162.527 183.622Z" fill="#6B81BE"/>
<path d="M194.202 183.118L174.428 204.86L188.423 205.084L209.038 182.887L194.202 183.118Z" fill="#6B81BE"/>
<path d="M229.05 182.572L207.28 205.379L222.676 205.624L245.42 182.312L229.05 182.572Z" fill="#6B81BE"/>
<path d="M252.438 197.029L243.479 205.953L252.438 206.093V197.029Z" fill="#6B81BE"/>
<path d="M136.134 270.29C134.801 270.257 133.506 269.843 132.4 269.099C130.74 270.038 128.268 270.381 125.242 268.917C125.179 268.878 125.133 268.817 125.113 268.746C125.093 268.675 125.099 268.599 125.131 268.532C125.163 268.466 125.218 268.413 125.287 268.385C125.355 268.356 125.431 268.354 125.501 268.378C128.184 269.681 130.404 269.457 131.896 268.693C131.304 268.157 130.932 267.421 130.852 266.627C130.799 266.122 130.888 265.612 131.108 265.154C131.328 264.696 131.671 264.309 132.099 264.035C132.384 263.866 132.714 263.787 133.044 263.807C133.375 263.827 133.693 263.945 133.955 264.147C134.901 264.848 135.034 266.087 134.285 267.32C133.936 267.871 133.481 268.347 132.947 268.721C133.339 268.963 133.757 269.161 134.194 269.31C136.295 270.052 138.172 269.604 139.335 268.091C139.694 267.619 139.956 267.081 140.105 266.508C139.725 266.434 139.352 266.324 138.992 266.179C136.939 265.359 136.778 264.196 136.806 263.734C136.828 263.411 136.949 263.103 137.154 262.852C137.359 262.601 137.636 262.419 137.948 262.333C138.402 262.246 138.872 262.306 139.289 262.505C139.706 262.704 140.049 263.032 140.267 263.44C140.751 264.204 140.945 265.116 140.813 266.01C143.727 266.249 145.905 263.951 145.926 263.909C145.981 263.851 146.057 263.816 146.137 263.814C146.217 263.811 146.295 263.84 146.354 263.895C146.412 263.95 146.446 264.026 146.449 264.106C146.452 264.186 146.422 264.264 146.368 264.322C146.368 264.322 143.93 266.872 140.708 266.592C140.543 267.268 140.24 267.902 139.818 268.455C139.395 269.032 138.839 269.5 138.198 269.819C137.557 270.138 136.85 270.3 136.134 270.29ZM132.947 264.399C132.752 264.402 132.561 264.455 132.393 264.553C132.065 264.768 131.803 265.069 131.637 265.425C131.471 265.78 131.408 266.174 131.455 266.564C131.493 266.914 131.6 267.253 131.77 267.562C131.939 267.871 132.168 268.143 132.442 268.364C132.979 268.013 133.434 267.549 133.773 267.005C134.229 266.249 134.425 265.226 133.605 264.624C133.418 264.481 133.189 264.402 132.954 264.399H132.947ZM138.389 262.886C138.294 262.888 138.2 262.902 138.109 262.928C137.917 262.982 137.747 263.093 137.622 263.248C137.496 263.402 137.422 263.591 137.409 263.79C137.374 264.49 138.046 265.191 139.216 265.646C139.54 265.776 139.875 265.874 140.218 265.94C140.329 265.193 140.17 264.43 139.769 263.79C139.629 263.54 139.432 263.328 139.193 263.171C138.954 263.014 138.681 262.916 138.396 262.886H138.389Z" fill="#D2E4F0"/>
<path d="M212.456 262.774C211.58 262.774 208.856 262.606 207.034 260.596C206.455 260.983 205.801 261.245 205.115 261.366C202.958 261.745 201.052 260.666 199.876 258.466C199.586 257.941 199.372 257.377 199.238 256.792C197.382 256.358 195.33 254.936 194.097 251.812C194.079 251.775 194.07 251.734 194.068 251.693C194.067 251.652 194.075 251.61 194.09 251.572C194.105 251.534 194.128 251.499 194.158 251.47C194.187 251.441 194.222 251.418 194.261 251.403C194.299 251.388 194.34 251.382 194.382 251.383C194.423 251.385 194.463 251.395 194.501 251.413C194.538 251.431 194.571 251.456 194.598 251.488C194.625 251.519 194.645 251.556 194.657 251.595C195.75 254.397 197.522 255.7 199.147 256.155C199.076 255.359 199.303 254.565 199.785 253.927C200.087 253.521 200.498 253.207 200.969 253.02C201.44 252.833 201.954 252.781 202.453 252.87C202.778 252.939 203.074 253.105 203.304 253.344C203.534 253.584 203.687 253.887 203.742 254.215C203.973 255.363 203.224 256.372 201.837 256.778C201.204 256.955 200.542 257.003 199.89 256.918C200.014 257.364 200.187 257.794 200.408 258.2C201.452 260.169 203.126 261.114 205.01 260.785C205.593 260.683 206.15 260.466 206.649 260.148C206.42 259.836 206.22 259.502 206.054 259.153C205.101 257.164 205.774 256.197 206.103 255.868C206.337 255.64 206.637 255.492 206.96 255.444C207.283 255.396 207.613 255.451 207.903 255.602C208.297 255.845 208.602 256.208 208.774 256.638C208.946 257.069 208.974 257.543 208.856 257.99C208.692 258.879 208.214 259.679 207.511 260.246C209.507 262.389 212.652 262.179 212.687 262.179C212.767 262.173 212.846 262.2 212.906 262.252C212.967 262.305 213.004 262.379 213.009 262.459C213.015 262.539 212.988 262.618 212.936 262.678C212.883 262.739 212.809 262.776 212.729 262.781H212.449L212.456 262.774ZM207.16 256.015C206.915 256.014 206.678 256.109 206.502 256.281C206.005 256.764 206.033 257.738 206.572 258.873C206.723 259.188 206.903 259.488 207.111 259.769C207.701 259.296 208.101 258.628 208.239 257.885C208.334 257.562 208.323 257.217 208.21 256.9C208.097 256.583 207.886 256.31 207.609 256.12C207.47 256.05 207.316 256.014 207.16 256.015ZM199.75 256.281C200.382 256.386 201.03 256.353 201.648 256.183C202.495 255.931 203.336 255.314 203.133 254.313C203.1 254.098 203.001 253.899 202.851 253.742C202.7 253.586 202.505 253.479 202.292 253.437C201.906 253.372 201.509 253.416 201.146 253.565C200.783 253.713 200.47 253.96 200.24 254.278C200.033 254.564 199.886 254.889 199.805 255.232C199.724 255.576 199.713 255.933 199.771 256.281H199.75Z" fill="#D2E4F0"/>
<path d="M229.169 252.653H228.805C228.726 252.649 228.652 252.615 228.598 252.557C228.545 252.499 228.516 252.423 228.517 252.344C228.518 252.305 228.527 252.267 228.543 252.231C228.559 252.195 228.582 252.163 228.611 252.136C228.64 252.109 228.674 252.088 228.71 252.075C228.747 252.061 228.786 252.055 228.826 252.057C231.291 252.141 232.916 251.259 233.827 250.18C233.202 249.953 232.678 249.511 232.349 248.933C232.132 248.551 232.024 248.117 232.039 247.678C232.054 247.239 232.19 246.813 232.433 246.447C232.601 246.21 232.837 246.029 233.109 245.928C233.382 245.827 233.678 245.81 233.96 245.879C234.955 246.096 235.501 247.042 235.361 248.282C235.286 248.82 235.108 249.339 234.836 249.809C235.201 249.847 235.57 249.847 235.935 249.809C237.806 249.669 239.094 248.695 239.438 247.14C239.548 246.682 239.572 246.206 239.508 245.739C239.199 245.807 238.885 245.847 238.569 245.858C236.671 245.928 236.131 245.053 235.984 244.674C235.889 244.405 235.878 244.114 235.953 243.838C236.028 243.563 236.186 243.317 236.405 243.133C236.735 242.903 237.13 242.785 237.532 242.796C237.935 242.807 238.323 242.948 238.639 243.196C239.276 243.617 239.743 244.25 239.956 244.983C240.68 244.667 241.335 244.21 241.881 243.639C242.427 243.068 242.854 242.393 243.136 241.655C243.146 241.615 243.165 241.577 243.191 241.544C243.216 241.512 243.248 241.484 243.285 241.465C243.322 241.445 243.362 241.433 243.404 241.43C243.445 241.426 243.487 241.432 243.526 241.445C243.566 241.459 243.602 241.48 243.632 241.509C243.663 241.537 243.687 241.571 243.704 241.61C243.721 241.648 243.729 241.689 243.729 241.731C243.729 241.772 243.72 241.813 243.703 241.852C243.703 241.852 242.695 244.653 240.096 245.564C240.189 246.142 240.165 246.733 240.026 247.301C239.578 249.122 238.093 250.264 235.949 250.425C235.446 250.47 234.94 250.446 234.443 250.355C233.505 251.567 231.803 252.653 229.169 252.653ZM233.603 246.426C233.465 246.425 233.33 246.458 233.208 246.521C233.086 246.585 232.981 246.677 232.902 246.79C232.727 247.062 232.63 247.378 232.623 247.701C232.615 248.025 232.698 248.345 232.86 248.625C233.15 249.128 233.625 249.498 234.184 249.655C234.469 249.211 234.655 248.712 234.73 248.191C234.822 247.49 234.632 246.629 233.82 246.447C233.746 246.432 233.671 246.425 233.596 246.426H233.603ZM237.385 243.372C237.169 243.366 236.958 243.438 236.79 243.575C236.665 243.675 236.574 243.812 236.532 243.967C236.489 244.122 236.496 244.286 236.552 244.436C236.755 244.969 237.49 245.263 238.548 245.235C238.826 245.224 239.103 245.189 239.375 245.13C239.203 244.541 238.832 244.03 238.324 243.687C238.044 243.496 237.717 243.387 237.378 243.372H237.385Z" fill="#D2E4F0"/>
<path d="M232.734 260.176L247.605 260.953L247.143 265.373L230.731 264.007L232.734 260.176Z" fill="#ECBDBB"/>
<path d="M256.718 259.083L247.143 265.373L247.605 260.953L256.718 257.353V259.083Z" fill="#F68D88"/>
<path d="M232.734 260.176L249.517 256.071L256.718 257.353L247.605 260.953L232.734 260.176Z" fill="#F9D4D4"/>
<path d="M208.751 266.928L206.194 268.931L207.931 270.122L219.145 269.933L221.702 267.748L219.783 266.291L208.751 266.928Z" fill="#F68D88"/>
<path d="M208.295 265.835L208.751 266.928L206.194 268.931L206.922 266.473L208.295 265.835Z" fill="#ECBDBB"/>
<path d="M219.783 266.291L217.597 265.282L208.295 265.835L208.75 266.928L219.783 266.291Z" fill="#F9D4D4"/>
<path d="M193.887 242.881L203.553 245.977L217.534 244.219L207.567 241.845L193.887 242.881Z" fill="#F9D4D4"/>
<path d="M203 247.925L203.553 245.977L217.534 244.219L217.107 246.405L203 247.925Z" fill="#F68D88"/>
<path d="M193.852 242.881L192.514 245.13C192.514 245.13 202.853 248.051 202.972 247.932C203.194 247.294 203.377 246.644 203.518 245.984L193.852 242.881Z" fill="#ECBDBB"/>
<path d="M174.239 246.04C174.239 246.04 172.964 248.415 173.146 248.415L186.217 248.597L182.75 246.103L174.239 246.04Z" fill="#F68D88"/>
<path d="M177.041 244.702L182.455 245.004L182.756 246.103L174.246 246.04L177.041 244.702Z" fill="#F9D4D4"/>
<path d="M186.224 248.597L182.455 245.004L182.757 246.103L186.224 248.597Z" fill="#ECBDBB"/>
<path d="M149.163 258.495L154.815 262.872L165.644 262.018L165.336 258.067L161.75 257.402L149.163 258.495Z" fill="#F9D4D4"/>
<path d="M148.917 260.806L149.162 258.495L154.815 262.872L154.941 265.24L148.917 260.806Z" fill="#F68D88"/>
<path d="M165.644 262.018L154.815 262.872L154.941 265.24L165.455 264.511L165.644 262.018Z" fill="#ECBDBB"/>
<path d="M247.521 38.1019H136.106C133.495 38.1019 131.378 40.2187 131.378 42.83V115.818C131.378 118.429 133.495 120.546 136.106 120.546H247.521C250.132 120.546 252.249 118.429 252.249 115.818V42.83C252.249 40.2187 250.132 38.1019 247.521 38.1019Z" fill="#9AB3DA"/>
<path d="M199.322 38.1019H185.432L173.335 60.2294L153.757 70.5682L153.148 73.4891L149.015 79.5691L148.042 93.4312L131.378 99.9595V107.51L167.374 94.643L199.322 38.1019Z" fill="#F9D4D4"/>
<path d="M153.148 73.4891L157.218 77.3206L153.758 70.5682L153.148 73.4891Z" fill="#F68D88"/>
<path d="M148.042 93.4312L151.019 98.4745L157.218 77.3206L149.015 79.5691L148.042 93.4312Z" fill="#ECBDBB"/>
<path d="M153.757 70.5682C153.757 70.5682 157.162 77.1315 157.225 77.3206C157.288 77.5097 174.554 62.73 174.554 62.73L173.335 60.2364L153.757 70.5682Z" fill="#ECBDBB"/>
<path d="M151.019 98.4745L148.042 93.4312L131.378 99.9595V100.401L147.187 95.6797L151.019 98.4745Z" fill="#F9D4D4"/>
<path d="M136.302 120.581H247.325C248.625 120.581 249.872 120.064 250.792 119.145C251.711 118.225 252.228 116.978 252.228 115.678V43.0261C252.228 41.7257 251.711 40.4785 250.792 39.559C249.872 38.6395 248.625 38.1229 247.325 38.1229H190.49L174.547 62.723L157.218 77.3206L151.019 98.4815L131.406 107.265V115.629C131.399 116.276 131.521 116.918 131.764 117.519C132.007 118.119 132.367 118.665 132.822 119.125C133.277 119.586 133.819 119.951 134.416 120.201C135.014 120.451 135.655 120.58 136.302 120.581Z" fill="#F68D88"/>
<path d="M203.371 35.9094L257.18 98.8387L252.62 109.241L190.237 37.1913L203.371 35.9094Z" fill="#9AB3DA"/>
<path d="M205.535 38.4451L201.655 50.3809L207.343 56.9442L211.202 45.0714L205.535 38.4451Z" fill="#6B81BE"/>
<path d="M218.662 53.7922L214.823 65.5879L220.511 72.1582L224.329 60.4185L218.662 53.7922Z" fill="#6B81BE"/>
<path d="M231.789 69.1462L227.999 80.8019L233.687 87.3722L237.455 75.7726L231.789 69.1462Z" fill="#6B81BE"/>
<path d="M244.915 84.5003L241.168 96.0159L246.855 102.586L250.582 91.1266L244.915 84.5003Z" fill="#6B81BE"/>
<path d="M129.409 100.534C129.409 100.534 197.851 97.8581 254.329 105.437L252.494 118.543C252.494 118.543 174.043 110.459 129.578 112.631L129.409 100.534Z" fill="#9AB3DA"/>
<path d="M140.21 100.268L146.585 112.302C149.349 112.302 152.165 112.325 155.032 112.372L148.56 100.149C145.443 100.163 142.648 100.205 140.21 100.268Z" fill="#6B81BE"/>
<path d="M129.409 100.534L129.578 112.652C131.581 112.554 133.647 112.477 135.777 112.421L129.472 100.513H129.409V100.534Z" fill="#6B81BE"/>
<path d="M159.613 100.079L166.253 112.617C169.102 112.706 171.962 112.811 174.834 112.932L168.047 100.114C165.133 100.093 162.331 100.086 159.613 100.079Z" fill="#6B81BE"/>
<path d="M179.219 100.268L186.224 113.457C189.138 113.611 192.038 113.773 194.896 113.948L187.765 100.478C184.846 100.403 181.998 100.333 179.219 100.268Z" fill="#6B81BE"/>
<path d="M199.035 100.898L206.348 114.704C209.346 114.907 212.267 115.117 215.097 115.328L207.672 101.318C204.763 101.155 201.884 101.015 199.035 100.898Z" fill="#6B81BE"/>
<path d="M219.215 101.998L226.773 116.245C229.939 116.504 232.888 116.756 235.585 116.988L227.999 102.656C225.057 102.418 222.129 102.199 219.215 101.998Z" fill="#6B81BE"/>
<path d="M253.216 113.317L248.67 104.737C245.709 104.377 242.727 104.043 239.725 103.735L247.304 118.052C250.61 118.368 252.473 118.564 252.473 118.564L253.216 113.317Z" fill="#6B81BE"/>
<path d="M197.298 92.0933H165.658C165.333 92.0907 165.014 92.0009 164.735 91.8334C164.456 91.6658 164.227 91.4266 164.072 91.1406C163.917 90.8546 163.841 90.5322 163.853 90.207C163.864 89.8818 163.963 89.5656 164.138 89.2914L179.962 65.5809C180.129 65.3324 180.355 65.1288 180.619 64.9881C180.884 64.8474 181.178 64.7737 181.478 64.7737C181.778 64.7737 182.073 64.8474 182.337 64.9881C182.601 65.1288 182.827 65.3324 182.995 65.5809L198.818 89.2914C198.993 89.5656 199.092 89.8818 199.103 90.207C199.115 90.5322 199.039 90.8546 198.884 91.1406C198.729 91.4266 198.5 91.6658 198.221 91.8334C197.942 92.0009 197.623 92.0907 197.298 92.0933ZM169.062 88.4439H193.887L181.475 69.8397L169.062 88.4439Z" fill="white"/>
<path d="M181.482 82.8473C181.146 82.8477 180.823 82.7194 180.579 82.4887C180.335 82.258 180.19 81.9426 180.172 81.6074L179.877 76.0808C179.866 75.8632 179.899 75.6455 179.975 75.4411C180.05 75.2367 180.166 75.0498 180.316 74.8918C180.467 74.7339 180.647 74.6081 180.848 74.5223C181.048 74.4365 181.264 74.3924 181.482 74.3927C181.699 74.3924 181.915 74.4365 182.115 74.5223C182.316 74.6081 182.496 74.7339 182.647 74.8918C182.797 75.0498 182.913 75.2367 182.988 75.4411C183.064 75.6455 183.097 75.8632 183.086 76.0808L182.791 81.6074C182.773 81.9426 182.628 82.258 182.384 82.4887C182.14 82.7194 181.817 82.8477 181.482 82.8473Z" fill="white"/>
<path d="M181.482 87.05C182.255 87.05 182.883 86.4228 182.883 85.6491C182.883 84.8754 182.255 84.2482 181.482 84.2482C180.708 84.2482 180.081 84.8754 180.081 85.6491C180.081 86.4228 180.708 87.05 181.482 87.05Z" fill="white"/>
<path d="M139.496 46.3743C140.521 46.3743 141.352 45.5432 141.352 44.5181C141.352 43.4929 140.521 42.6619 139.496 42.6619C138.471 42.6619 137.64 43.4929 137.64 44.5181C137.64 45.5432 138.471 46.3743 139.496 46.3743Z" fill="#ECBDBB"/>
<path d="M147.096 46.3743C148.121 46.3743 148.952 45.5432 148.952 44.5181C148.952 43.4929 148.121 42.6619 147.096 42.6619C146.071 42.6619 145.24 43.4929 145.24 44.5181C145.24 45.5432 146.071 46.3743 147.096 46.3743Z" fill="white"/>
<path d="M154.696 46.3743C155.721 46.3743 156.552 45.5432 156.552 44.5181C156.552 43.4929 155.721 42.6619 154.696 42.6619C153.671 42.6619 152.84 43.4929 152.84 44.5181C152.84 45.5432 153.671 46.3743 154.696 46.3743Z" fill="#6B81BE"/>
<path d="M93.623 27.637C93.5682 27.6374 93.5143 27.6229 93.4671 27.5949C93.42 27.5669 93.3813 27.5267 93.3554 27.4784C93.3294 27.4301 93.3172 27.3756 93.3199 27.3209C93.3226 27.2661 93.3402 27.2132 93.3708 27.1677C93.7841 26.5373 97.1533 21.4239 98.176 20.1631C97.5551 19.7393 97.0104 19.2135 96.5649 18.6081C96.3408 18.1178 95.8644 16.2335 96.3688 15.442C96.4366 15.3301 96.5323 15.2378 96.6464 15.1739C96.7606 15.1101 96.8894 15.077 97.0202 15.0778C98.1339 15.0778 101.048 16.8709 101.076 16.8919C101.104 16.913 101.426 17.1301 101.139 18.426C101.124 18.4958 101.084 18.5579 101.027 18.6011C101.027 18.6011 99.787 19.5327 99.0936 20.1001C99.6269 20.4963 100.2 20.8367 100.803 21.1157C101.533 20.4559 102.177 19.7077 102.722 18.8883L102.225 16.969C101.967 16.8563 101.718 16.7228 101.482 16.5697C100.505 15.8032 99.6146 14.9318 98.8274 13.971C98.6453 14.0131 98.4631 14.0457 98.281 14.0691L96.8801 14.2652C94.3444 14.6435 91.9769 15.0007 90.8772 13.5648C90.6602 13.3482 90.5135 13.0714 90.456 12.7703C90.3986 12.4693 90.433 12.1579 90.555 11.8767C90.9542 11.0921 92.2291 10.6649 94.0573 10.7139H94.2884C95.0379 10.7139 95.8224 10.7489 96.5929 10.7139C96.1726 9.85233 96.0045 9.09583 96.2847 8.61252C96.3477 8.50571 96.4317 8.41278 96.5316 8.33934C96.6316 8.2659 96.7453 8.21348 96.8661 8.18524C95.6053 7.13455 94.6737 6.08386 94.4915 5.2363C94.1763 3.83538 94.3164 1.39778 95.6123 0.410134C96.1306 0.0108723 97.0622 -0.290329 98.5122 0.466167C99.5996 1.07333 100.504 1.96108 101.132 3.03686C101.756 2.89205 102.408 2.92112 103.016 3.12091C103.353 3.22224 103.672 3.37588 103.962 3.57621C105.181 2.6516 107.289 1.52386 109.292 1.77603C111.141 2.00018 113.11 3.96847 113.691 6.16091C113.947 6.91243 113.955 7.7261 113.714 8.4825C113.473 9.2389 112.996 9.89821 112.353 10.3637C111.529 10.9439 110.558 11.2791 109.551 11.3303C109.551 11.5334 109.551 11.7366 109.509 11.9467C111.331 11.2462 113.873 11.1552 114.784 12.1078C115.358 12.7102 115.099 13.992 114.083 15.5471C113.293 16.7597 112.28 17.8124 111.099 18.6501C112.192 19.9249 113.082 21.2068 112.907 22.3976C112.493 25.1994 110.035 25.5636 107.436 25.5146C104.837 25.4656 103.352 20.9896 102.939 19.6448C102.498 20.2331 102.092 20.7165 101.804 21.0457C101.209 21.6901 100.971 21.7952 100.754 21.7461C99.9974 21.4357 99.2897 21.0181 98.6523 20.5063C97.9518 21.3819 95.4932 25.0453 93.8681 27.5109C93.8402 27.5499 93.8035 27.5817 93.7608 27.6037C93.7182 27.6256 93.6709 27.637 93.623 27.637ZM103.373 19.0143V19.1054C103.794 20.7024 105.349 24.8562 107.408 24.8982C110.091 24.9612 111.947 24.541 112.269 22.2995C112.409 21.3259 111.569 20.1561 110.539 18.9653C110.016 19.318 109.421 19.5511 108.798 19.648C108.174 19.7448 107.537 19.7031 106.932 19.5257C106.574 19.3964 106.251 19.1872 105.986 18.9141C105.721 18.641 105.523 18.3112 105.405 17.9496C105.04 17.8726 104.662 17.7815 104.27 17.6765C103.99 18.1528 103.682 18.6081 103.373 19.0143ZM97.0272 15.6451C96.9972 15.6432 96.9672 15.6502 96.9411 15.6651C96.9149 15.6801 96.8937 15.7023 96.8801 15.7292C96.5859 16.1845 96.8801 17.7465 97.1183 18.3209C97.5354 18.8571 98.0314 19.3271 98.5892 19.7148C99.1706 19.2315 100.249 18.419 100.565 18.1738C100.637 17.899 100.679 17.6171 100.691 17.3332C100.151 16.997 97.7977 15.6591 97.0272 15.6591V15.6451ZM106.133 18.0897C106.349 18.4935 106.709 18.8011 107.142 18.9513C107.645 19.0907 108.173 19.1222 108.689 19.0437C109.206 18.9652 109.7 18.7786 110.14 18.496L109.727 18.0337C109.278 17.5364 108.837 17.0461 108.459 16.5697C108.143 17.5154 107.758 18.2648 107.408 18.2648C106.987 18.2396 106.568 18.1858 106.154 18.1037L106.133 18.0897ZM102.897 17.2422L103.163 18.2508L103.682 17.4943C103.429 17.4383 103.163 17.3543 102.918 17.2632L102.897 17.2422ZM108.676 15.8413C109.096 16.4086 109.642 17.011 110.175 17.6064L110.665 18.1528C111.812 17.3633 112.791 16.3538 113.544 15.1828C114.469 13.7819 114.588 12.7803 114.301 12.4861C113.6 11.7506 111.134 11.7856 109.397 12.5911C109.278 13.4247 109.103 14.2232 108.97 14.7555C108.893 15.1548 108.795 15.512 108.69 15.8763L108.676 15.8413ZM105.874 17.4033C106.353 17.5066 106.837 17.5837 107.324 17.6344C107.633 17.1087 107.869 16.5431 108.024 15.9533C107.662 15.474 107.422 14.9139 107.324 14.3213C107.233 13.5087 107.779 12.7592 108.865 12.2199C108.9 11.9187 108.928 11.6245 108.935 11.3443C108.338 11.341 107.743 11.2871 107.156 11.1832C106.845 11.7846 106.582 12.41 106.371 13.0534C106.354 13.6677 106.201 14.2706 105.923 14.8186C105.783 15.5336 105.752 16.2658 105.832 16.99C105.845 17.1405 105.866 17.2902 105.895 17.4383L105.874 17.4033ZM104.62 17.1161L105.23 17.2632C105.23 17.1931 105.23 17.1161 105.23 17.0461C105.193 16.7791 105.174 16.51 105.174 16.2405C104.998 16.5697 104.823 16.8639 104.641 17.1511L104.62 17.1161ZM102.869 16.5697C103.226 16.7098 103.619 16.8359 104.018 16.948C104.482 16.235 104.901 15.4933 105.272 14.7275C105.376 14.1269 105.523 13.5346 105.713 12.9554C105.609 12.7146 105.451 12.5012 105.251 12.332C105.063 12.3608 104.871 12.3608 104.683 12.332L104.347 12.2689C104.084 13.7819 103.592 15.2461 102.89 16.6118L102.869 16.5697ZM99.4508 13.7679C100.146 14.6119 100.933 15.3755 101.797 16.0444C101.963 16.152 102.136 16.248 102.316 16.3316C103.021 15.0172 103.51 13.5982 103.766 12.1288C103.471 12.0378 103.163 11.9327 102.841 11.8066C101.851 12.6749 100.709 13.3518 99.4718 13.8029L99.4508 13.7679ZM108.725 12.9554C108.481 13.0762 108.274 13.2614 108.127 13.491C107.98 13.7205 107.899 13.9858 107.891 14.2582C107.942 14.5864 108.059 14.9009 108.235 15.1828C108.438 14.5174 108.613 13.7469 108.739 12.9904L108.725 12.9554ZM93.8191 11.3093C92.4182 11.3093 91.3675 11.6315 91.1013 12.1498C91.0402 12.332 91.0328 12.528 91.08 12.7143C91.1272 12.9006 91.227 13.0694 91.3675 13.2005C92.2291 14.3353 94.4495 13.999 96.8031 13.6488L98.204 13.4457H98.3861C97.84 12.7828 97.3436 12.0804 96.9011 11.3443C96.0185 11.3863 95.122 11.3443 94.2674 11.3443H93.8121L93.8191 11.3093ZM97.5806 11.2743C98.0295 11.9714 98.5208 12.6405 99.0515 13.2776C100.212 12.9057 101.292 12.3162 102.232 11.5404C101.629 11.2743 100.999 10.9521 100.375 10.5948C99.4897 10.993 98.5418 11.2348 97.5736 11.3093L97.5806 11.2743ZM105.874 12.1498L105.993 12.2829L106.133 11.9397C106.055 12.019 105.968 12.0894 105.874 12.1498ZM104.592 11.0851C104.876 11.2789 105.149 11.487 105.412 11.7085C105.561 11.6316 105.693 11.5238 105.798 11.3922C105.903 11.2606 105.979 11.1082 106.021 10.945C105.566 10.826 105.111 10.6859 104.669 10.5318C104.648 10.7209 104.62 10.903 104.592 11.0921V11.0851ZM103.359 11.3863L103.892 11.5615L103.927 11.3443L103.605 11.1412L103.359 11.3863ZM100.971 10.2866C101.542 10.6012 102.129 10.8864 102.729 11.1412L103.072 10.826C102.554 10.5248 101.993 10.2306 101.419 9.9644C101.276 10.0826 101.126 10.1925 100.971 10.2936V10.2866ZM107.457 10.6088C107.941 10.6854 108.431 10.7252 108.921 10.7279C108.921 10.6158 108.921 10.5108 108.921 10.4127C108.927 10.2579 108.901 10.1035 108.843 9.95975C108.785 9.81604 108.697 9.6863 108.585 9.57915C108.528 9.57112 108.471 9.57575 108.416 9.59271C108.362 9.60967 108.312 9.63853 108.27 9.67721C107.943 9.93451 107.668 10.2505 107.457 10.6088ZM108.508 8.96275C108.625 8.96216 108.741 8.99106 108.844 9.0468C109.299 9.28495 109.488 9.92237 109.544 10.7069C110.417 10.6721 111.264 10.3956 111.989 9.90837C112.523 9.50888 112.917 8.95177 113.117 8.31575C113.317 7.67974 113.312 6.99701 113.103 6.36404C112.591 4.42377 110.812 2.61658 109.215 2.42045C107.485 2.21031 105.643 3.12091 104.452 4.0175C105.27 4.87903 105.897 5.90308 106.293 7.02303C106.689 8.14297 106.844 9.33371 106.75 10.5178H106.841C107.105 10.0168 107.464 9.57198 107.898 9.20791C108.074 9.07323 108.287 8.99725 108.508 8.99077V8.96275ZM97.4195 8.72459C97.3091 8.70444 97.1955 8.7111 97.0882 8.74401C96.9809 8.77693 96.8831 8.83512 96.8031 8.91371C96.6069 9.26394 96.8031 9.92237 97.2373 10.6999C98.085 10.6578 98.9223 10.4951 99.724 10.2166C98.9674 9.7607 98.2356 9.26501 97.5315 8.73159H97.4125L97.4195 8.72459ZM101.853 9.5021C102.599 9.85768 103.324 10.2552 104.025 10.6929C104.025 10.5598 104.06 10.4197 104.081 10.2936C103.358 10.0109 102.656 9.67851 101.979 9.29896C101.942 9.37835 101.9 9.45553 101.853 9.53012V9.5021ZM104.739 9.90837C105.195 10.0765 105.671 10.2236 106.14 10.3497C106.219 9.25372 106.065 8.15354 105.688 7.12136C105.312 6.08918 104.721 5.14837 103.955 4.36073C103.62 4.59587 103.345 4.90511 103.149 5.26432C103.149 5.73363 104.193 7.02947 104.641 7.47076C104.844 7.6739 104.893 8.64053 104.739 9.90837ZM98.8624 8.98376C99.3457 9.31297 99.8571 9.63519 100.368 9.93638C100.516 9.85808 100.658 9.77155 100.796 9.67721C100.167 9.40762 99.5213 9.18062 98.8624 8.99777V8.98376ZM102.239 8.75961C102.855 9.10913 103.494 9.41799 104.151 9.68422C104.236 9.08086 104.25 8.46966 104.193 7.86302C103.955 7.61086 102.561 6.08386 102.561 5.25731C102.697 4.74041 103.019 4.29166 103.464 3.99648C103.269 3.87946 103.06 3.78767 102.841 3.72331C102.39 3.57547 101.909 3.53706 101.44 3.61123C101.938 4.55946 102.263 5.5889 102.4 6.65123C102.499 7.36204 102.444 8.08599 102.239 8.77362V8.75961ZM97.7207 8.15722H97.8467C99.0353 8.36313 100.19 8.73078 101.279 9.24993C101.348 9.16949 101.409 9.08272 101.461 8.99077C101.113 8.78196 100.78 8.54785 100.466 8.29031C99.9185 7.7797 99.5487 7.1069 99.4113 6.37065C99.2739 5.63441 99.3761 4.87349 99.703 4.19962C99.9001 3.82795 100.196 3.51774 100.558 3.30303C99.9901 2.35453 99.1833 1.57187 98.218 1.03354C97.2794 0.536217 96.5229 0.501193 95.9625 0.928473C94.9959 1.67096 94.7437 3.69529 95.0659 5.13123C95.248 5.92975 96.3057 7.0575 97.7277 8.16422L97.7207 8.15722ZM100.866 3.81437C100.598 3.97379 100.38 4.20409 100.235 4.4798C99.9704 5.03234 99.8887 5.65499 100.002 6.25717C100.115 6.85935 100.418 7.40965 100.866 7.828C101.129 8.05032 101.408 8.25395 101.699 8.4374C101.838 7.87393 101.869 7.28925 101.79 6.71427C101.66 5.70424 101.346 4.72638 100.866 3.82838V3.81437Z" fill="#F68D88"/>
<path d="M14.0508 115.222C13.6242 115.196 13.2093 115.073 12.8378 114.862C12.4663 114.65 12.148 114.357 11.9074 114.004C11.1341 113.03 10.6359 111.866 10.4644 110.634C9.83313 110.532 9.24205 110.258 8.7553 109.843C8.48251 109.622 8.24613 109.36 8.05484 109.065C6.57687 109.458 4.20232 109.696 2.45117 108.708C0.826101 107.798 -0.245603 105.206 0.0485905 102.978C0.100613 102.195 0.399878 101.448 0.903342 100.845C1.40681 100.242 2.08852 99.8142 2.85043 99.6232C3.83992 99.4002 4.87245 99.4634 5.82738 99.8054C5.91144 99.6232 6.0025 99.4341 6.10056 99.252C4.15328 99.203 1.76472 98.3274 1.2814 97.1016C0.980203 96.3311 1.70167 95.2384 3.22167 94.1807C4.41518 93.3586 5.75313 92.7693 7.16526 92.4435C6.63992 90.8535 6.30369 89.3265 6.91309 88.2898C8.37706 85.8242 10.7796 86.4476 13.1612 87.4913C15.5428 88.535 15.2205 93.228 15.0875 94.629C15.7179 94.2577 16.2782 93.9285 16.6635 93.7744C17.462 93.4032 17.7212 93.3962 17.9033 93.5222C18.4783 94.0942 18.9689 94.7452 19.3603 95.4555C20.3409 94.9162 24.0113 92.4575 26.4489 90.7975C26.4814 90.7713 26.5189 90.7522 26.5591 90.7414C26.5993 90.7305 26.6414 90.7281 26.6826 90.7343C26.7238 90.7405 26.7632 90.7551 26.7985 90.7774C26.8337 90.7996 26.8639 90.8289 26.8873 90.8634C26.9106 90.8979 26.9265 90.9369 26.934 90.9779C26.9415 91.0189 26.9404 91.061 26.9308 91.1015C26.9212 91.1421 26.9033 91.1802 26.8783 91.2134C26.8532 91.2467 26.8215 91.2744 26.7851 91.2948C26.1617 91.7221 21.0974 95.1683 19.6615 95.9738C20.0733 96.6003 20.3764 97.2918 20.558 98.0192C20.558 98.5585 20.3059 100.485 19.5354 101.017C19.4295 101.094 19.3054 101.143 19.1752 101.157C19.0451 101.172 18.9133 101.153 18.7929 101.101C17.7492 100.674 15.7459 97.9071 15.7319 97.8791C15.7179 97.8511 15.4937 97.5289 16.2502 96.4362C16.2905 96.3779 16.35 96.3358 16.4183 96.3171C16.4183 96.3171 17.9243 95.9248 18.7719 95.6656C18.4387 95.0874 18.0467 94.5452 17.6021 94.0476C16.6771 94.3809 15.7971 94.828 14.9824 95.3785L14.7162 97.3468C14.9111 97.5491 15.0891 97.7669 15.2486 97.9982C15.8596 99.0784 16.3505 100.222 16.7125 101.409C16.8946 101.442 17.0744 101.482 17.2519 101.528L18.6108 101.872C21.0974 102.481 23.4439 103.063 23.9062 104.779C24.024 105.061 24.0543 105.372 23.9931 105.672C23.9319 105.972 23.7821 106.246 23.563 106.46C22.8626 107.034 21.5597 106.943 19.8926 106.215L19.6755 106.124C18.975 105.822 18.2745 105.507 17.5741 105.241C17.6371 106.194 17.504 106.964 17.0557 107.342C16.9571 107.418 16.8441 107.472 16.7236 107.502C16.6032 107.532 16.4778 107.538 16.3553 107.517C17.1258 108.974 17.5811 110.319 17.434 111.146C17.1888 112.547 16.1382 114.76 14.5621 115.18C14.3942 115.216 14.2223 115.23 14.0508 115.222ZM11.0318 110.627C11.1961 111.722 11.6455 112.753 12.3347 113.618C13.0351 114.438 13.7356 114.76 14.38 114.578C15.5568 114.263 16.5584 112.477 16.8106 111.02C16.9507 110.221 16.3973 108.771 15.5007 107.209L15.3887 107.146C14.3671 106.503 13.4385 105.723 12.6288 104.828C12.5352 104.875 12.4461 104.932 12.3627 104.996C12.6031 105.33 12.8185 105.681 13.0071 106.046C13.319 106.726 13.4049 107.488 13.2524 108.221C13.0999 108.953 12.7169 109.617 12.1595 110.116C11.8377 110.387 11.4475 110.564 11.0318 110.627ZM11.9284 105.437C11.5869 105.907 11.3373 106.437 11.1929 106.999C10.9273 107.987 10.8443 109.015 10.9477 110.032C11.255 109.985 11.5434 109.854 11.7813 109.654C12.2377 109.245 12.5517 108.701 12.6777 108.101C12.8037 107.502 12.735 106.878 12.4818 106.32C12.3298 106.011 12.1566 105.714 11.9634 105.43L11.9284 105.437ZM8.61521 108.876C8.75214 109.062 8.91221 109.229 9.09152 109.374C9.45547 109.683 9.88758 109.901 10.3524 110.011C10.2508 108.944 10.3409 107.867 10.6185 106.831C10.7938 106.138 11.1163 105.49 11.5641 104.933C11.1319 104.375 10.6639 103.847 10.1632 103.35C9.86621 103.877 9.63116 104.436 9.46277 105.017C9.58885 105.339 10.2963 107.286 9.98111 108.05C9.65413 108.478 9.17996 108.77 8.65023 108.869L8.61521 108.876ZM3.94315 100.079C3.61492 100.078 3.28786 100.118 2.96951 100.198C2.32712 100.371 1.7552 100.741 1.33425 101.256C0.913304 101.771 0.664536 102.406 0.622967 103.07C0.356792 105.059 1.32343 107.405 2.72435 108.197C4.24434 109.051 6.30369 108.897 7.73964 108.533C7.31144 107.425 7.12133 106.239 7.18167 105.053C7.24201 103.867 7.55146 102.706 8.08987 101.648L8.01282 101.599C7.57205 101.949 7.06783 102.21 6.52784 102.369C6.36902 102.424 6.19752 102.432 6.03447 102.391C5.87142 102.35 5.72395 102.262 5.61024 102.138C5.28102 101.746 5.35107 101.087 5.61024 100.345C5.08324 100.172 4.53268 100.082 3.97817 100.079H3.94315ZM8.54517 101.977C8.05553 102.96 7.77932 104.035 7.73465 105.133C7.68999 106.23 7.87788 107.324 8.286 108.344C8.68342 108.254 9.05491 108.075 9.37171 107.819C9.54682 107.384 9.07051 105.787 8.83236 105.206C8.72729 104.961 9.07051 104.057 9.67991 102.922C9.3577 102.586 8.97945 102.271 8.58019 101.97L8.54517 101.977ZM15.935 106.733C16.0428 106.808 16.1669 106.857 16.2972 106.875C16.4274 106.894 16.5602 106.881 16.6845 106.838C16.9997 106.586 17.0628 105.906 16.9647 105.024C16.1637 104.74 15.3264 104.573 14.4781 104.526C15.0023 105.236 15.4886 105.972 15.935 106.733ZM17.504 104.575C18.3376 104.87 19.1571 105.234 19.9416 105.577L20.1518 105.668C21.5527 106.271 22.7225 106.411 23.1848 106.011C23.3104 105.866 23.3918 105.688 23.4191 105.498C23.4464 105.308 23.4186 105.114 23.3389 104.94C22.9746 103.539 20.7892 103.027 18.4847 102.46C18.0224 102.348 17.5601 102.236 17.0838 102.11L16.9016 102.068C17.1665 102.888 17.3702 103.726 17.5111 104.575H17.504ZM13.3013 104.632C13.7758 105.132 14.2837 105.6 14.8213 106.032C14.4991 105.542 14.1208 105.052 13.7916 104.575C13.6202 104.584 13.4495 104.603 13.2803 104.632H13.3013ZM10.4994 102.803C11.0565 103.339 11.5761 103.912 12.0545 104.519L12.2646 104.379C11.7079 103.767 11.1864 103.124 10.7026 102.453L10.4994 102.803ZM14.331 103.924C15.2027 103.943 16.0668 104.092 16.8946 104.365C16.7432 103.551 16.542 102.746 16.2923 101.956C15.0753 101.857 13.8508 101.993 12.6849 102.355C13.1402 102.831 13.5955 103.364 14.0438 103.938H14.324L14.331 103.924ZM11.6272 102.712C11.9914 103.189 12.4047 103.672 12.832 104.113C13.0069 104.061 13.1846 104.019 13.3643 103.987C12.9552 103.48 12.5204 102.993 12.0615 102.53L11.6272 102.712ZM8.93042 101.479C9.30867 101.767 9.67291 102.068 10.0231 102.376L10.3033 101.9C10.1132 101.612 9.93785 101.315 9.77798 101.01C9.6117 101.025 9.45033 101.074 9.30431 101.155C9.1583 101.236 9.03091 101.346 8.93042 101.479ZM11.0318 101.9L11.2489 102.208L11.5712 102.082L11.1439 101.718L11.0318 101.9ZM11.4731 101.199C11.7112 101.395 11.9564 101.613 12.1735 101.851C13.425 101.433 14.7434 101.252 16.0611 101.318C15.7395 100.274 15.3026 99.2682 14.7582 98.3204C14.6455 98.1577 14.5215 98.0033 14.387 97.8581C13.2353 98.8121 12.2444 99.9449 11.4521 101.213L11.4731 101.199ZM6.18462 100.541C6.1496 100.646 6.11457 100.744 6.08655 100.842C6.02358 100.983 5.99103 101.136 5.99103 101.29C5.99103 101.445 6.02358 101.598 6.08655 101.739C6.13802 101.763 6.19424 101.776 6.25116 101.776C6.30808 101.776 6.3643 101.763 6.41577 101.739C6.80904 101.62 7.1771 101.43 7.50148 101.178C7.07433 100.937 6.62942 100.729 6.17061 100.555L6.18462 100.541ZM10.1772 100.429C10.3627 100.477 10.5398 100.552 10.7026 100.653L10.9898 100.835C11.8116 99.57 12.8173 98.4345 13.9737 97.4658C13.6935 97.1997 13.3783 96.9335 13.0561 96.6743C12.3494 97.1472 11.6733 97.6642 11.0318 98.2223C10.7082 98.7381 10.3477 99.2297 9.95309 99.6933C9.96189 99.9555 10.0314 100.212 10.1562 100.443L10.1772 100.429ZM6.41577 99.9875C6.96835 100.217 7.5003 100.494 8.00581 100.814C8.52067 100.386 9.00082 99.9172 9.44175 99.4131C9.69081 98.8508 10.0616 98.3507 10.5275 97.9492C10.9295 97.3407 11.2365 96.6747 11.4381 95.9738C11.4767 95.8286 11.5071 95.6813 11.5291 95.5326C11.1253 95.2556 10.7067 95.0008 10.2753 94.7691C9.78819 95.1397 9.35449 95.5758 8.98646 96.0649C9.14798 96.6474 9.16481 97.2606 9.03549 97.8511C8.80434 98.6356 8.01982 99.1259 6.80102 99.252C6.64692 99.4832 6.51383 99.7493 6.39476 100.001L6.41577 99.9875ZM16.2852 97.6059C16.6565 98.1243 18.3096 100.247 19.031 100.541C19.0561 100.557 19.0853 100.566 19.1151 100.566C19.1449 100.566 19.1741 100.557 19.1992 100.541C19.6475 100.226 19.9837 98.6846 19.9627 98.0542C19.7719 97.4029 19.4838 96.7842 19.1081 96.219C18.4076 96.4432 17.0838 96.7864 16.6915 96.9195C16.5332 97.1339 16.3971 97.3639 16.2852 97.6059ZM9.46277 100.268L9.2036 100.534C9.30481 100.49 9.4105 100.457 9.51881 100.436L9.46277 100.268ZM7.36139 93.0179C6.00173 93.3104 4.71367 93.8699 3.5719 94.664C2.17098 95.6376 1.69467 96.4852 1.84877 96.8704C2.22002 97.8161 4.51052 98.6986 6.44379 98.6426C6.87107 97.9421 7.33337 97.2417 7.65558 96.8004C7.87273 96.5062 8.09687 96.205 8.35604 95.9108C8.18093 95.2104 7.90775 94.4609 7.65558 93.7044L7.36139 93.0179ZM8.47512 96.6953C8.03383 97.2697 7.57853 97.9211 7.17927 98.5656C7.45081 98.5474 7.71228 98.4556 7.93563 98.3002C8.15899 98.1447 8.3358 97.9313 8.4471 97.683C8.52723 97.355 8.53915 97.0141 8.48213 96.6813L8.47512 96.6953ZM12.0405 95.9108C12.0405 95.9809 12.0241 96.0532 11.9914 96.128C11.9241 96.3877 11.8399 96.6427 11.7393 96.8914C11.9984 96.6883 12.2786 96.4852 12.5518 96.2821L12.0405 95.9108ZM13.5605 96.3031C13.7776 96.4782 13.9877 96.6603 14.1839 96.8354L14.324 95.7987L13.5605 96.3031ZM12.1245 95.2314C12.4327 95.4415 12.7479 95.6727 13.0701 95.9318C13.5254 95.6166 13.9877 95.3154 14.429 95.0422V94.9512C14.6462 93.3121 14.7863 88.8852 12.902 88.0587C10.4434 86.987 8.57318 86.6577 7.41743 88.612C6.9131 89.4596 7.24932 90.8605 7.74664 92.3525C8.36503 92.2256 9.00378 92.2363 9.61754 92.384C10.2313 92.5317 10.805 92.8127 11.298 93.207C11.5816 93.4577 11.8047 93.7696 11.9503 94.119C12.0959 94.4685 12.1603 94.8464 12.1385 95.2244L12.1245 95.2314ZM7.95678 92.9269L8.16692 93.5152C8.39106 94.1457 8.61521 94.7691 8.78332 95.3504C9.43475 94.5939 10.0582 94.0476 10.3944 94.1807C10.7801 94.3695 11.1522 94.5848 11.5081 94.8251C11.4635 94.3687 11.2484 93.946 10.9057 93.6413C10.4954 93.32 10.0219 93.089 9.51611 92.9634C9.01032 92.8379 8.48371 92.8206 7.97079 92.9128L7.95678 92.9269Z" fill="#F68D88"/>
<path d="M152.104 34.5715C152.027 34.5716 151.952 34.5418 151.896 34.4883C151.84 34.4348 151.807 34.3618 151.803 34.2844C151.691 31.3004 150.458 29.4652 149.078 28.4916C148.882 29.266 148.406 29.94 147.741 30.3828C147.32 30.6668 146.829 30.8283 146.322 30.8494C145.814 30.8704 145.311 30.7501 144.869 30.5019C144.592 30.3268 144.373 30.0738 144.24 29.7747C144.106 29.4756 144.064 29.1437 144.119 28.8208C144.287 27.658 145.324 26.9575 146.767 27.0346C147.423 27.0792 148.064 27.2555 148.651 27.5529C148.684 27.0851 148.663 26.615 148.588 26.152C148.252 23.9456 146.984 22.5026 145.086 22.1874C144.501 22.0923 143.904 22.1137 143.328 22.2505C143.441 22.6228 143.518 23.0051 143.559 23.3922C143.797 25.5846 142.858 26.2781 142.424 26.4742C142.128 26.6117 141.796 26.6526 141.476 26.591C141.155 26.5294 140.862 26.3685 140.638 26.131C140.346 25.7714 140.177 25.3272 140.157 24.8642C140.137 24.4012 140.266 23.944 140.526 23.5603C140.972 22.7753 141.686 22.1763 142.536 21.8722C141.366 19.1965 138.333 18.3699 138.291 18.3349C138.218 18.311 138.157 18.2601 138.12 18.1925C138.083 18.1249 138.074 18.0457 138.094 17.9713C138.113 17.8969 138.161 17.8329 138.226 17.7924C138.292 17.7519 138.37 17.738 138.446 17.7535C138.488 17.7535 141.843 18.6991 143.111 21.6901C143.786 21.5175 144.489 21.4865 145.177 21.599C147.334 21.9633 148.784 23.5883 149.156 26.068C149.253 26.6608 149.267 27.2644 149.198 27.8611C150.802 28.8838 152.273 30.9081 152.399 34.2633C152.401 34.3421 152.372 34.4184 152.318 34.476C152.264 34.5336 152.19 34.5679 152.111 34.5715H152.104ZM146.55 27.616C145.709 27.616 144.834 27.9452 144.694 28.8908C144.655 29.1037 144.683 29.3233 144.773 29.5199C144.863 29.7165 145.011 29.8808 145.198 29.9905C145.541 30.1814 145.932 30.272 146.324 30.2522C146.717 30.2324 147.096 30.1029 147.418 29.8785C147.71 29.6805 147.959 29.427 148.153 29.1326C148.346 28.8381 148.48 28.5084 148.546 28.1623C147.986 27.8523 147.364 27.6682 146.725 27.623H146.557L146.55 27.616ZM142.718 22.4256C142.006 22.6759 141.407 23.1729 141.03 23.8265C140.832 24.0993 140.725 24.4279 140.725 24.7651C140.725 25.1023 140.832 25.4309 141.03 25.7037C141.167 25.8491 141.346 25.9482 141.542 25.9871C141.738 26.026 141.941 26.0029 142.123 25.9209C142.753 25.6267 143.048 24.7021 142.914 23.4482C142.882 23.1019 142.816 22.7595 142.718 22.4256Z" fill="white"/>
<path d="M234.541 33.8851C234.469 33.8869 234.398 33.8625 234.342 33.8163C234.286 33.77 234.249 33.7051 234.237 33.6335C234.225 33.5619 234.239 33.4884 234.277 33.4265C234.315 33.3646 234.374 33.3185 234.443 33.2967C237.245 32.3371 238.646 30.635 239.214 29.0309C238.416 29.0629 237.635 28.7984 237.021 28.2884C236.629 27.9661 236.335 27.5414 236.17 27.0615C236.006 26.5816 235.978 26.0655 236.089 25.5706C236.174 25.2497 236.352 24.9614 236.602 24.7429C236.852 24.5244 237.161 24.3858 237.49 24.3448C238.646 24.1697 239.592 24.9683 239.956 26.3762C240.1 27.0184 240.114 27.6827 239.998 28.3305C240.448 28.2281 240.885 28.0753 241.301 27.8752C243.318 26.9225 244.341 25.2975 244.103 23.3992C244.028 22.8119 243.838 22.2453 243.542 21.7321C243.22 21.9463 242.877 22.1292 242.52 22.2785C240.481 23.1331 239.55 22.4186 239.242 22.0684C239.027 21.8234 238.894 21.5172 238.863 21.193C238.831 20.8687 238.903 20.5428 239.066 20.2612C239.329 19.8841 239.705 19.6005 240.139 19.4519C240.574 19.3032 241.045 19.2972 241.483 19.4346C242.364 19.6397 243.142 20.1542 243.675 20.8846C245.917 19.0003 245.861 15.8483 245.861 15.8062C245.862 15.7661 245.871 15.7265 245.887 15.6898C245.904 15.6531 245.927 15.6201 245.956 15.5927C245.986 15.5653 246.02 15.5441 246.058 15.5302C246.096 15.5163 246.136 15.5102 246.176 15.512C246.255 15.5136 246.33 15.5447 246.387 15.5992C246.444 15.6536 246.479 15.7275 246.484 15.8062C246.484 15.8483 246.547 19.3085 244.04 21.4099C244.406 22.0058 244.645 22.6713 244.74 23.3642C245.006 25.5356 243.865 27.3918 241.595 28.4565C241.056 28.7193 240.483 28.9055 239.893 29.0099C239.368 30.8451 237.848 32.8274 234.668 33.9131L234.541 33.8851ZM237.813 24.9332H237.588C237.373 24.9571 237.17 25.0464 237.008 25.1893C236.845 25.3321 236.73 25.5214 236.678 25.7318C236.592 26.1164 236.616 26.5174 236.748 26.889C236.879 27.2606 237.112 27.5877 237.42 27.8331C237.694 28.0557 238.008 28.2222 238.346 28.3232C238.684 28.4242 239.038 28.4576 239.389 28.4215C239.528 27.794 239.528 27.1438 239.389 26.5163C239.343 26.1135 239.162 25.738 238.876 25.4507C238.59 25.1634 238.215 24.9811 237.813 24.9332ZM240.86 19.967C240.616 19.9495 240.373 19.9959 240.153 20.1016C239.933 20.2072 239.744 20.3685 239.606 20.5694C239.506 20.7419 239.463 20.9412 239.482 21.1395C239.501 21.3378 239.581 21.5253 239.711 21.6761C240.173 22.1944 241.112 22.2154 242.303 21.7321C242.626 21.5983 242.935 21.4341 243.227 21.2418C242.783 20.6299 242.135 20.1974 241.399 20.023C241.221 19.9869 241.041 19.9682 240.86 19.967Z" fill="#9AB3DA"/>
<path d="M240.362 139.318H240.313C240.271 139.318 236.811 138.716 235.284 135.865C234.63 136.105 233.933 136.205 233.239 136.159C231.06 136.012 229.449 134.541 228.833 132.111C228.676 131.531 228.6 130.932 228.609 130.331C226.906 129.47 225.246 127.607 224.784 124.279C224.774 124.201 224.796 124.121 224.844 124.058C224.893 123.995 224.964 123.954 225.043 123.943C225.122 123.935 225.201 123.957 225.263 124.006C225.326 124.054 225.367 124.124 225.379 124.202C225.786 127.158 227.194 128.86 228.672 129.694C228.79 128.906 229.197 128.189 229.813 127.684C230.204 127.36 230.677 127.152 231.179 127.081C231.681 127.011 232.193 127.081 232.657 127.284C232.957 127.428 233.207 127.658 233.374 127.946C233.541 128.233 233.619 128.564 233.596 128.895C233.547 130.065 232.58 130.864 231.137 130.934C230.48 130.957 229.825 130.847 229.211 130.612C229.224 131.085 229.293 131.555 229.414 132.012C229.967 134.177 231.375 135.515 233.281 135.613C233.872 135.651 234.464 135.572 235.025 135.382C234.876 135.025 234.761 134.654 234.682 134.275C234.226 132.118 235.102 131.333 235.501 131.095C235.782 130.931 236.108 130.859 236.432 130.89C236.756 130.92 237.062 131.05 237.308 131.263C237.634 131.592 237.845 132.016 237.91 132.474C237.976 132.932 237.892 133.399 237.673 133.806C237.305 134.631 236.654 135.297 235.837 135.683C237.238 138.24 240.376 138.772 240.411 138.779C240.46 138.808 240.499 138.85 240.524 138.901C240.55 138.951 240.561 139.008 240.555 139.064C240.55 139.12 240.53 139.174 240.495 139.219C240.461 139.264 240.415 139.298 240.362 139.318ZM236.279 131.417C236.111 131.418 235.946 131.464 235.802 131.55C235.2 131.907 235.004 132.853 235.263 134.086C235.334 134.429 235.437 134.764 235.571 135.087C236.256 134.765 236.803 134.209 237.112 133.518C237.28 133.227 237.351 132.89 237.316 132.555C237.281 132.22 237.141 131.906 236.916 131.655C236.74 131.506 236.517 131.424 236.286 131.424L236.279 131.417ZM229.239 129.96C229.828 130.216 230.467 130.338 231.109 130.317C231.992 130.275 232.951 129.869 232.993 128.853C233.011 128.638 232.961 128.423 232.853 128.236C232.744 128.049 232.58 127.901 232.384 127.81C232.023 127.654 231.625 127.603 231.236 127.663C230.847 127.722 230.483 127.89 230.185 128.146C229.642 128.602 229.302 129.254 229.239 129.96Z" fill="white"/>
<path d="M114.707 122.171L115.071 115.958L128.1 117.66L114.707 122.171Z" fill="white"/>
<path d="M118.994 131.48L129.395 125.414L123.161 136.033L118.994 131.48Z" fill="#F68D88"/>
<path d="M134.103 136.692C133.998 136.425 135.454 126.591 135.454 126.591L138.558 136.138L134.103 136.692Z" fill="white"/>
<path d="M170.26 31.2584L162.422 23.049L168.53 18.1248L170.26 31.2584Z" fill="#F68D88"/>
<path d="M176.831 31.4405C176.922 31.0763 182.483 20.8636 182.483 20.8636L188.682 23.9666L176.831 31.4405Z" fill="#F68D88"/>
<path d="M174.183 18.7622L172.726 9.52312L177.713 10.0064L174.183 18.7622Z" fill="#F68D88"/>
<path d="M32.8792 158.126C32.8792 158.126 39.4144 164.808 65.5906 157.271C91.3675 149.853 94.6527 134.408 94.6527 134.408C94.6527 134.408 79.943 130.513 58.4179 137.448C36.8928 144.383 32.8792 158.126 32.8792 158.126Z" fill="#404B7C"/>
<path d="M99.8221 239.533L98.141 244.436L95.5073 252.12L89.3643 251.392L90.3379 245.025L91.2485 239.05L99.8221 239.533Z" fill="#ECBDBB"/>
<path d="M99.822 239.533L98.1409 244.436C95.6008 245.14 92.9477 245.339 90.3308 245.025L91.2414 239.05L99.822 239.533Z" fill="#404B7C"/>
<path d="M116.423 267.439C116.423 267.439 111.204 267.404 104.809 267.306C97.5665 267.201 88.7827 267.026 84.3208 266.774C84.3208 266.774 84.4049 265.177 84.678 262.872C85.1613 258.768 86.219 252.365 88.3975 248.779C91.414 249.856 94.6456 250.19 97.8186 249.753C97.8186 249.753 101.531 255.167 104.69 256.568C105.178 256.78 105.681 256.953 106.196 257.087C108.858 257.787 111.534 257.451 114.3 258.635C116.073 259.391 116.549 261.899 116.605 264.042C116.641 265.178 116.581 266.314 116.423 267.439Z" fill="#404B7C"/>
<path d="M91.7038 260.449C93.1313 260.449 94.2885 258.994 94.2885 257.199C94.2885 255.404 93.1313 253.948 91.7038 253.948C90.2764 253.948 89.1191 255.404 89.1191 257.199C89.1191 258.994 90.2764 260.449 91.7038 260.449Z" fill="#F68D88"/>
<path d="M116.423 267.439C116.423 267.439 111.205 267.404 104.809 267.306C104.809 266.606 104.809 265.296 104.928 263.762C105.083 261.506 105.426 258.81 106.196 257.08C108.858 257.78 111.534 257.444 114.301 258.628C116.073 259.384 116.549 261.892 116.605 264.035C116.642 265.173 116.581 266.312 116.423 267.439Z" fill="#F68D88"/>
<path d="M116.423 267.439C116.423 267.439 111.204 267.404 104.809 267.306C97.5665 267.201 88.7827 267.026 84.3208 266.774C84.3208 266.774 84.4049 265.177 84.678 262.872C87.3608 263.019 95.7173 263.461 104.928 263.762C108.788 263.888 112.801 263.986 116.612 264.035C116.647 265.173 116.583 266.312 116.423 267.439Z" fill="#F68D88"/>
<path d="M115.4 264.315C112.29 264.273 108.865 264.189 104.893 264.063C97.5735 263.825 90.667 263.489 86.163 263.258C86.1234 263.256 86.0846 263.246 86.0488 263.229C86.0129 263.213 85.9807 263.189 85.954 263.16C85.9274 263.13 85.9067 263.096 85.8933 263.059C85.8799 263.022 85.8739 262.982 85.8758 262.942C85.8828 262.864 85.9191 262.791 85.9775 262.737C86.0359 262.684 86.1121 262.655 86.191 262.655C90.688 262.893 97.5945 263.223 104.907 263.461C108.837 263.587 112.262 263.671 115.372 263.713C115.412 263.711 115.451 263.717 115.489 263.73C115.526 263.744 115.56 263.765 115.589 263.791C115.619 263.818 115.642 263.85 115.659 263.886C115.676 263.922 115.686 263.961 115.687 264C115.689 264.04 115.683 264.079 115.67 264.116C115.656 264.154 115.636 264.188 115.609 264.217C115.582 264.246 115.55 264.27 115.514 264.287C115.479 264.304 115.44 264.313 115.4 264.315Z" fill="white"/>
<path d="M89.3642 226.161C89.3642 226.161 95.4722 225.251 100.572 226.617C103.746 227.508 106.639 229.196 108.977 231.52L103.962 242.832C103.962 242.832 92.9295 245.207 88.0894 238.09L89.3642 226.161Z" fill="#9AB3DA"/>
<path d="M92.6492 241.144H92.5932C92.554 241.137 92.5166 241.123 92.4831 241.102C92.4495 241.08 92.4205 241.053 92.3977 241.02C92.3749 240.987 92.3588 240.951 92.3503 240.912C92.3417 240.873 92.341 240.833 92.348 240.794L94.1762 230.553C94.1784 230.51 94.1897 230.469 94.2093 230.431C94.2288 230.393 94.2563 230.359 94.2897 230.333C94.3232 230.306 94.3619 230.287 94.4033 230.277C94.4447 230.266 94.4879 230.265 94.53 230.272C94.572 230.28 94.612 230.296 94.6473 230.32C94.6825 230.344 94.7122 230.376 94.7344 230.412C94.7566 230.449 94.7708 230.49 94.776 230.532C94.7812 230.574 94.7773 230.617 94.7646 230.658L92.9434 240.871C92.9366 240.945 92.9028 241.013 92.8485 241.064C92.7942 241.114 92.7233 241.143 92.6492 241.144Z" fill="#6B81BE"/>
<path d="M125.06 187.671C125.06 192.539 105.447 231.268 105.447 231.268C105.447 231.268 96.7891 231.968 91.9489 227.163C91.9489 227.163 94.2324 212.117 95.5983 204.643C96.33 200.344 97.8118 196.206 99.9762 192.42C99.7055 191.811 99.5216 191.168 99.4298 190.508C99.4258 189.87 99.655 189.252 100.074 188.771C100.074 188.771 91.8438 181.836 83.4173 174.474C78.8503 170.475 74.2343 166.356 70.809 163.134C69.3591 161.733 68.1263 160.542 67.2227 159.583C60.2881 152.2 56.3656 140.523 56.8209 131.564C57.2762 122.605 70.781 108.673 85.1895 125.638C85.1685 125.652 125.06 175.021 125.06 187.671Z" fill="#6B81BE"/>
<path d="M83.3822 174.474C78.8152 170.475 74.1992 166.356 70.7739 163.134C70.8489 162.993 70.9406 162.861 71.0471 162.742C74.6965 158.364 78.3459 152.774 78.3459 152.774C78.3459 152.774 81.7431 167.645 83.3822 174.474Z" fill="#404B7C"/>
<path d="M96.8451 228.221H96.782C96.7041 228.204 96.6359 228.157 96.5926 228.09C96.5493 228.023 96.5343 227.941 96.5509 227.863C96.5509 227.723 99.4928 213.665 101.454 206.808C103 201.764 104.93 196.847 107.226 192.098C106.871 191.645 106.631 191.113 106.526 190.547C106.421 189.981 106.455 189.398 106.624 188.848L77.8136 159.428C77.7669 159.37 77.7435 159.297 77.7478 159.222C77.7522 159.148 77.7841 159.078 77.8373 159.025C77.8905 158.973 77.9613 158.942 78.0358 158.939C78.1104 158.936 78.1835 158.961 78.2409 159.008L107.149 188.526C107.191 188.568 107.219 188.622 107.23 188.681C107.242 188.739 107.235 188.8 107.212 188.855C107.031 189.355 106.987 189.894 107.086 190.416C107.185 190.939 107.422 191.425 107.772 191.825C107.811 191.869 107.835 191.925 107.843 191.983C107.85 192.042 107.84 192.101 107.814 192.154C105.499 196.927 103.553 201.87 101.993 206.941C100.074 213.784 97.1603 227.814 97.1323 227.954C97.124 228.026 97.0905 228.092 97.0378 228.141C96.9852 228.189 96.9168 228.218 96.8451 228.221Z" fill="#9AB3DA"/>
<path d="M65.5766 269.443C65.5766 270.066 65.5416 270.655 65.5136 271.145C65.4645 271.845 65.4085 272.343 65.4085 272.343C61.0306 274.941 54.1451 274.899 50.6358 273.162C47.1265 271.425 41.3757 263.636 41.3757 263.636C41.6071 262.486 41.8994 261.35 42.2513 260.232C43.4421 256.435 45.2143 252.8 46.5031 251.826C50.3346 250.047 54.9086 253.556 55.3429 254.334C56.1182 256.381 57.1141 258.337 58.3128 260.169C58.746 260.811 59.2834 261.377 59.9029 261.843C62.0673 263.482 64.8061 263.944 65.3315 265.282C65.6677 266.059 65.6046 268.203 65.5766 269.443Z" fill="#404B7C"/>
<path d="M48.0048 258.298C48.4984 256.617 48.0891 255.016 47.0906 254.723C46.0921 254.43 44.8825 255.555 44.3889 257.237C43.8953 258.918 44.3046 260.519 45.3031 260.812C46.3016 261.105 47.5112 259.98 48.0048 258.298Z" fill="#F68D88"/>
<path d="M65.5767 269.443C65.5767 270.066 65.5416 270.654 65.5136 271.145C63.9026 271.376 59.0414 272.027 56.3376 271.845C54.3546 271.704 52.427 271.128 50.6919 270.157C50.701 269.8 50.7338 269.445 50.79 269.092C50.9931 267.656 51.7776 264.301 53.9911 263.012C55.7772 261.969 58.1938 261.808 59.9169 261.857C62.0814 263.496 64.8202 263.958 65.3455 265.296C65.6677 266.059 65.6047 268.203 65.5767 269.443Z" fill="#F68D88"/>
<path d="M65.5766 269.443C65.5766 270.066 65.5416 270.654 65.5136 271.145C65.4645 271.845 65.4085 272.343 65.4085 272.343C61.0306 274.941 54.1451 274.899 50.6358 273.162C47.1265 271.425 41.3757 263.636 41.3757 263.636C41.6071 262.486 41.8994 261.35 42.2513 260.232C43.232 261.57 47.0845 266.676 50.7829 269.099C51.3273 269.465 51.9069 269.774 52.513 270.024C56.2815 271.516 63.069 270.066 65.5766 269.443Z" fill="#F68D88"/>
<path d="M56.8138 270.97C55.3124 271.009 53.8166 270.771 52.4009 270.269C51.7749 270.013 51.1765 269.694 50.6148 269.317C47.5818 267.327 44.4437 263.559 42.8397 261.485C42.8153 261.454 42.7973 261.418 42.7868 261.38C42.7762 261.342 42.7733 261.302 42.7782 261.263C42.788 261.183 42.829 261.111 42.8922 261.062C42.9554 261.012 43.0355 260.99 43.115 261C43.1945 261.01 43.2668 261.051 43.316 261.114C44.892 263.16 47.9811 266.872 50.944 268.819C51.4704 269.174 52.0313 269.474 52.6181 269.716C55.7491 270.963 61.1287 270.094 64.0566 269.464C64.133 269.451 64.2114 269.468 64.2754 269.512C64.3394 269.555 64.3842 269.622 64.4005 269.698C64.4167 269.773 64.4031 269.853 64.3626 269.919C64.322 269.985 64.2576 270.032 64.1827 270.052C61.7632 270.603 59.2946 270.911 56.8138 270.97Z" fill="white"/>
<path d="M57.2621 243.491L55.8051 247.364L53.1574 254.418C52.1048 254.657 51.0103 254.641 49.9649 254.372C48.9196 254.103 47.9537 253.588 47.1475 252.87L48.3312 247.574L49.6061 241.831L57.2621 243.491Z" fill="#ECBDBB"/>
<path d="M49.5991 241.845L57.2621 243.491L55.8051 247.364C53.3803 248.133 50.7884 248.205 48.3242 247.574L49.5991 241.845Z" fill="#404B7C"/>
<path d="M48.5064 227.8L45.7676 241.109C45.7676 241.109 49.1438 244.85 53.7038 245.76C56.5668 246.3 59.5054 246.3 62.3685 245.76L67.6569 235.001C67.6569 235.001 64.1056 225.335 48.5064 227.8Z" fill="#9AB3DA"/>
<path d="M50.0616 243.603H49.9985C49.9205 243.586 49.8524 243.539 49.8091 243.472C49.7657 243.405 49.7507 243.323 49.7674 243.245L51.5886 234.308C51.5934 234.266 51.6068 234.226 51.6278 234.19C51.6489 234.154 51.6772 234.123 51.7109 234.099C51.7447 234.074 51.7831 234.057 51.8238 234.048C51.8645 234.039 51.9066 234.039 51.9475 234.047C51.9883 234.056 52.027 234.072 52.061 234.096C52.0951 234.12 52.1238 234.151 52.1454 234.187C52.167 234.222 52.1809 234.262 52.1863 234.303C52.1918 234.345 52.1886 234.387 52.1769 234.427L50.3557 243.365C50.3413 243.432 50.3043 243.492 50.2507 243.536C50.1972 243.579 50.1304 243.603 50.0616 243.603Z" fill="#6B81BE"/>
<path d="M73.7721 159.611C73.7155 159.61 73.6603 159.593 73.6126 159.563C73.565 159.532 73.527 159.489 73.5029 159.438C73.4788 159.387 73.4695 159.33 73.4763 159.274C73.483 159.217 73.5054 159.164 73.5409 159.12C75.8454 156.283 79.2777 151.604 79.2777 150.344C79.2777 148.943 75.5442 136.334 73.5759 129.883C73.5597 129.809 73.5719 129.732 73.6102 129.666C73.6484 129.601 73.7099 129.553 73.7823 129.53C73.8547 129.508 73.9328 129.514 74.001 129.547C74.0692 129.58 74.1225 129.638 74.1503 129.708C74.3815 130.472 79.8801 148.501 79.8801 150.344C79.8801 152.186 74.6056 158.749 74.0032 159.499C73.9753 159.533 73.9402 159.561 73.9002 159.58C73.8602 159.6 73.8165 159.61 73.7721 159.611Z" fill="#9AB3DA"/>
<path d="M78.9764 203.543C77.7016 208.286 64.0216 236.465 64.0216 236.465C64.0216 236.465 55.2659 236.955 49.9214 230.861C49.9214 230.861 54.6635 210.912 55.6371 206.66C56.0854 204.41 56.8643 202.238 57.9486 200.216C57.9486 200.216 56.1274 199.362 56.3656 196.441C56.3656 196.441 46.6572 178.775 40.5842 160.528C38.8366 155.424 37.4853 150.192 36.5426 144.88C36.3073 143.491 36.1879 142.086 36.1853 140.677C36.1503 121.302 58.9433 111.811 66.214 124.377C66.214 124.377 77.8907 161.95 78.2549 164.143C78.6192 166.335 80.2443 198.801 78.9764 203.543Z" fill="#6B81BE"/>
<path d="M57.2062 138.184C46.6082 145.482 41.9922 156.396 40.5703 160.514C38.8226 155.41 37.4714 150.178 36.5286 144.866C36.2934 143.477 36.1739 142.072 36.1714 140.663C46.8814 134.73 67.3068 131.228 57.2062 138.184Z" fill="#404B7C"/>
<path d="M54.04 231.996H53.991C53.9121 231.984 53.8411 231.941 53.7938 231.877C53.7466 231.812 53.7268 231.732 53.7388 231.653C55.6861 219.5 61.8081 203.158 62.4526 201.456C62.0519 200.915 61.8052 200.276 61.7386 199.606C61.672 198.937 61.788 198.262 62.0743 197.653C51.1471 178.467 39.7507 142.169 39.6596 141.805C39.6476 141.767 39.6432 141.727 39.6466 141.688C39.65 141.649 39.6611 141.61 39.6793 141.575C39.6975 141.54 39.7225 141.509 39.7528 141.483C39.783 141.458 39.818 141.439 39.8557 141.427C39.8934 141.415 39.9331 141.41 39.9726 141.414C40.012 141.417 40.0503 141.428 40.0855 141.446C40.1206 141.465 40.1518 141.49 40.1773 141.52C40.2027 141.55 40.222 141.585 40.234 141.623C40.346 141.987 51.7846 178.418 62.7047 197.498C62.7352 197.547 62.7514 197.603 62.7514 197.66C62.7514 197.717 62.7352 197.772 62.7047 197.821C62.6627 197.877 61.7521 199.271 63.069 201.253C63.0905 201.295 63.1017 201.342 63.1017 201.389C63.1017 201.437 63.0905 201.484 63.069 201.526C62.9989 201.701 56.3656 219.038 54.3272 231.744C54.3159 231.813 54.2811 231.875 54.2287 231.921C54.1764 231.967 54.1097 231.994 54.04 231.996Z" fill="#9AB3DA"/>
<path d="M48.2051 161.208C48.1455 161.207 48.0875 161.188 48.0386 161.154C47.9897 161.12 47.9519 161.072 47.9302 161.016C47.9084 160.961 47.9036 160.9 47.9164 160.842C47.9292 160.784 47.959 160.731 48.0019 160.689C48.0019 160.689 51.3291 157.565 51.6794 154.791C52.0296 152.018 48.6814 139.711 48.6464 139.584C48.6358 139.546 48.6328 139.506 48.6377 139.467C48.6425 139.428 48.655 139.39 48.6745 139.355C48.6941 139.321 48.7202 139.291 48.7514 139.266C48.7826 139.242 48.8183 139.224 48.8565 139.213C48.8947 139.203 48.9346 139.2 48.9739 139.205C49.0132 139.209 49.0512 139.222 49.0856 139.241C49.1201 139.261 49.1504 139.287 49.1748 139.318C49.1992 139.349 49.2172 139.385 49.2277 139.423C49.3678 139.935 52.646 151.92 52.2747 154.833C51.9035 157.747 48.5553 160.962 48.4082 161.096C48.3834 161.127 48.3527 161.153 48.3179 161.172C48.283 161.191 48.2447 161.203 48.2051 161.208Z" fill="#9AB3DA"/>
<path d="M115.905 98.9368C113.799 98.6912 111.712 98.3074 109.657 97.788C104.319 96.5762 98.0291 94.8251 98.0291 94.8251L101.65 85.8732L103.752 80.5988L110.133 83.8839L107.275 57.4346C105.479 56.5279 104.062 55.0141 103.275 53.1617C102.96 52.3072 104.039 52.1111 105.125 52.7555C106.21 53.3999 109.44 54.0303 109.44 54.0303C110.309 53.358 111.133 52.6278 111.905 51.8449C112.269 51.3265 110.925 47.383 110.812 46.0451C110.7 44.7072 112.536 44.6442 113.908 47.2148C113.852 47.0397 113.39 45.6248 113.061 44.1889C112.676 42.4867 115.316 42.3537 116.283 46.4724L116.731 47.9573C116.731 47.7052 116.437 45.7999 116.22 44.5531C115.933 42.865 117.859 42.7809 118.63 45.856C119.122 47.3922 119.46 48.9737 119.638 50.577C119.672 50.9356 119.635 51.2974 119.528 51.6413C119.421 51.9852 119.246 52.3044 119.015 52.5804C116.99 54.9829 114.203 57.7147 114.203 57.7147C114.203 57.7147 122.643 85.9783 122.916 90.7204C123.19 95.4625 120.009 99.203 115.905 98.9368Z" fill="#ECBDBB"/>
<path d="M109.657 97.7881C104.319 96.5763 98.0291 94.8251 98.0291 94.8251L101.65 85.8732L109.657 97.7881Z" fill="#404B7C"/>
<path d="M112.851 51.5787C112.807 51.5798 112.764 51.5673 112.728 51.543C112.692 51.5186 112.664 51.4836 112.649 51.4428C112.633 51.402 112.631 51.3575 112.642 51.3153C112.653 51.2731 112.677 51.2355 112.711 51.2075L113.495 50.507C113.61 50.4053 113.702 50.2802 113.765 50.1401C113.828 50 113.86 49.848 113.859 49.6945C113.859 49.2392 113.859 48.5317 113.761 47.7542C113.756 47.6985 113.772 47.6428 113.808 47.5995C113.843 47.5561 113.895 47.5286 113.95 47.5231C114.006 47.5175 114.062 47.5343 114.105 47.5697C114.148 47.6052 114.176 47.6564 114.182 47.7122C114.259 48.5037 114.28 49.2252 114.28 49.6945C114.28 49.9075 114.236 50.1183 114.149 50.3127C114.062 50.5072 113.935 50.6809 113.775 50.8222L112.991 51.5227C112.953 51.5581 112.903 51.578 112.851 51.5787Z" fill="#404B7C"/>
<path d="M115.54 91.4839C115.498 91.484 115.457 91.4714 115.422 91.4477C115.387 91.4239 115.36 91.3902 115.344 91.3508C114.188 88.507 110.441 84.7105 110.441 84.6684C110.402 84.6285 110.38 84.5747 110.381 84.5189C110.382 84.463 110.405 84.4097 110.445 84.3707C110.484 84.3317 110.538 84.3102 110.594 84.3108C110.65 84.3115 110.703 84.3343 110.742 84.3742C110.896 84.5353 114.574 88.2688 115.758 91.1897C115.768 91.2155 115.773 91.243 115.772 91.2707C115.772 91.2983 115.766 91.3257 115.755 91.3511C115.744 91.3764 115.728 91.3994 115.708 91.4186C115.688 91.4378 115.664 91.4528 115.638 91.4629L115.54 91.4839Z" fill="#404B7C"/>
<path d="M116.101 50.8712C116.101 50.8712 116.171 48.0694 116.101 47.3129C116.031 46.5564 117.649 45.968 118.104 48.5247C118.302 49.6227 118.4 50.7363 118.398 51.8519L116.101 50.8712Z" fill="#ECBDBB"/>
<path d="M118.391 52.062C118.364 52.0611 118.336 52.0548 118.311 52.0434C118.286 52.032 118.263 52.0157 118.245 51.9956C118.226 51.9754 118.211 51.9517 118.201 51.9259C118.192 51.9 118.187 51.8725 118.188 51.8449C118.188 50.7433 118.089 49.6439 117.894 48.5597C117.656 47.2289 117.102 46.8226 116.696 46.8716C116.59 46.8803 116.491 46.9282 116.419 47.0059C116.346 47.0836 116.305 47.1856 116.304 47.2919C116.374 48.0694 116.304 50.7592 116.304 50.8712C116.299 50.9258 116.274 50.9766 116.234 51.014C116.194 51.0514 116.141 51.0729 116.087 51.0744C116.059 51.0735 116.032 51.0671 116.007 51.0557C115.982 51.0443 115.959 51.0281 115.94 51.0079C115.921 50.9877 115.906 50.9641 115.897 50.9382C115.887 50.9124 115.883 50.8848 115.883 50.8572C115.883 50.8572 115.954 48.0554 115.883 47.3549C115.873 47.1399 115.946 46.9292 116.087 46.7663C116.228 46.6034 116.426 46.5007 116.64 46.4794C117.249 46.3953 118.041 46.8856 118.307 48.5107C118.509 49.6223 118.61 50.75 118.608 51.8799C118.601 51.9319 118.575 51.9794 118.535 52.0131C118.495 52.0468 118.444 52.0642 118.391 52.062Z" fill="#404B7C"/>
<path d="M101.391 100.485C101.391 100.485 99.3457 99.9945 96.5578 99.3641C92.7614 98.5095 87.592 97.4028 84.3348 96.9265C78.6751 96.1069 72.1188 87.3512 75.0257 77.4187C75.0958 77.1735 75.1728 76.9214 75.2499 76.7182C78.7171 66.3514 87.578 69.0132 87.578 69.0132L105.216 79.8072C105.216 79.8072 108.396 92.2754 101.391 100.485Z" fill="#F68D88"/>
<path d="M96.572 99.3571C92.7755 98.5025 87.6061 97.3958 84.349 96.9195C78.6893 96.0999 72.133 87.3442 75.0399 77.4117C75.1099 77.1665 75.187 76.9143 75.264 76.7112C78.276 77.8179 81.337 78.8616 81.337 78.8616L96.572 99.3571Z" fill="#404B7C"/>
<path d="M98.6664 98.4115C98.6098 98.4109 98.5545 98.3943 98.5069 98.3638C98.4593 98.3332 98.4213 98.2899 98.3972 98.2387C98.373 98.1875 98.3638 98.1306 98.3705 98.0745C98.3773 98.0183 98.3997 97.9652 98.4352 97.9211C104.109 91.0076 101.503 79.3239 101.475 79.2119C101.466 79.1732 101.465 79.1333 101.472 79.0942C101.479 79.0552 101.493 79.0178 101.514 78.9843C101.535 78.9508 101.563 78.9218 101.595 78.899C101.628 78.8761 101.664 78.8599 101.703 78.8511C101.741 78.8424 101.781 78.8413 101.82 78.848C101.86 78.8548 101.897 78.8691 101.93 78.8902C101.964 78.9114 101.993 78.9389 102.016 78.9713C102.039 79.0036 102.055 79.0401 102.064 79.0788C102.064 79.1979 104.767 91.1617 98.9045 98.3064C98.8752 98.3406 98.8386 98.3678 98.7974 98.386C98.7562 98.4042 98.7114 98.4129 98.6664 98.4115Z" fill="#ECBDBB"/>
<path d="M94.6528 134.408C94.6528 134.408 87.7183 134.044 65.2335 139.514C42.7488 144.985 32.8793 158.126 32.8793 158.126C31.4893 150.372 30.6769 142.527 30.4487 134.653C30.4487 134.653 28.6275 130.521 28.7466 129.183C29.0667 127.569 29.5141 125.983 30.0844 124.441C30.0844 124.441 30.4487 122.374 33.4887 109.03C34.3082 105.423 35.7932 100.261 37.5233 94.643C39.4846 88.2968 41.7611 81.3342 43.7574 75.4294C46.5593 67.1779 48.7307 60.8878 48.7307 60.8878L66.6484 60.5236C74.5286 61.8755 87.5992 69.0132 87.5992 69.0132C87.5992 69.0132 90.0368 73.2719 89.4204 85.3128C88.804 97.3537 87.1159 115.468 87.1159 115.468C87.1159 115.468 90.5131 119.972 90.6182 121.183C90.7232 122.395 89.2803 125.197 89.6445 126.906C90.0088 128.615 94.6528 134.408 94.6528 134.408Z" fill="#F68D88"/>
<path d="M49.6622 74.0495L37.5232 94.608C39.4845 88.2618 41.761 81.2992 43.7573 75.3944L49.6622 74.0495Z" fill="#404B7C"/>
<path d="M88.7828 95.9598C88.7433 95.9572 88.7046 95.9467 88.6691 95.9291C88.6335 95.9114 88.6018 95.8869 88.5758 95.857C88.5498 95.827 88.5299 95.7922 88.5173 95.7546C88.5048 95.7169 88.4998 95.6772 88.5027 95.6376C88.7969 91.645 89.014 88.1567 89.1611 85.2708C89.5323 77.909 88.7758 73.4611 88.0754 71.0305C88.0531 70.9534 88.0623 70.8706 88.1011 70.8003C88.1398 70.73 88.2049 70.678 88.282 70.6557C88.3591 70.6334 88.4419 70.6427 88.5122 70.6814C88.5825 70.7202 88.6345 70.7853 88.6568 70.8624C89.3572 73.342 90.1417 77.867 89.7635 85.2988C89.6164 88.1917 89.3923 91.687 89.1051 95.6797C89.1024 95.7192 89.0919 95.7579 89.0743 95.7935C89.0566 95.829 89.0321 95.8607 89.0022 95.8867C88.9722 95.9127 88.9374 95.9326 88.8998 95.9452C88.8622 95.9577 88.8224 95.9627 88.7828 95.9598Z" fill="#ECBDBB"/>
<path d="M47.2316 131.613C47.159 131.615 47.0883 131.591 47.0323 131.544C46.9763 131.498 46.9389 131.433 46.927 131.362C46.915 131.29 46.9294 131.217 46.9673 131.155C47.0053 131.093 47.0643 131.047 47.1336 131.025C59.2486 126.877 72.0433 125.078 84.8323 125.722C84.8719 125.726 84.9104 125.737 84.9457 125.756C84.9809 125.774 85.0121 125.799 85.0375 125.83C85.0629 125.861 85.082 125.896 85.0936 125.934C85.1053 125.972 85.1093 126.012 85.1055 126.052C85.1029 126.092 85.0922 126.131 85.074 126.166C85.0559 126.202 85.0306 126.234 84.9998 126.259C84.9689 126.285 84.9332 126.304 84.8948 126.315C84.8564 126.326 84.816 126.33 84.7763 126.325C72.0724 125.689 59.3638 127.479 47.3297 131.599L47.2316 131.613Z" fill="#ECBDBB"/>
<path d="M48.4153 122.122C48.3462 122.119 48.2801 122.093 48.2282 122.047C48.1763 122.001 48.1417 121.939 48.1302 121.871C48.1187 121.803 48.131 121.733 48.165 121.673C48.1991 121.612 48.2529 121.566 48.3172 121.541C48.5904 121.443 75.7823 111.825 82.0514 106.187C82.1118 106.141 82.187 106.12 82.2622 106.128C82.3374 106.135 82.407 106.171 82.4572 106.227C82.5075 106.283 82.5347 106.357 82.5335 106.432C82.5323 106.508 82.5027 106.58 82.4506 106.635C77.9887 110.648 63.6153 116.441 55.0627 119.705C68.3714 116.651 83.2562 116.154 83.4313 116.147C83.5112 116.147 83.5878 116.179 83.6443 116.235C83.7008 116.292 83.7325 116.368 83.7325 116.448C83.7325 116.528 83.7008 116.605 83.6443 116.661C83.5878 116.718 83.5112 116.749 83.4313 116.749C83.2281 116.749 62.8798 117.45 48.4924 122.115L48.4153 122.122Z" fill="#ECBDBB"/>
<path d="M60.5895 58.3451L58.9924 66.3724C58.9924 66.3724 62.957 69.8397 67.8392 69.7907C72.7214 69.7416 74.9559 68.2847 74.9559 68.2847L75.6564 60.8948C73.525 59.3097 71.0483 58.2523 68.4294 57.8091C65.8104 57.3659 63.1237 57.5496 60.5895 58.3451Z" fill="#F68D88"/>
<path d="M67.7691 70.0919C62.8659 70.0919 58.9853 66.7437 58.8242 66.5896C58.7839 66.5547 58.7536 66.5097 58.7364 66.4592C58.7191 66.4088 58.7156 66.3546 58.7262 66.3024L59.6998 61.3991C59.7209 61.3266 59.7685 61.2646 59.8331 61.2255C59.8977 61.1864 59.9747 61.173 60.0488 61.188C60.1228 61.203 60.1885 61.2452 60.2329 61.3064C60.2772 61.3676 60.297 61.4432 60.2882 61.5182L59.3496 66.2253C60.05 66.8067 63.6504 69.5035 67.8672 69.4614C71.9648 69.4194 74.1713 68.3617 74.6966 68.0605L75.0819 63.8578C75.0845 63.8178 75.0952 63.7788 75.1133 63.7431C75.1315 63.7074 75.1568 63.6758 75.1876 63.6502C75.2184 63.6246 75.2542 63.6056 75.2926 63.5943C75.331 63.5831 75.3713 63.5797 75.4111 63.5846C75.4507 63.5881 75.4892 63.5994 75.5245 63.6179C75.5597 63.6364 75.5909 63.6617 75.6163 63.6923C75.6417 63.7229 75.6608 63.7582 75.6724 63.7962C75.6841 63.8343 75.6881 63.8742 75.6843 63.9138L75.285 68.2637C75.281 68.3086 75.267 68.3521 75.244 68.3909C75.221 68.4297 75.1895 68.4628 75.1519 68.4878C75.0609 68.5508 72.7844 69.9938 67.8742 70.0428H67.7691V70.0919Z" fill="#ECBDBB"/>
<path d="M71.1242 53.484L70.6409 58.1981L70.3047 61.4972C68.511 61.4815 66.7302 61.1934 65.0232 60.6427L66.5502 53.4139L66.8724 51.9079L71.1242 53.484Z" fill="#ECBDBB"/>
<path d="M71.124 53.484L70.6407 58.1981C68.7208 57.1786 67.259 55.4689 66.55 53.4139L66.8723 51.9079L71.124 53.484Z" fill="#404B7C"/>
<path d="M70.7041 61.7984H70.3048C68.4803 61.7828 66.6687 61.49 64.9323 60.9299C63.9467 60.629 63.0048 60.2004 62.1304 59.655C62.0716 59.6077 62.0327 59.5399 62.0214 59.4652C62.0102 59.3905 62.0274 59.3143 62.0697 59.2517C62.1121 59.1891 62.1763 59.1447 62.2499 59.1273C62.3234 59.1099 62.4008 59.1207 62.4666 59.1577C63.3034 59.672 64.2027 60.0769 65.1424 60.3625C66.8222 60.9046 68.5747 61.188 70.3398 61.203C71.5926 61.226 72.8449 61.1322 74.0803 60.9229C74.1194 60.9164 74.1593 60.9177 74.1979 60.9267C74.2365 60.9358 74.2729 60.9523 74.3051 60.9754C74.3373 60.9985 74.3647 61.0277 74.3856 61.0613C74.4065 61.095 74.4206 61.1324 74.427 61.1715C74.4334 61.2106 74.4321 61.2506 74.4231 61.2892C74.4141 61.3278 74.3976 61.3642 74.3745 61.3964C74.3514 61.4286 74.3222 61.4559 74.2885 61.4768C74.2549 61.4977 74.2174 61.5118 74.1783 61.5182C73.03 61.7077 71.8679 61.8014 70.7041 61.7984Z" fill="#ECBDBB"/>
<path d="M67.8391 52.3282C67.8391 52.3282 63.7064 55.5503 60.8345 48.8609C60.8345 48.8609 54.8736 48.1605 54.6915 45.1555C54.5093 42.1505 57.5493 41.8703 57.5493 41.8703C56.9762 39.4371 57.1 36.8917 57.9065 34.5256C58.7129 32.1594 60.1695 30.0683 62.1093 28.4916C68.9178 22.7128 69.5272 29.2831 69.5272 29.2831C69.5272 29.2831 73.2957 22.9019 78.4651 23.2031C83.6345 23.5043 78.8923 30.9852 78.8923 30.9852C78.8923 30.9852 84.9093 28.0082 86.8566 30.4388C88.8038 32.8694 85.0354 39.3137 81.6872 41.0788C81.6872 41.0788 85.0914 40.9597 84.9723 43.9367C84.8533 46.9136 79.3687 50.1358 75.6702 50.3809C75.6842 50.3809 72.1609 57.0703 67.8391 52.3282Z" fill="#404B7C"/>
<path d="M76.5457 47.0327C76.7208 45.7789 77.3863 44.7072 78.2969 44.406C78.5699 44.3111 78.8642 44.2955 79.1457 44.3613C79.4271 44.427 79.6842 44.5712 79.8869 44.7772C81.4629 46.1782 79.5157 52.027 76.1885 49.6104L76.5457 47.0327Z" fill="#ECBDBB"/>
<path d="M76.8749 48.6158H76.8189C76.7922 48.6085 76.7671 48.596 76.7453 48.579C76.7234 48.562 76.7051 48.5409 76.6914 48.5168C76.6778 48.4927 76.669 48.4661 76.6656 48.4386C76.6623 48.4112 76.6643 48.3833 76.6718 48.3566C77.022 47.1378 77.5544 46.3953 78.2618 46.1431C78.5241 46.0629 78.801 46.042 79.0724 46.082C79.3438 46.122 79.6028 46.2218 79.8309 46.3743C79.8764 46.4068 79.9071 46.4561 79.9163 46.5112C79.9255 46.5664 79.9124 46.623 79.8799 46.6685C79.8474 46.714 79.7981 46.7447 79.7429 46.7539C79.6878 46.7631 79.6312 46.75 79.5857 46.7175C79.4115 46.6043 79.2149 46.5301 79.0094 46.4999C78.8039 46.4697 78.5943 46.4842 78.3949 46.5424C77.8275 46.7455 77.3792 47.397 77.071 48.4687C77.0579 48.5106 77.0318 48.5474 76.9967 48.5738C76.9615 48.6002 76.9189 48.6149 76.8749 48.6158Z" fill="#404B7C"/>
<path d="M78.479 48.6158C78.429 48.6145 78.3811 48.5955 78.3438 48.5622C78.3066 48.5288 78.2825 48.4832 78.2758 48.4337C78.2757 47.7879 78.1692 47.1466 77.9606 46.5354C77.9402 46.4834 77.9413 46.4254 77.9636 46.3742C77.9859 46.3229 78.0277 46.2827 78.0797 46.2622C78.1317 46.2418 78.1897 46.2429 78.241 46.2652C78.2922 46.2875 78.3325 46.3293 78.3529 46.3813C78.5828 47.0435 78.6988 47.7397 78.6961 48.4407C78.6876 48.4913 78.6608 48.5372 78.6208 48.5694C78.5808 48.6017 78.5303 48.6182 78.479 48.6158Z" fill="#404B7C"/>
<path d="M63.7974 38.1019C62.6837 44.3009 63.7063 48.6788 65.2544 50.9903C66.8024 53.3018 70.4237 56.0336 73.5548 55.067C76.6858 54.1004 77.4213 49.1691 78.1148 41.9054C79.0324 32.3231 65.1703 30.5019 63.7974 38.1019Z" fill="#ECBDBB"/>
<path d="M64.0566 47.418C64.3099 45.6567 64.7538 43.928 65.3805 42.2626C65.3805 42.2626 71.4885 42.9 73.0856 37.7026C73.0856 37.7026 73.0856 41.9614 76.854 42.3817C77.4103 43.9333 77.6254 45.5866 77.4845 47.2289C77.4845 47.2289 79.7259 41.6952 78.36 36.9041C76.9941 32.1129 67.643 30.2497 64.0426 34.7607C60.4423 39.2716 62.0533 46.1572 64.0566 47.418Z" fill="#404B7C"/>
<path d="M64.5329 47.0327C64.4287 46.413 64.149 45.8361 63.7269 45.3705C63.3047 44.9049 62.7579 44.5702 62.1513 44.406C61.7861 44.31 61.4045 44.2935 61.0323 44.3575C60.6601 44.4216 60.306 44.5647 59.9939 44.7772C57.8505 46.1782 60.4982 52.027 65.0092 49.6104L64.5329 47.0327Z" fill="#ECBDBB"/>
<path d="M64.0566 48.6158C64.0143 48.6159 63.973 48.6033 63.938 48.5795C63.903 48.5558 63.876 48.522 63.8605 48.4827C63.7386 48.0723 63.5306 47.6925 63.2504 47.3688C62.9701 47.0451 62.6241 46.7849 62.2354 46.6055C61.598 46.3941 60.9039 46.4342 60.2951 46.7175C60.2462 46.7407 60.1902 46.7441 60.1389 46.727C60.0875 46.7099 60.0447 46.6736 60.0195 46.6257C59.9942 46.5779 59.9883 46.5221 60.0031 46.47C60.018 46.418 60.0523 46.3737 60.099 46.3463C60.8103 46.0037 61.6275 45.9534 62.3755 46.2062C62.819 46.403 63.2153 46.6922 63.5378 47.0547C63.8604 47.4171 64.1017 47.8443 64.2457 48.3076C64.2559 48.3333 64.2609 48.3608 64.2605 48.3885C64.26 48.4162 64.2541 48.4435 64.243 48.4689C64.2319 48.4943 64.2159 48.5173 64.196 48.5365C64.176 48.5556 64.1524 48.5707 64.1266 48.5808L64.0566 48.6158Z" fill="#404B7C"/>
<path d="M61.9132 48.6158C61.8586 48.6158 61.8062 48.5946 61.767 48.5567C61.7278 48.5188 61.7048 48.4671 61.703 48.4126C61.6975 47.6856 61.858 46.9669 62.1723 46.3112C62.1845 46.2856 62.2017 46.2627 62.2229 46.2438C62.2441 46.225 62.269 46.2107 62.2959 46.2017C62.3228 46.1928 62.3513 46.1894 62.3796 46.1917C62.4078 46.194 62.4353 46.2021 62.4604 46.2153C62.4855 46.2286 62.5077 46.2468 62.5255 46.2688C62.5434 46.2909 62.5566 46.3163 62.5644 46.3436C62.5722 46.3709 62.5743 46.3995 62.5707 46.4276C62.5672 46.4558 62.5579 46.4829 62.5436 46.5074C62.2684 47.0925 62.1249 47.731 62.1233 48.3776C62.1242 48.4052 62.1197 48.4327 62.11 48.4586C62.1003 48.4844 62.0856 48.5081 62.0667 48.5283C62.0479 48.5484 62.0252 48.5647 62.0001 48.5761C61.9749 48.5875 61.9478 48.5938 61.9202 48.5947L61.9132 48.6158Z" fill="#404B7C"/>
<path d="M72.8683 50.7382C72.8163 50.7407 72.7653 50.7238 72.7251 50.6909C72.6848 50.658 72.6582 50.6114 72.6504 50.56C72.6425 50.5086 72.654 50.4561 72.6826 50.4127C72.7112 50.3692 72.7549 50.338 72.8052 50.3249C73.1093 50.2638 73.3931 50.1272 73.6306 49.9277C73.8681 49.7282 74.0515 49.4721 74.1641 49.1831C73.4007 48.1569 72.9903 46.9109 72.9944 45.6318C72.9943 45.6039 73 45.5763 73.011 45.5507C73.0221 45.5251 73.0383 45.502 73.0587 45.483C73.0791 45.4639 73.1032 45.4493 73.1294 45.4399C73.1557 45.4306 73.1837 45.4268 73.2115 45.4287C73.2391 45.4296 73.2662 45.4359 73.2914 45.4473C73.3165 45.4587 73.3392 45.475 73.3581 45.4951C73.3769 45.5153 73.3916 45.539 73.4013 45.5648C73.411 45.5907 73.4156 45.6182 73.4146 45.6458C73.4181 46.8535 73.8166 48.0269 74.5494 48.987C74.5691 49.0098 74.5838 49.0367 74.5922 49.0657C74.6007 49.0947 74.6028 49.1252 74.5984 49.1551C74.4967 49.5484 74.2854 49.9047 73.989 50.1825C73.6926 50.4603 73.3233 50.6481 72.9243 50.7241H72.8613L72.8683 50.7382Z" fill="#404B7C"/>
<path d="M70.3047 47.46C70.7651 47.46 71.1383 46.9645 71.1383 46.3533C71.1383 45.7421 70.7651 45.2466 70.3047 45.2466C69.8444 45.2466 69.4712 45.7421 69.4712 46.3533C69.4712 46.9645 69.8444 47.46 70.3047 47.46Z" fill="#404B7C"/>
<path d="M70.5148 46.2973C70.6812 46.2973 70.816 46.1624 70.816 45.9961C70.816 45.8297 70.6812 45.6949 70.5148 45.6949C70.3485 45.6949 70.2136 45.8297 70.2136 45.9961C70.2136 46.1624 70.3485 46.2973 70.5148 46.2973Z" fill="white"/>
<path d="M73.3097 53.0287C73.0639 53.0891 72.813 53.1266 72.5602 53.1407C71.4665 53.2534 70.3675 52.9836 69.4502 52.3772C69.6257 52.2257 69.8105 52.0853 70.0036 51.957C70.1799 51.8401 70.3623 51.7325 70.5499 51.6347C71.3484 51.2285 72.3711 50.9973 72.9595 52.027C73.1306 52.3393 73.2489 52.6778 73.3097 53.0287Z" fill="#404B7C"/>
<path d="M72.9665 52.027C72.142 52.1468 71.3007 52.0099 70.5569 51.6348C71.3554 51.2355 72.3851 50.9973 72.9665 52.027Z" fill="white"/>
<path d="M72.5602 53.1407C71.4665 53.2534 70.3675 52.9836 69.4502 52.3772C69.6257 52.2257 69.8105 52.0853 70.0036 51.957C70.8511 51.8519 72.147 51.936 72.5602 53.1407Z" fill="#F68D88"/>
<path d="M75.229 47.46C75.6894 47.46 76.0626 46.9645 76.0626 46.3533C76.0626 45.7421 75.6894 45.2466 75.229 45.2466C74.7687 45.2466 74.3955 45.7421 74.3955 46.3533C74.3955 46.9645 74.7687 47.46 75.229 47.46Z" fill="#404B7C"/>
<path d="M75.467 46.2973C75.6333 46.2973 75.7682 46.1624 75.7682 45.9961C75.7682 45.8297 75.6333 45.6949 75.467 45.6949C75.3006 45.6949 75.1658 45.8297 75.1658 45.9961C75.1658 46.1624 75.3006 46.2973 75.467 46.2973Z" fill="white"/>
<path d="M71.5656 41.9894C71.5587 42.3979 71.4951 42.8033 71.3765 43.1942C71.2154 43.5374 69.6814 43.8597 68.7988 44.6512C68.7453 44.1283 68.8987 43.6053 69.2261 43.1942C69.7724 42.4938 71.0543 42.5988 71.0543 42.5988C71.0543 42.5988 71.5656 41.31 71.5656 41.9894Z" fill="#404B7C"/>
<path d="M74.5144 41.9894C74.5193 42.3956 74.571 42.7999 74.6685 43.1942C74.8016 43.5374 76.0694 43.8597 76.7699 44.6512C76.8155 44.1403 76.6925 43.6285 76.4197 43.1942C76.2312 42.986 75.9974 42.8239 75.7362 42.7207C75.475 42.6174 75.1936 42.5757 74.9137 42.5988C74.9137 42.5988 74.5144 41.31 74.5144 41.9894Z" fill="#404B7C"/>
<path d="M50.2575 72.0251C48.6254 79.6882 41.5017 84.1501 41.5017 84.1501C41.5017 84.1501 33.0962 82.3289 26.7921 77.2155C26.7921 77.2155 25.7484 72.7046 28.7043 66.2744C29.7413 63.9473 31.3312 61.9088 33.3358 60.3364C35.3403 58.764 37.6988 57.7053 40.2059 57.2524L48.7305 60.8598C48.7305 60.8598 51.8825 64.3691 50.2575 72.0251Z" fill="#F68D88"/>
<path d="M42.7977 83.4987C42.7344 83.4997 42.6725 83.4807 42.6206 83.4446C42.5688 83.4084 42.5296 83.3568 42.5087 83.2972C42.4877 83.2375 42.4861 83.1728 42.5041 83.1121C42.522 83.0515 42.5585 82.998 42.6086 82.9593C44.85 81.1801 48.7866 77.3556 49.9424 71.9621C50.937 67.3461 50.1805 64.257 49.368 62.4919C49.3492 62.4557 49.338 62.4161 49.3349 62.3755C49.3319 62.3349 49.3371 62.2941 49.3503 62.2556C49.3635 62.217 49.3844 62.1815 49.4117 62.1513C49.439 62.1211 49.4721 62.0967 49.5091 62.0796C49.5461 62.0625 49.5861 62.0531 49.6268 62.052C49.6676 62.0509 49.7081 62.058 49.746 62.0729C49.7838 62.0879 49.8183 62.1104 49.8472 62.1391C49.8762 62.1677 49.899 62.202 49.9143 62.2397C50.7619 64.0959 51.5534 67.304 50.5307 72.0812C49.333 77.6848 45.2913 81.5934 42.9798 83.4216C42.9295 83.4671 42.8653 83.4942 42.7977 83.4987Z" fill="#ECBDBB"/>
<path d="M40.2129 57.2524C39.8206 59.8209 39.1343 62.3357 38.1675 64.7474C37.9994 65.1606 37.8243 65.5879 37.6352 66.0082L37.5932 66.1133C36.0816 69.6915 33.6682 72.8168 30.5886 75.1842C29.426 76.0299 28.1565 76.7177 26.8131 77.2296C26.5347 75.5554 26.5585 73.845 26.8831 72.1792C27.2283 70.14 27.8455 68.1564 28.7183 66.2814C29.7537 63.9538 31.3422 61.9145 33.3455 60.3409C35.3488 58.7673 37.7063 57.7071 40.2129 57.2524Z" fill="#404B7C"/>
<path d="M30.5397 78.7145C30.4718 78.7128 30.4064 78.6882 30.3542 78.6446C30.3021 78.601 30.2662 78.5411 30.2524 78.4746C30.2386 78.408 30.2477 78.3387 30.2782 78.278C30.3088 78.2173 30.359 78.1687 30.4206 78.1401C40.185 73.7903 41.9922 59.7321 42.0062 59.592C42.0222 59.5189 42.0648 59.4544 42.1257 59.411C42.1866 59.3676 42.2614 59.3484 42.3357 59.3572C42.4099 59.3659 42.4783 59.402 42.5275 59.4583C42.5766 59.5146 42.6031 59.5873 42.6016 59.662C42.6016 59.8091 40.7314 74.2036 30.6938 78.6865C30.6458 78.7093 30.5927 78.7189 30.5397 78.7145Z" fill="#ECBDBB"/>
<path d="M68.1755 34.4805C68.1755 34.4805 70.2768 34.5365 70.1788 35.5172C70.0807 36.4978 65.6188 36.729 65.4647 36.82C65.3106 36.9111 63.4123 40.6515 62.1375 40.8757C61.1564 41.0151 60.1644 41.062 59.1745 41.0158C59.1745 41.0158 42.5386 60.6637 38.1608 64.7403C38.1187 64.8524 37.9996 65.2097 37.6424 65.9802L37.6004 66.0852C36.0888 69.6635 33.6754 72.7888 30.5958 75.1562C29.8603 74.6168 28.6975 73.7553 27.4367 72.6415L26.8974 72.1512C23.9554 69.4825 20.8034 65.77 21.6579 62.702C23.1499 57.2524 56.5618 36.5258 56.5618 36.5258C56.5618 36.5258 59.0555 29.3391 59.9661 28.5406C60.8767 27.7421 61.1498 28.7577 61.1218 29.4512C61.0575 30.1123 60.957 30.7694 60.8206 31.4195C60.9817 31.2514 63.5874 28.6176 64.8273 28.3935C66.3415 28.2095 67.8777 28.397 69.3032 28.9398C70.1227 29.3601 68.7008 30.1797 68.7008 30.1797C68.7008 30.1797 70.8022 30.1236 70.7391 31.0342C70.6761 31.9448 68.2175 32.3721 68.2175 32.3721C68.2175 32.3721 70.7041 32.197 70.8022 33.1986C70.9002 34.2003 68.1755 34.4805 68.1755 34.4805Z" fill="#ECBDBB"/>
<path d="M38.1537 64.7684C38.1117 64.8804 37.9926 65.2377 37.6354 66.0082L37.5934 66.1133C36.0818 69.6915 33.6684 72.8168 30.5888 75.1842C29.8533 74.6448 28.6905 73.7833 27.4297 72.6696C33.5167 71.1145 37.8735 65.1466 38.1537 64.7684Z" fill="#404B7C"/>
<path d="M62.8096 31.7907C62.766 31.7918 62.7232 31.7793 62.687 31.755C62.6509 31.7306 62.6232 31.6956 62.6078 31.6548C62.5924 31.6141 62.5901 31.5695 62.6011 31.5273C62.6122 31.4851 62.6361 31.4475 62.6695 31.4195C63.3105 30.8633 64.0491 30.431 64.848 30.1446C65.9153 29.9981 66.9934 29.9442 68.0701 29.9835C68.0977 29.9844 68.1248 29.9908 68.15 30.0022C68.1751 30.0136 68.1978 30.0298 68.2167 30.05C68.2355 30.0702 68.2502 30.0939 68.2599 30.1197C68.2696 30.1456 68.2741 30.1731 68.2732 30.2007C68.2733 30.2286 68.2676 30.2562 68.2565 30.2818C68.2455 30.3074 68.2292 30.3305 68.2088 30.3495C68.1885 30.3686 68.1644 30.3832 68.1381 30.3926C68.1118 30.4019 68.0839 30.4057 68.0561 30.4038C67.0148 30.3669 65.9722 30.4161 64.939 30.5509C64.2061 30.8232 63.5277 31.224 62.9357 31.7347C62.9012 31.767 62.8568 31.7868 62.8096 31.7907Z" fill="#404B7C"/>
<path d="M63.3282 33.724C63.2852 33.7236 63.2434 33.7101 63.2083 33.6852C63.1733 33.6603 63.1467 33.6252 63.1322 33.5848C63.1177 33.5443 63.1159 33.5004 63.1272 33.4589C63.1384 33.4174 63.1621 33.3804 63.1951 33.3528C63.7155 32.9191 64.2989 32.5672 64.9252 32.3091C65.8468 32.1232 66.7886 32.0573 67.7271 32.1129C67.7547 32.1138 67.7818 32.1202 67.807 32.1316C67.8321 32.143 67.8548 32.1592 67.8736 32.1794C67.8925 32.1996 67.9072 32.2233 67.9169 32.2491C67.9266 32.275 67.9311 32.3025 67.9302 32.3301C67.9266 32.3852 67.9022 32.4369 67.8619 32.4747C67.8215 32.5124 67.7683 32.5333 67.7131 32.5332C66.8223 32.4793 65.9282 32.5358 65.0513 32.7013C64.4744 32.9434 63.9363 33.2691 63.4543 33.668C63.4197 33.7003 63.3753 33.72 63.3282 33.724Z" fill="#404B7C"/>
<path d="M63.8745 35.4541C63.8298 35.4557 63.7858 35.4429 63.7488 35.4176C63.7119 35.3924 63.684 35.3561 63.6691 35.3139C63.6543 35.2717 63.6533 35.2258 63.6663 35.183C63.6793 35.1402 63.7056 35.1027 63.7414 35.0759C64.1444 34.7601 64.603 34.5226 65.0933 34.3754C65.6187 34.2844 67.7131 34.2844 67.8041 34.2844C67.8598 34.2844 67.9133 34.3065 67.9527 34.3459C67.9921 34.3853 68.0143 34.4388 68.0143 34.4945C68.0143 34.5502 67.9921 34.6037 67.9527 34.6431C67.9133 34.6825 67.8598 34.7046 67.8041 34.7046C67.0616 34.7046 65.5626 34.7046 65.1634 34.7957C64.7382 34.9325 64.3417 35.1462 63.9936 35.4261C63.9576 35.4471 63.9161 35.4568 63.8745 35.4541Z" fill="#404B7C"/>
</svg>
