<svg width="173" height="35" viewBox="0 0 173 35" fill="none" xmlns="http://www.w3.org/2000/svg">
<path d="M33.9062 13.7812H21.3828L17.5 1.64062L13.6172 13.7812H1.09375L11.2109 21.2734L7.38281 33.3594L17.5 25.8672L27.6172 33.3594L23.7344 21.2188L33.9062 13.7812Z" fill="#FFCE31"/>
<path d="M67.5062 13.7812H54.9828L51.1 1.64062L47.2172 13.7812H34.6937L44.8109 21.2734L40.9828 33.3594L51.1 25.8672L61.2172 33.3594L57.3344 21.2188L67.5062 13.7812Z" fill="#FFCE31"/>
<path d="M102.506 13.7812H89.9828L86.1 1.64062L82.2172 13.7812H69.6937L79.8109 21.2734L75.9828 33.3594L86.1 25.8672L96.2172 33.3594L92.3344 21.2188L102.506 13.7812Z" fill="#FFCE31"/>
<path d="M136.106 13.7812H123.583L119.7 1.64062L115.817 13.7812H103.294L113.411 21.2734L109.583 33.3594L119.7 25.8672L129.817 33.3594L125.934 21.2188L136.106 13.7812Z" fill="#FFCE31"/>
<path d="M171.106 13.7812H158.583L154.7 1.64062L150.817 13.7812H138.294L148.411 21.2734L144.583 33.3594L154.7 25.8672L164.817 33.3594L160.934 21.2188L171.106 13.7812Z" fill="#FFCE31"/>
</svg>
