<svg width="48" height="47" viewBox="0 0 48 47" fill="none" xmlns="http://www.w3.org/2000/svg">
<path d="M24.2795 0C11.4204 0 0.558594 10.7606 0.558594 23.5C0.558594 36.2393 11.4204 47 24.2795 47C37.1386 47 48.0005 36.2393 48.0005 23.5C48.0005 10.7606 37.1386 0 24.2795 0ZM24.2795 11.75C28.3761 11.75 31.3958 14.7392 31.3958 18.8C31.3958 22.8608 28.3761 25.85 24.2795 25.85C20.1853 25.85 17.1632 22.8608 17.1632 18.8C17.1632 14.7392 20.1853 11.75 24.2795 11.75ZM12.1676 34.7142C14.2954 31.6122 17.844 29.5442 21.9074 29.5442H26.6516C30.7174 29.5442 34.2637 31.6122 36.3914 34.7142C33.3599 37.929 29.0593 39.95 24.2795 39.95C19.4998 39.95 15.1992 37.929 12.1676 34.7142Z" fill="black"/>
</svg>
